  0
SECTION
  2
BLOCKS
  0
ENDSEC
  0
SECTION
  2
ENTITIES
  0
LINE
  8
0
 10
8.28794679835585
 20
-9.590126061715393
 11
9.003163161571061
 21
-9.003163161571063
  0
LINE
  8
0
 10
9.003163161571061
 20
-9.003163161571063
 11
9.590126061715402
 21
-8.287946798355842
  0
LINE
  8
0
 10
9.590126061715402
 20
-8.287946798355842
 11
9.487312529105033
 21
-7.595314551233133
  0
LINE
  8
0
 10
9.487312529105033
 20
-7.595314551233133
 11
8.892056040952024
 21
-6.222602896995524
  0
LINE
  8
0
 10
8.892056040952024
 20
-6.222602896995524
 11
8.450893649081808
 21
-5.666857113108552
  0
LINE
  8
0
 10
8.450893649081808
 20
-5.666857113108552
 11
8.400215251585797
 21
-5.661032200816442
  0
LINE
  8
0
 10
8.400215251585797
 20
-5.661032200816442
 11
8.391058685438146
 21
-5.591481175841974
  0
LINE
  8
0
 10
8.391058685438146
 20
-5.591481175841974
 11
8.385278497772712
 21
-5.58419969631349
  0
LINE
  8
0
 10
8.385278497772712
 20
-5.58419969631349
 11
8.277660717536017
 21
-5.504401698241038
  0
LINE
  8
0
 10
8.277660717536017
 20
-5.504401698241038
 11
6.996871755304253
 21
-4.998419932630206
  0
LINE
  8
0
 10
6.996871755304253
 20
-4.998419932630206
 11
6.485262010669729
 21
-4.175347816614792
  0
LINE
  8
0
 10
6.485262010669729
 20
-4.175347816614792
 11
7.538189500456831
 21
-1.6333559905752912
  0
LINE
  8
0
 10
7.538189500456831
 20
-1.6333559905752912
 11
8.481952094849083
 21
-1.4131188356874276
  0
LINE
  8
0
 10
8.481952094849083
 20
-1.4131188356874276
 11
9.7453897929322
 21
-1.9609902585302281
  0
LINE
  8
0
 10
9.7453897929322
 20
-1.9609902585302281
 11
9.877912760675951
 21
-1.980661815149698
  0
LINE
  8
0
 10
9.877912760675951
 20
-1.980661815149698
 11
9.887148754122379
 21
-1.979600241492802
  0
LINE
  8
0
 10
9.887148754122379
 20
-1.979600241492802
 11
9.942803425535686
 21
-1.9368949101102704
  0
LINE
  8
0
 10
9.942803425535686
 20
-1.9368949101102704
 11
9.982757299046355
 21
-1.9686111136578615
  0
LINE
  8
0
 10
9.982757299046355
 20
-1.9686111136578615
 11
10.68767783034466
 21
-1.8875884201520579
  0
LINE
  8
0
 10
10.68767783034466
 20
-1.8875884201520579
 11
12.079241448988066
 21
-1.337844600144458
  0
LINE
  8
0
 10
12.079241448988066
 20
-1.337844600144458
 11
12.64170655390355
 21
-0.9207797874420456
  0
LINE
  8
0
 10
12.64170655390355
 20
-0.9207797874420456
 11
12.732395447351628
 21
-1.88492664089008e-15
  0
LINE
  8
0
 10
12.732395447351628
 20
-1.88492664089008e-15
 11
12.64170655390355
 21
0.9207797874420488
  0
LINE
  8
0
 10
12.64170655390355
 20
0.9207797874420488
 11
12.079241448988071
 21
1.3378446001444544
  0
LINE
  8
0
 10
12.079241448988071
 20
1.3378446001444544
 11
10.687677830344573
 21
1.887588420151389
  0
LINE
  8
0
 10
10.687677830344573
 20
1.887588420151389
 11
9.982757299046355
 21
1.9686111136577793
  0
LINE
  8
0
 10
9.982757299046355
 20
1.9686111136577793
 11
9.94280342553569
 21
1.9368949101102648
  0
LINE
  8
0
 10
9.94280342553569
 20
1.9368949101102648
 11
9.88714875412238
 21
1.9796002414927996
  0
LINE
  8
0
 10
9.88714875412238
 20
1.9796002414927996
 11
9.87791276067596
 21
1.9806618151497026
  0
LINE
  8
0
 10
9.87791276067596
 20
1.9806618151497026
 11
9.745389792932208
 21
1.9609902585302341
  0
LINE
  8
0
 10
9.745389792932208
 20
1.9609902585302341
 11
8.481952094849085
 21
1.4131188356874342
  0
LINE
  8
0
 10
8.481952094849085
 20
1.4131188356874342
 11
7.538189500456834
 21
1.6333559905753043
  0
LINE
  8
0
 10
7.538189500456834
 20
1.6333559905753043
 11
6.485262010669718
 21
4.175347816614798
  0
LINE
  8
0
 10
6.485262010669718
 20
4.175347816614798
 11
6.996871755304248
 21
4.998419932630209
  0
LINE
  8
0
 10
6.996871755304248
 20
4.998419932630209
 11
8.277660717536008
 21
5.504401698241036
  0
LINE
  8
0
 10
8.277660717536008
 20
5.504401698241036
 11
8.385278497772703
 21
5.584199696313488
  0
LINE
  8
0
 10
8.385278497772703
 20
5.584199696313488
 11
8.391058685438146
 21
5.59148117584197
  0
LINE
  8
0
 10
8.391058685438146
 20
5.59148117584197
 11
8.400215251585799
 21
5.661032200816437
  0
LINE
  8
0
 10
8.400215251585799
 20
5.661032200816437
 11
8.450893649081863
 21
5.666857113108499
  0
LINE
  8
0
 10
8.450893649081863
 20
5.666857113108499
 11
8.892056040952616
 21
6.222602896995063
  0
LINE
  8
0
 10
8.892056040952616
 20
6.222602896995063
 11
9.487312529105031
 21
7.595314551233127
  0
LINE
  8
0
 10
9.487312529105031
 20
7.595314551233127
 11
9.5901260617154
 21
8.287946798355842
  0
LINE
  8
0
 10
9.5901260617154
 20
8.287946798355842
 11
9.003163161571063
 21
9.003163161571061
  0
LINE
  8
0
 10
9.003163161571063
 20
9.003163161571061
 11
8.287946798355842
 21
9.590126061715402
  0
LINE
  8
0
 10
8.287946798355842
 20
9.590126061715402
 11
7.595314551233134
 21
9.487312529105033
  0
LINE
  8
0
 10
7.595314551233134
 20
9.487312529105033
 11
6.222602896995525
 21
8.892056040952024
  0
LINE
  8
0
 10
6.222602896995525
 20
8.892056040952024
 11
5.666857113108552
 21
8.450893649081808
  0
LINE
  8
0
 10
5.666857113108552
 20
8.450893649081808
 11
5.661032200816443
 21
8.400215251585797
  0
LINE
  8
0
 10
5.661032200816443
 20
8.400215251585797
 11
5.591481175841974
 21
8.391058685438146
  0
LINE
  8
0
 10
5.591481175841974
 20
8.391058685438146
 11
5.58419969631349
 21
8.385278497772712
  0
LINE
  8
0
 10
5.58419969631349
 20
8.385278497772712
 11
5.504401698241039
 21
8.277660717536017
  0
LINE
  8
0
 10
5.504401698241039
 20
8.277660717536017
 11
4.998419932630206
 21
6.996871755304253
  0
LINE
  8
0
 10
4.998419932630206
 20
6.996871755304253
 11
4.175347816614792
 21
6.485262010669729
  0
LINE
  8
0
 10
4.175347816614792
 20
6.485262010669729
 11
1.6333559905752917
 21
7.538189500456831
  0
LINE
  8
0
 10
1.6333559905752917
 20
7.538189500456831
 11
1.413118835687428
 21
8.481952094849083
  0
LINE
  8
0
 10
1.413118835687428
 20
8.481952094849083
 11
1.9609902585302288
 21
9.7453897929322
  0
LINE
  8
0
 10
1.9609902585302288
 20
9.7453897929322
 11
1.9806618151496986
 21
9.877912760675951
  0
LINE
  8
0
 10
1.9806618151496986
 20
9.877912760675951
 11
1.9796002414928027
 21
9.887148754122377
  0
LINE
  8
0
 10
1.9796002414928027
 20
9.887148754122377
 11
1.936894910110271
 21
9.942803425535686
  0
LINE
  8
0
 10
1.936894910110271
 20
9.942803425535686
 11
1.9686111136578623
 21
9.982757299046353
  0
LINE
  8
0
 10
1.9686111136578623
 20
9.982757299046353
 11
1.8875884201520585
 21
10.68767783034466
  0
LINE
  8
0
 10
1.8875884201520585
 20
10.68767783034466
 11
1.3378446001444586
 21
12.079241448988066
  0
LINE
  8
0
 10
1.3378446001444586
 20
12.079241448988066
 11
0.9207797874420464
 21
12.64170655390355
  0
LINE
  8
0
 10
0.9207797874420464
 20
12.64170655390355
 11
1.88492664089008e-15
 21
12.732395447351628
  0
LINE
  8
0
 10
1.88492664089008e-15
 20
12.732395447351628
 11
-0.9207797874420488
 21
12.64170655390355
  0
LINE
  8
0
 10
-0.9207797874420488
 20
12.64170655390355
 11
-1.3378446001444544
 21
12.079241448988071
  0
LINE
  8
0
 10
-1.3378446001444544
 20
12.079241448988071
 11
-1.887588420151389
 21
10.687677830344573
  0
LINE
  8
0
 10
-1.887588420151389
 20
10.687677830344573
 11
-1.9686111136577793
 21
9.982757299046355
  0
LINE
  8
0
 10
-1.9686111136577793
 20
9.982757299046355
 11
-1.9368949101102648
 21
9.94280342553569
  0
LINE
  8
0
 10
-1.9368949101102648
 20
9.94280342553569
 11
-1.9796002414927996
 21
9.88714875412238
  0
LINE
  8
0
 10
-1.9796002414927996
 20
9.88714875412238
 11
-1.9806618151497026
 21
9.87791276067596
  0
LINE
  8
0
 10
-1.9806618151497026
 20
9.87791276067596
 11
-1.9609902585302341
 21
9.745389792932208
  0
LINE
  8
0
 10
-1.9609902585302341
 20
9.745389792932208
 11
-1.4131188356874342
 21
8.481952094849085
  0
LINE
  8
0
 10
-1.4131188356874342
 20
8.481952094849085
 11
-1.6333559905753043
 21
7.538189500456834
  0
LINE
  8
0
 10
-1.6333559905753043
 20
7.538189500456834
 11
-4.175347816614798
 21
6.485262010669718
  0
LINE
  8
0
 10
-4.175347816614798
 20
6.485262010669718
 11
-4.998419932630209
 21
6.996871755304248
  0
LINE
  8
0
 10
-4.998419932630209
 20
6.996871755304248
 11
-5.504401698241036
 21
8.277660717536008
  0
LINE
  8
0
 10
-5.504401698241036
 20
8.277660717536008
 11
-5.584199696313488
 21
8.385278497772703
  0
LINE
  8
0
 10
-5.584199696313488
 20
8.385278497772703
 11
-5.59148117584197
 21
8.391058685438146
  0
LINE
  8
0
 10
-5.59148117584197
 20
8.391058685438146
 11
-5.661032200816437
 21
8.400215251585799
  0
LINE
  8
0
 10
-5.661032200816437
 20
8.400215251585799
 11
-5.666857113108499
 21
8.450893649081863
  0
LINE
  8
0
 10
-5.666857113108499
 20
8.450893649081863
 11
-6.222602896995063
 21
8.892056040952616
  0
LINE
  8
0
 10
-6.222602896995063
 20
8.892056040952616
 11
-7.595314551233127
 21
9.487312529105031
  0
LINE
  8
0
 10
-7.595314551233127
 20
9.487312529105031
 11
-8.287946798355842
 21
9.5901260617154
  0
LINE
  8
0
 10
-8.287946798355842
 20
9.5901260617154
 11
-9.00316316157106
 21
9.003163161571065
  0
LINE
  8
0
 10
-9.00316316157106
 20
9.003163161571065
 11
-9.5901260617154
 21
8.287946798355843
  0
LINE
  8
0
 10
-9.5901260617154
 20
8.287946798355843
 11
-9.487312529105031
 21
7.595314551233134
  0
LINE
  8
0
 10
-9.487312529105031
 20
7.595314551233134
 11
-8.892056040952024
 21
6.222602896995525
  0
LINE
  8
0
 10
-8.892056040952024
 20
6.222602896995525
 11
-8.450893649081808
 21
5.666857113108552
  0
LINE
  8
0
 10
-8.450893649081808
 20
5.666857113108552
 11
-8.400215251585797
 21
5.661032200816443
  0
LINE
  8
0
 10
-8.400215251585797
 20
5.661032200816443
 11
-8.391058685438146
 21
5.591481175841974
  0
LINE
  8
0
 10
-8.391058685438146
 20
5.591481175841974
 11
-8.385278497772712
 21
5.58419969631349
  0
LINE
  8
0
 10
-8.385278497772712
 20
5.58419969631349
 11
-8.277660717536017
 21
5.504401698241039
  0
LINE
  8
0
 10
-8.277660717536017
 20
5.504401698241039
 11
-6.9968717553042525
 21
4.998419932630207
  0
LINE
  8
0
 10
-6.9968717553042525
 20
4.998419932630207
 11
-6.485262010669728
 21
4.175347816614793
  0
LINE
  8
0
 10
-6.485262010669728
 20
4.175347816614793
 11
-7.538189500456831
 21
1.6333559905752921
  0
LINE
  8
0
 10
-7.538189500456831
 20
1.6333559905752921
 11
-8.481952094849083
 21
1.4131188356874287
  0
LINE
  8
0
 10
-8.481952094849083
 20
1.4131188356874287
 11
-9.7453897929322
 21
1.9609902585302292
  0
LINE
  8
0
 10
-9.7453897929322
 20
1.9609902585302292
 11
-9.877912760675951
 21
1.980661815149699
  0
LINE
  8
0
 10
-9.877912760675951
 20
1.980661815149699
 11
-9.887148754122377
 21
1.9796002414928031
  0
LINE
  8
0
 10
-9.887148754122377
 20
1.9796002414928031
 11
-9.942803425535686
 21
1.9368949101102715
  0
LINE
  8
0
 10
-9.942803425535686
 20
1.9368949101102715
 11
-9.982757299046353
 21
1.9686111136578626
  0
LINE
  8
0
 10
-9.982757299046353
 20
1.9686111136578626
 11
-10.687677830344658
 21
1.887588420152059
  0
LINE
  8
0
 10
-10.687677830344658
 20
1.887588420152059
 11
-12.079241448988066
 21
1.3378446001444595
  0
LINE
  8
0
 10
-12.079241448988066
 20
1.3378446001444595
 11
-12.64170655390355
 21
0.9207797874420471
  0
LINE
  8
0
 10
-12.64170655390355
 20
0.9207797874420471
 11
-12.73239544735163
 21
2.773105060590205e-15
  0
LINE
  8
0
 10
-12.73239544735163
 20
2.773105060590205e-15
 11
-12.641706553903552
 21
-0.9207797874420479
  0
LINE
  8
0
 10
-12.641706553903552
 20
-0.9207797874420479
 11
-12.079241448988073
 21
-1.3378446001444535
  0
LINE
  8
0
 10
-12.079241448988073
 20
-1.3378446001444535
 11
-10.687677830344573
 21
-1.8875884201513882
  0
LINE
  8
0
 10
-10.687677830344573
 20
-1.8875884201513882
 11
-9.982757299046353
 21
-1.9686111136577793
  0
LINE
  8
0
 10
-9.982757299046353
 20
-1.9686111136577793
 11
-9.94280342553569
 21
-1.936894910110264
  0
LINE
  8
0
 10
-9.94280342553569
 20
-1.936894910110264
 11
-9.887148754122379
 21
-1.9796002414927993
  0
LINE
  8
0
 10
-9.887148754122379
 20
-1.9796002414927993
 11
-9.87791276067596
 21
-1.9806618151497022
  0
LINE
  8
0
 10
-9.87791276067596
 20
-1.9806618151497022
 11
-9.745389792932208
 21
-1.9609902585302332
  0
LINE
  8
0
 10
-9.745389792932208
 20
-1.9609902585302332
 11
-8.481952094849085
 21
-1.4131188356874338
  0
LINE
  8
0
 10
-8.481952094849085
 20
-1.4131188356874338
 11
-7.538189500456834
 21
-1.633355990575304
  0
LINE
  8
0
 10
-7.538189500456834
 20
-1.633355990575304
 11
-6.485262010669719
 21
-4.175347816614798
  0
LINE
  8
0
 10
-6.485262010669719
 20
-4.175347816614798
 11
-6.99687175530425
 21
-4.998419932630209
  0
LINE
  8
0
 10
-6.99687175530425
 20
-4.998419932630209
 11
-8.27766071753601
 21
-5.504401698241036
  0
LINE
  8
0
 10
-8.27766071753601
 20
-5.504401698241036
 11
-8.385278497772704
 21
-5.584199696313488
  0
LINE
  8
0
 10
-8.385278497772704
 20
-5.584199696313488
 11
-8.391058685438146
 21
-5.59148117584197
  0
LINE
  8
0
 10
-8.391058685438146
 20
-5.59148117584197
 11
-8.4002152515858
 21
-5.661032200816437
  0
LINE
  8
0
 10
-8.4002152515858
 20
-5.661032200816437
 11
-8.450893649081852
 21
-5.6668571131085095
  0
LINE
  8
0
 10
-8.450893649081852
 20
-5.6668571131085095
 11
-8.892056040952523
 21
-6.2226028969951415
  0
LINE
  8
0
 10
-8.892056040952523
 20
-6.2226028969951415
 11
-9.487312529105033
 21
-7.595314551233127
  0
LINE
  8
0
 10
-9.487312529105033
 20
-7.595314551233127
 11
-9.590126061715402
 21
-8.287946798355842
  0
LINE
  8
0
 10
-9.590126061715402
 20
-8.287946798355842
 11
-9.003163161571065
 21
-9.00316316157106
  0
LINE
  8
0
 10
-9.003163161571065
 20
-9.00316316157106
 11
-8.287946798355843
 21
-9.5901260617154
  0
LINE
  8
0
 10
-8.287946798355843
 20
-9.5901260617154
 11
-7.595314551233135
 21
-9.487312529105031
  0
LINE
  8
0
 10
-7.595314551233135
 20
-9.487312529105031
 11
-6.222602896995526
 21
-8.892056040952022
  0
LINE
  8
0
 10
-6.222602896995526
 20
-8.892056040952022
 11
-5.666857113108566
 21
-8.45089364908179
  0
LINE
  8
0
 10
-5.666857113108566
 20
-8.45089364908179
 11
-5.661032200816444
 21
-8.400215251585795
  0
LINE
  8
0
 10
-5.661032200816444
 20
-8.400215251585795
 11
-5.591481175841975
 21
-8.39105868543814
  0
LINE
  8
0
 10
-5.591481175841975
 20
-8.39105868543814
 11
-5.584199696313493
 21
-8.38527849777271
  0
LINE
  8
0
 10
-5.584199696313493
 20
-8.38527849777271
 11
-5.50440169824104
 21
-8.277660717536016
  0
LINE
  8
0
 10
-5.50440169824104
 20
-8.277660717536016
 11
-4.998419932630207
 21
-6.9968717553042525
  0
LINE
  8
0
 10
-4.998419932630207
 20
-6.9968717553042525
 11
-4.175347816614793
 21
-6.485262010669728
  0
LINE
  8
0
 10
-4.175347816614793
 20
-6.485262010669728
 11
-1.6333559905752926
 21
-7.538189500456831
  0
LINE
  8
0
 10
-1.6333559905752926
 20
-7.538189500456831
 11
-1.4131188356874291
 21
-8.481952094849083
  0
LINE
  8
0
 10
-1.4131188356874291
 20
-8.481952094849083
 11
-1.96099025853023
 21
-9.7453897929322
  0
LINE
  8
0
 10
-1.96099025853023
 20
-9.7453897929322
 11
-1.9806618151496997
 21
-9.877912760675951
  0
LINE
  8
0
 10
-1.9806618151496997
 20
-9.877912760675951
 11
-1.979600241492804
 21
-9.887148754122377
  0
LINE
  8
0
 10
-1.979600241492804
 20
-9.887148754122377
 11
-1.9368949101102721
 21
-9.942803425535686
  0
LINE
  8
0
 10
-1.9368949101102721
 20
-9.942803425535686
 11
-1.9686111136578635
 21
-9.982757299046353
  0
LINE
  8
0
 10
-1.9686111136578635
 20
-9.982757299046353
 11
-1.88758842015206
 21
-10.687677830344656
  0
LINE
  8
0
 10
-1.88758842015206
 20
-10.687677830344656
 11
-1.3378446001444602
 21
-12.079241448988066
  0
LINE
  8
0
 10
-1.3378446001444602
 20
-12.079241448988066
 11
-0.9207797874420479
 21
-12.64170655390355
  0
LINE
  8
0
 10
-0.9207797874420479
 20
-12.64170655390355
 11
8.773214395511423e-15
 21
-12.732395447351628
  0
LINE
  8
0
 10
8.773214395511423e-15
 20
-12.732395447351628
 11
0.9207797874420586
 21
-12.64170655390355
  0
LINE
  8
0
 10
0.9207797874420586
 20
-12.64170655390355
 11
1.3378446001444642
 21
-12.07924144898807
  0
LINE
  8
0
 10
1.3378446001444642
 20
-12.07924144898807
 11
1.887588420151398
 21
-10.687677830344573
  0
LINE
  8
0
 10
1.887588420151398
 20
-10.687677830344573
 11
1.968611113657788
 21
-9.982757299046348
  0
LINE
  8
0
 10
1.968611113657788
 20
-9.982757299046348
 11
1.9368949101102728
 21
-9.942803425535688
  0
LINE
  8
0
 10
1.9368949101102728
 20
-9.942803425535688
 11
1.9796002414928078
 21
-9.887148754122379
  0
LINE
  8
0
 10
1.9796002414928078
 20
-9.887148754122379
 11
1.9806618151497106
 21
-9.877912760675958
  0
LINE
  8
0
 10
1.9806618151497106
 20
-9.877912760675958
 11
1.9609902585302412
 21
-9.745389792932205
  0
LINE
  8
0
 10
1.9609902585302412
 20
-9.745389792932205
 11
1.4131188356874413
 21
-8.481952094849083
  0
LINE
  8
0
 10
1.4131188356874413
 20
-8.481952094849083
 11
1.6333559905753101
 21
-7.5381895004568324
  0
LINE
  8
0
 10
1.6333559905753101
 20
-7.5381895004568324
 11
4.175347816614804
 21
-6.4852620106697145
  0
LINE
  8
0
 10
4.175347816614804
 20
-6.4852620106697145
 11
4.998419932630215
 21
-6.9968717553042445
  0
LINE
  8
0
 10
4.998419932630215
 20
-6.9968717553042445
 11
5.504401698241042
 21
-8.277660717536003
  0
LINE
  8
0
 10
5.504401698241042
 20
-8.277660717536003
 11
5.584199696313494
 21
-8.385278497772699
  0
LINE
  8
0
 10
5.584199696313494
 20
-8.385278497772699
 11
5.591481175841976
 21
-8.391058685438141
  0
LINE
  8
0
 10
5.591481175841976
 20
-8.391058685438141
 11
5.661032200816444
 21
-8.400215251585795
  0
LINE
  8
0
 10
5.661032200816444
 20
-8.400215251585795
 11
5.666857113108516
 21
-8.450893649081848
  0
LINE
  8
0
 10
5.666857113108516
 20
-8.450893649081848
 11
6.222602896995149
 21
-8.892056040952518
  0
LINE
  8
0
 10
6.222602896995149
 20
-8.892056040952518
 11
7.595314551233135
 21
-9.487312529105026
  0
LINE
  8
0
 10
7.595314551233135
 20
-9.487312529105026
 11
8.28794679835585
 21
-9.590126061715393
  0
LINE
  8
0
 10
0.3118675362266391
 20
-1.4672214011007085
 11
9.18454765366783e-17
 21
-1.5
  0
LINE
  8
0
 10
9.18454765366783e-17
 20
-1.5
 11
-0.3118675362266384
 21
-1.4672214011007085
  0
LINE
  8
0
 10
-0.3118675362266384
 20
-1.4672214011007085
 11
-0.6101049646137001
 21
-1.3703181864639014
  0
LINE
  8
0
 10
-0.6101049646137001
 20
-1.3703181864639014
 11
-0.8816778784387099
 21
-1.213525491562421
  0
LINE
  8
0
 10
-0.8816778784387099
 20
-1.213525491562421
 11
-1.114717238216091
 21
-1.0036959095382878
  0
LINE
  8
0
 10
-1.114717238216091
 20
-1.0036959095382878
 11
-1.299038105676658
 21
-0.7500000000000003
  0
LINE
  8
0
 10
-1.299038105676658
 20
-0.7500000000000003
 11
-1.4265847744427305
 21
-0.46352549156242095
  0
LINE
  8
0
 10
-1.4265847744427305
 20
-0.46352549156242095
 11
-1.49178284305241
 21
-0.15679269490147957
  0
LINE
  8
0
 10
-1.49178284305241
 20
-0.15679269490147957
 11
-1.4917828430524098
 21
0.15679269490148126
  0
LINE
  8
0
 10
-1.4917828430524098
 20
0.15679269490148126
 11
-1.4265847744427302
 21
0.46352549156242123
  0
LINE
  8
0
 10
-1.4265847744427302
 20
0.46352549156242123
 11
-1.2990381056766576
 21
0.7500000000000006
  0
LINE
  8
0
 10
-1.2990381056766576
 20
0.7500000000000006
 11
-1.114717238216091
 21
1.0036959095382878
  0
LINE
  8
0
 10
-1.114717238216091
 20
1.0036959095382878
 11
-0.8816778784387097
 21
1.2135254915624214
  0
LINE
  8
0
 10
-0.8816778784387097
 20
1.2135254915624214
 11
-0.6101049646137005
 21
1.3703181864639014
  0
LINE
  8
0
 10
-0.6101049646137005
 20
1.3703181864639014
 11
-0.3118675362266387
 21
1.4672214011007085
  0
LINE
  8
0
 10
-0.3118675362266387
 20
1.4672214011007085
 11
7.579792913117722e-16
 21
1.5
  0
LINE
  8
0
 10
7.579792913117722e-16
 20
1.5
 11
0.3118675362266389
 21
1.4672214011007085
  0
LINE
  8
0
 10
0.3118675362266389
 20
1.4672214011007085
 11
0.6101049646136999
 21
1.3703181864639014
  0
LINE
  8
0
 10
0.6101049646136999
 20
1.3703181864639014
 11
0.8816778784387097
 21
1.213525491562421
  0
LINE
  8
0
 10
0.8816778784387097
 20
1.213525491562421
 11
1.1147172382160917
 21
1.003695909538287
  0
LINE
  8
0
 10
1.1147172382160917
 20
1.003695909538287
 11
1.299038105676658
 21
0.7499999999999998
  0
LINE
  8
0
 10
1.299038105676658
 20
0.7499999999999998
 11
1.4265847744427305
 21
0.4635254915624211
  0
LINE
  8
0
 10
1.4265847744427305
 20
0.4635254915624211
 11
1.49178284305241
 21
0.1567926949014801
  0
LINE
  8
0
 10
1.49178284305241
 20
0.1567926949014801
 11
1.4917828430524098
 21
-0.1567926949014801
  0
LINE
  8
0
 10
1.4917828430524098
 20
-0.1567926949014801
 11
1.4265847744427302
 21
-0.46352549156242107
  0
LINE
  8
0
 10
1.4265847744427302
 20
-0.46352549156242107
 11
1.299038105676658
 21
-0.7500000000000001
  0
LINE
  8
0
 10
1.299038105676658
 20
-0.7500000000000001
 11
1.1147172382160913
 21
-1.0036959095382874
  0
LINE
  8
0
 10
1.1147172382160913
 20
-1.0036959095382874
 11
0.8816778784387098
 21
-1.2135254915624212
  0
LINE
  8
0
 10
0.8816778784387098
 20
-1.2135254915624212
 11
0.6101049646137003
 21
-1.3703181864639014
  0
LINE
  8
0
 10
0.6101049646137003
 20
-1.3703181864639014
 11
0.3118675362266391
 21
-1.4672214011007085
  0
ENDSEC
  0
SECTION
  2
OBJECTS
  0
DICTIONARY
  0
ENDSEC
  0
EOF
