  0
SECTION
  2
BLOCKS
  0
ENDSEC
  0
SECTION
  2
ENTITIES
  0
LINE
  8
0
 10
14.849483388978397
 20
-9.752036075593491
 11
15.437209071810175
 21
-8.912676813146138
  0
LINE
  8
0
 10
15.437209071810175
 20
-8.912676813146138
 11
15.870252674575463
 21
-7.9840118101335875
  0
LINE
  8
0
 10
15.870252674575463
 20
-7.9840118101335875
 11
15.385461193934777
 21
-7.17537066287545
  0
LINE
  8
0
 10
15.385461193934777
 20
-7.17537066287545
 11
14.592045910342744
 21
-6.260823414888965
  0
LINE
  8
0
 10
14.592045910342744
 20
-6.260823414888965
 11
14.003355389151253
 21
-5.783145296293045
  0
LINE
  8
0
 10
14.003355389151253
 20
-5.783145296293045
 11
13.801635494454814
 21
-5.671068877031513
  0
LINE
  8
0
 10
13.801635494454814
 20
-5.671068877031513
 11
13.218867287010198
 21
-5.578175842686091
  0
LINE
  8
0
 10
13.218867287010198
 20
-5.578175842686091
 11
12.281818234492727
 21
-5.132343837841654
  0
LINE
  8
0
 10
12.281818234492727
 20
-5.132343837841654
 11
11.894191784087235
 21
-4.611285154049501
  0
LINE
  8
0
 10
11.894191784087235
 20
-4.611285154049501
 11
12.606314819528466
 21
-1.9536058045426896
  0
LINE
  8
0
 10
12.606314819528466
 20
-1.9536058045426896
 11
13.202538514654474
 21
-1.6961689727189626
  0
LINE
  8
0
 10
13.202538514654474
 20
-1.6961689727189626
 11
14.236962801148955
 21
-1.7785916569622837
  0
LINE
  8
0
 10
14.236962801148955
 20
-1.7785916569622837
 11
14.788101390486634
 21
-1.9895280331068161
  0
LINE
  8
0
 10
14.788101390486634
 20
-1.9895280331068161
 11
15.018834153373247
 21
-1.993326954209353
  0
LINE
  8
0
 10
15.018834153373247
 20
-1.993326954209353
 11
15.767494158990171
 21
-1.8739908292690672
  0
LINE
  8
0
 10
15.767494158990171
 20
-1.8739908292690672
 11
16.911885574324916
 21
-1.478677321347652
  0
LINE
  8
0
 10
16.911885574324916
 20
-1.478677321347652
 11
17.73604788572708
 21
-1.0207692855970587
  0
LINE
  8
0
 10
17.73604788572708
 20
-1.0207692855970587
 11
17.825353626292276
 21
-2.4612616133060874e-15
  0
LINE
  8
0
 10
17.825353626292276
 20
-2.4612616133060874e-15
 11
17.736047885727075
 21
1.0207692855970631
  0
LINE
  8
0
 10
17.736047885727075
 20
1.0207692855970631
 11
16.911885574324902
 21
1.478677321347661
  0
LINE
  8
0
 10
16.911885574324902
 20
1.478677321347661
 11
15.767494158990125
 21
1.8739908292690863
  0
LINE
  8
0
 10
15.767494158990125
 20
1.8739908292690863
 11
15.018834153373232
 21
1.9933269542093637
  0
LINE
  8
0
 10
15.018834153373232
 20
1.9933269542093637
 11
14.788101390486627
 21
1.9895280331068266
  0
LINE
  8
0
 10
14.788101390486627
 20
1.9895280331068266
 11
14.236962801148959
 21
1.7785916569622753
  0
LINE
  8
0
 10
14.236962801148959
 20
1.7785916569622753
 11
13.202538514654474
 21
1.6961689727189677
  0
LINE
  8
0
 10
13.202538514654474
 20
1.6961689727189677
 11
12.606314819528452
 21
1.95360580454271
  0
LINE
  8
0
 10
12.606314819528452
 20
1.95360580454271
 11
11.894191784087239
 21
4.6112851540495265
  0
LINE
  8
0
 10
11.894191784087239
 20
4.6112851540495265
 11
12.281818234492725
 21
5.132343837841661
  0
LINE
  8
0
 10
12.281818234492725
 20
5.132343837841661
 11
13.2188672870102
 21
5.578175842686082
  0
LINE
  8
0
 10
13.2188672870102
 20
5.578175842686082
 11
13.801635494454814
 21
5.671068877031526
  0
LINE
  8
0
 10
13.801635494454814
 20
5.671068877031526
 11
14.003355389151261
 21
5.783145296293062
  0
LINE
  8
0
 10
14.003355389151261
 20
5.783145296293062
 11
14.592045910342776
 21
6.260823414889006
  0
LINE
  8
0
 10
14.592045910342776
 20
6.260823414889006
 11
15.385461193934786
 21
7.175370662875464
  0
LINE
  8
0
 10
15.385461193934786
 20
7.175370662875464
 11
15.870252674575463
 21
7.984011810133592
  0
LINE
  8
0
 10
15.870252674575463
 20
7.984011810133592
 11
15.437209071810178
 21
8.912676813146136
  0
LINE
  8
0
 10
15.437209071810178
 20
8.912676813146136
 11
14.8494833889784
 21
9.752036075593487
  0
LINE
  8
0
 10
14.8494833889784
 20
9.752036075593487
 11
13.906783872587116
 21
9.73651491144945
  0
LINE
  8
0
 10
13.906783872587116
 20
9.73651491144945
 11
12.718055081073658
 21
9.506670744101157
  0
LINE
  8
0
 10
12.718055081073658
 20
9.506670744101157
 11
12.01002843494189
 21
9.235688857080184
  0
LINE
  8
0
 10
12.01002843494189
 20
9.235688857080184
 11
11.812107461347988
 21
9.117032513455113
  0
LINE
  8
0
 10
11.812107461347988
 20
9.117032513455113
 11
11.440275630047925
 21
8.658786958462867
  0
LINE
  8
0
 10
11.440275630047925
 20
8.658786958462867
 11
10.58564926177376
 21
8.070194676812816
  0
LINE
  8
0
 10
10.58564926177376
 20
8.070194676812816
 11
9.940585979544526
 21
7.995029665478949
  0
LINE
  8
0
 10
9.940585979544526
 20
7.995029665478949
 11
7.99502966547894
 21
9.940585979544547
  0
LINE
  8
0
 10
7.99502966547894
 20
9.940585979544547
 11
8.070194676812816
 21
10.58564926177376
  0
LINE
  8
0
 10
8.070194676812816
 20
10.58564926177376
 11
8.658786958462876
 21
11.440275630047914
  0
LINE
  8
0
 10
8.658786958462876
 20
11.440275630047914
 11
9.11703251345511
 21
11.812107461347995
  0
LINE
  8
0
 10
9.11703251345511
 20
11.812107461347995
 11
9.235688857080186
 21
12.010028434941905
  0
LINE
  8
0
 10
9.235688857080186
 20
12.010028434941905
 11
9.506670744101168
 21
12.718055081073706
  0
LINE
  8
0
 10
9.506670744101168
 20
12.718055081073706
 11
9.736514911449454
 21
13.90678387258713
  0
LINE
  8
0
 10
9.736514911449454
 20
13.90678387258713
 11
9.752036075593486
 21
14.849483388978403
  0
LINE
  8
0
 10
9.752036075593486
 20
14.849483388978403
 11
8.91267681314614
 21
15.437209071810175
  0
LINE
  8
0
 10
8.91267681314614
 20
15.437209071810175
 11
7.984011810133588
 21
15.870252674575463
  0
LINE
  8
0
 10
7.984011810133588
 20
15.870252674575463
 11
7.1753706628754506
 21
15.385461193934777
  0
LINE
  8
0
 10
7.1753706628754506
 20
15.385461193934777
 11
6.260823414888966
 21
14.592045910342744
  0
LINE
  8
0
 10
6.260823414888966
 20
14.592045910342744
 11
5.783145296293046
 21
14.003355389151253
  0
LINE
  8
0
 10
5.783145296293046
 20
14.003355389151253
 11
5.671068877031514
 21
13.801635494454814
  0
LINE
  8
0
 10
5.671068877031514
 20
13.801635494454814
 11
5.5781758426860915
 21
13.218867287010198
  0
LINE
  8
0
 10
5.5781758426860915
 20
13.218867287010198
 11
5.132343837841655
 21
12.281818234492727
  0
LINE
  8
0
 10
5.132343837841655
 20
12.281818234492727
 11
4.611285154049502
 21
11.894191784087235
  0
LINE
  8
0
 10
4.611285154049502
 20
11.894191784087235
 11
1.9536058045426903
 21
12.606314819528466
  0
LINE
  8
0
 10
1.9536058045426903
 20
12.606314819528466
 11
1.6961689727189635
 21
13.202538514654474
  0
LINE
  8
0
 10
1.6961689727189635
 20
13.202538514654474
 11
1.7785916569622846
 21
14.236962801148955
  0
LINE
  8
0
 10
1.7785916569622846
 20
14.236962801148955
 11
1.989528033106817
 21
14.788101390486634
  0
LINE
  8
0
 10
1.989528033106817
 20
14.788101390486634
 11
1.993326954209354
 21
15.018834153373247
  0
LINE
  8
0
 10
1.993326954209354
 20
15.018834153373247
 11
1.8739908292690681
 21
15.767494158990171
  0
LINE
  8
0
 10
1.8739908292690681
 20
15.767494158990171
 11
1.4786773213476532
 21
16.911885574324916
  0
LINE
  8
0
 10
1.4786773213476532
 20
16.911885574324916
 11
1.0207692855970598
 21
17.73604788572708
  0
LINE
  8
0
 10
1.0207692855970598
 20
17.73604788572708
 11
5.125796872406463e-15
 21
17.825353626292276
  0
LINE
  8
0
 10
5.125796872406463e-15
 20
17.825353626292276
 11
-1.0207692855970605
 21
17.736047885727075
  0
LINE
  8
0
 10
-1.0207692855970605
 20
17.736047885727075
 11
-1.4786773213476583
 21
16.911885574324902
  0
LINE
  8
0
 10
-1.4786773213476583
 20
16.911885574324902
 11
-1.8739908292690837
 21
15.767494158990125
  0
LINE
  8
0
 10
-1.8739908292690837
 20
15.767494158990125
 11
-1.993326954209361
 21
15.01883415337323
  0
LINE
  8
0
 10
-1.993326954209361
 20
15.01883415337323
 11
-1.9895280331068248
 21
14.788101390486627
  0
LINE
  8
0
 10
-1.9895280331068248
 20
14.788101390486627
 11
-1.7785916569622735
 21
14.236962801148959
  0
LINE
  8
0
 10
-1.7785916569622735
 20
14.236962801148959
 11
-1.696168972718966
 21
13.202538514654472
  0
LINE
  8
0
 10
-1.696168972718966
 20
13.202538514654472
 11
-1.9536058045427083
 21
12.606314819528452
  0
LINE
  8
0
 10
-1.9536058045427083
 20
12.606314819528452
 11
-4.611285154049525
 21
11.894191784087239
  0
LINE
  8
0
 10
-4.611285154049525
 20
11.894191784087239
 11
-5.132343837841659
 21
12.281818234492725
  0
LINE
  8
0
 10
-5.132343837841659
 20
12.281818234492725
 11
-5.578175842686078
 21
13.2188672870102
  0
LINE
  8
0
 10
-5.578175842686078
 20
13.2188672870102
 11
-5.671068877031523
 21
13.801635494454814
  0
LINE
  8
0
 10
-5.671068877031523
 20
13.801635494454814
 11
-5.78314529629306
 21
14.00335538915126
  0
LINE
  8
0
 10
-5.78314529629306
 20
14.00335538915126
 11
-6.260823414889003
 21
14.592045910342776
  0
LINE
  8
0
 10
-6.260823414889003
 20
14.592045910342776
 11
-7.175370662875462
 21
15.385461193934786
  0
LINE
  8
0
 10
-7.175370662875462
 20
15.385461193934786
 11
-7.98401181013359
 21
15.870252674575463
  0
LINE
  8
0
 10
-7.98401181013359
 20
15.870252674575463
 11
-8.91267681314614
 21
15.437209071810177
  0
LINE
  8
0
 10
-8.91267681314614
 20
15.437209071810177
 11
-9.752036075593491
 21
14.849483388978399
  0
LINE
  8
0
 10
-9.752036075593491
 20
14.849483388978399
 11
-9.736514911449454
 21
13.906783872587116
  0
LINE
  8
0
 10
-9.736514911449454
 20
13.906783872587116
 11
-9.50667074410116
 21
12.718055081073658
  0
LINE
  8
0
 10
-9.50667074410116
 20
12.718055081073658
 11
-9.235688857080186
 21
12.010028434941887
  0
LINE
  8
0
 10
-9.235688857080186
 20
12.010028434941887
 11
-9.117032513455115
 21
11.812107461347987
  0
LINE
  8
0
 10
-9.117032513455115
 20
11.812107461347987
 11
-8.65878695846287
 21
11.440275630047921
  0
LINE
  8
0
 10
-8.65878695846287
 20
11.440275630047921
 11
-8.070194676812818
 21
10.585649261773758
  0
LINE
  8
0
 10
-8.070194676812818
 20
10.585649261773758
 11
-7.995029665478952
 21
9.940585979544524
  0
LINE
  8
0
 10
-7.995029665478952
 20
9.940585979544524
 11
-9.940585979544549
 21
7.9950296654789375
  0
LINE
  8
0
 10
-9.940585979544549
 20
7.9950296654789375
 11
-10.585649261773764
 21
8.070194676812813
  0
LINE
  8
0
 10
-10.585649261773764
 20
8.070194676812813
 11
-11.440275630047916
 21
8.658786958462873
  0
LINE
  8
0
 10
-11.440275630047916
 20
8.658786958462873
 11
-11.812107461347999
 21
9.117032513455108
  0
LINE
  8
0
 10
-11.812107461347999
 20
9.117032513455108
 11
-12.010028434941907
 21
9.235688857080184
  0
LINE
  8
0
 10
-12.010028434941907
 20
9.235688857080184
 11
-12.718055081073707
 21
9.506670744101164
  0
LINE
  8
0
 10
-12.718055081073707
 20
9.506670744101164
 11
-13.906783872587132
 21
9.73651491144945
  0
LINE
  8
0
 10
-13.906783872587132
 20
9.73651491144945
 11
-14.849483388978404
 21
9.752036075593482
  0
LINE
  8
0
 10
-14.849483388978404
 20
9.752036075593482
 11
-15.437209071810173
 21
8.91267681314614
  0
LINE
  8
0
 10
-15.437209071810173
 20
8.91267681314614
 11
-15.870252674575461
 21
7.984011810133589
  0
LINE
  8
0
 10
-15.870252674575461
 20
7.984011810133589
 11
-15.385461193934777
 21
7.175370662875451
  0
LINE
  8
0
 10
-15.385461193934777
 20
7.175370662875451
 11
-14.592045910342744
 21
6.260823414888967
  0
LINE
  8
0
 10
-14.592045910342744
 20
6.260823414888967
 11
-14.003355389151253
 21
5.783145296293047
  0
LINE
  8
0
 10
-14.003355389151253
 20
5.783145296293047
 11
-13.801635494454814
 21
5.671068877031515
  0
LINE
  8
0
 10
-13.801635494454814
 20
5.671068877031515
 11
-13.218867287010198
 21
5.578175842686092
  0
LINE
  8
0
 10
-13.218867287010198
 20
5.578175842686092
 11
-12.281818234492727
 21
5.132343837841656
  0
LINE
  8
0
 10
-12.281818234492727
 20
5.132343837841656
 11
-11.894191784087235
 21
4.611285154049503
  0
LINE
  8
0
 10
-11.894191784087235
 20
4.611285154049503
 11
-12.606314819528466
 21
1.9536058045426912
  0
LINE
  8
0
 10
-12.606314819528466
 20
1.9536058045426912
 11
-13.202538514654474
 21
1.6961689727189642
  0
LINE
  8
0
 10
-13.202538514654474
 20
1.6961689727189642
 11
-14.236962801148955
 21
1.7785916569622855
  0
LINE
  8
0
 10
-14.236962801148955
 20
1.7785916569622855
 11
-14.788101390486634
 21
1.989528033106818
  0
LINE
  8
0
 10
-14.788101390486634
 20
1.989528033106818
 11
-15.018834153373247
 21
1.9933269542093548
  0
LINE
  8
0
 10
-15.018834153373247
 20
1.9933269542093548
 11
-15.767494158990171
 21
1.8739908292690692
  0
LINE
  8
0
 10
-15.767494158990171
 20
1.8739908292690692
 11
-16.911885574324916
 21
1.478677321347654
  0
LINE
  8
0
 10
-16.911885574324916
 20
1.478677321347654
 11
-17.73604788572708
 21
1.020769285597061
  0
LINE
  8
0
 10
-17.73604788572708
 20
1.020769285597061
 11
-17.825353626292276
 21
-1.0914520654944137e-15
  0
LINE
  8
0
 10
-17.825353626292276
 20
-1.0914520654944137e-15
 11
-17.736047885727075
 21
-1.0207692855970667
  0
LINE
  8
0
 10
-17.736047885727075
 20
-1.0207692855970667
 11
-16.911885574324902
 21
-1.4786773213476645
  0
LINE
  8
0
 10
-16.911885574324902
 20
-1.4786773213476645
 11
-15.767494158990125
 21
-1.8739908292690899
  0
LINE
  8
0
 10
-15.767494158990125
 20
-1.8739908292690899
 11
-15.01883415337323
 21
-1.9933269542093663
  0
LINE
  8
0
 10
-15.01883415337323
 20
-1.9933269542093663
 11
-14.788101390486629
 21
-1.9895280331068301
  0
LINE
  8
0
 10
-14.788101390486629
 20
-1.9895280331068301
 11
-14.23696280114896
 21
-1.778591656962278
  0
LINE
  8
0
 10
-14.23696280114896
 20
-1.778591656962278
 11
-13.202538514654472
 21
-1.6961689727189713
  0
LINE
  8
0
 10
-13.202538514654472
 20
-1.6961689727189713
 11
-12.60631481952845
 21
-1.9536058045427123
  0
LINE
  8
0
 10
-12.60631481952845
 20
-1.9536058045427123
 11
-11.894191784087237
 21
-4.611285154049529
  0
LINE
  8
0
 10
-11.894191784087237
 20
-4.611285154049529
 11
-12.281818234492725
 21
-5.132343837841663
  0
LINE
  8
0
 10
-12.281818234492725
 20
-5.132343837841663
 11
-13.218867287010198
 21
-5.578175842686084
  0
LINE
  8
0
 10
-13.218867287010198
 20
-5.578175842686084
 11
-13.801635494454814
 21
-5.671068877031529
  0
LINE
  8
0
 10
-13.801635494454814
 20
-5.671068877031529
 11
-14.00335538915126
 21
-5.783145296293065
  0
LINE
  8
0
 10
-14.00335538915126
 20
-5.783145296293065
 11
-14.592045910342774
 21
-6.260823414889009
  0
LINE
  8
0
 10
-14.592045910342774
 20
-6.260823414889009
 11
-15.385461193934784
 21
-7.175370662875467
  0
LINE
  8
0
 10
-15.385461193934784
 20
-7.175370662875467
 11
-15.870252674575461
 21
-7.9840118101335955
  0
LINE
  8
0
 10
-15.870252674575461
 20
-7.9840118101335955
 11
-15.437209071810182
 21
-8.91267681314613
  0
LINE
  8
0
 10
-15.437209071810182
 20
-8.91267681314613
 11
-14.849483388978404
 21
-9.752036075593482
  0
LINE
  8
0
 10
-14.849483388978404
 20
-9.752036075593482
 11
-13.90678387258712
 21
-9.736514911449444
  0
LINE
  8
0
 10
-13.90678387258712
 20
-9.736514911449444
 11
-12.718055081073661
 21
-9.506670744101152
  0
LINE
  8
0
 10
-12.718055081073661
 20
-9.506670744101152
 11
-12.010028434941894
 21
-9.235688857080177
  0
LINE
  8
0
 10
-12.010028434941894
 20
-9.235688857080177
 11
-11.812107461347992
 21
-9.117032513455108
  0
LINE
  8
0
 10
-11.812107461347992
 20
-9.117032513455108
 11
-11.440275630047928
 21
-8.658786958462862
  0
LINE
  8
0
 10
-11.440275630047928
 20
-8.658786958462862
 11
-10.585649261773764
 21
-8.070194676812813
  0
LINE
  8
0
 10
-10.585649261773764
 20
-8.070194676812813
 11
-9.94058597954453
 21
-7.9950296654789454
  0
LINE
  8
0
 10
-9.94058597954453
 20
-7.9950296654789454
 11
-7.995029665478943
 21
-9.940585979544542
  0
LINE
  8
0
 10
-7.995029665478943
 20
-9.940585979544542
 11
-8.07019467681282
 21
-10.585649261773758
  0
LINE
  8
0
 10
-8.07019467681282
 20
-10.585649261773758
 11
-8.65878695846288
 21
-11.440275630047909
  0
LINE
  8
0
 10
-8.65878695846288
 20
-11.440275630047909
 11
-9.117032513455115
 21
-11.812107461347992
  0
LINE
  8
0
 10
-9.117032513455115
 20
-11.812107461347992
 11
-9.235688857080191
 21
-12.010028434941901
  0
LINE
  8
0
 10
-9.235688857080191
 20
-12.010028434941901
 11
-9.506670744101172
 21
-12.718055081073702
  0
LINE
  8
0
 10
-9.506670744101172
 20
-12.718055081073702
 11
-9.736514911449458
 21
-13.906783872587127
  0
LINE
  8
0
 10
-9.736514911449458
 20
-13.906783872587127
 11
-9.752036075593491
 21
-14.849483388978397
  0
LINE
  8
0
 10
-9.752036075593491
 20
-14.849483388978397
 11
-8.912676813146142
 21
-15.437209071810173
  0
LINE
  8
0
 10
-8.912676813146142
 20
-15.437209071810173
 11
-7.98401181013359
 21
-15.870252674575461
  0
LINE
  8
0
 10
-7.98401181013359
 20
-15.870252674575461
 11
-7.175370662875452
 21
-15.385461193934775
  0
LINE
  8
0
 10
-7.175370662875452
 20
-15.385461193934775
 11
-6.260823414888968
 21
-14.592045910342742
  0
LINE
  8
0
 10
-6.260823414888968
 20
-14.592045910342742
 11
-5.783145296293048
 21
-14.00335538915125
  0
LINE
  8
0
 10
-5.783145296293048
 20
-14.00335538915125
 11
-5.671068877031516
 21
-13.801635494454812
  0
LINE
  8
0
 10
-5.671068877031516
 20
-13.801635494454812
 11
-5.578175842686093
 21
-13.218867287010196
  0
LINE
  8
0
 10
-5.578175842686093
 20
-13.218867287010196
 11
-5.132343837841657
 21
-12.281818234492725
  0
LINE
  8
0
 10
-5.132343837841657
 20
-12.281818234492725
 11
-4.611285154049503
 21
-11.894191784087235
  0
LINE
  8
0
 10
-4.611285154049503
 20
-11.894191784087235
 11
-1.9536058045426918
 21
-12.606314819528466
  0
LINE
  8
0
 10
-1.9536058045426918
 20
-12.606314819528466
 11
-1.696168972718965
 21
-13.202538514654474
  0
LINE
  8
0
 10
-1.696168972718965
 20
-13.202538514654474
 11
-1.7785916569622864
 21
-14.236962801148955
  0
LINE
  8
0
 10
-1.7785916569622864
 20
-14.236962801148955
 11
-1.9895280331068188
 21
-14.788101390486634
  0
LINE
  8
0
 10
-1.9895280331068188
 20
-14.788101390486634
 11
-1.9933269542093557
 21
-15.018834153373247
  0
LINE
  8
0
 10
-1.9933269542093557
 20
-15.018834153373247
 11
-1.8739908292690701
 21
-15.767494158990171
  0
LINE
  8
0
 10
-1.8739908292690701
 20
-15.767494158990171
 11
-1.4786773213476552
 21
-16.911885574324916
  0
LINE
  8
0
 10
-1.4786773213476552
 20
-16.911885574324916
 11
-1.020769285597062
 21
-17.73604788572708
  0
LINE
  8
0
 10
-1.020769285597062
 20
-17.73604788572708
 11
1.0914520654944137e-15
 21
-17.825353626292276
  0
LINE
  8
0
 10
1.0914520654944137e-15
 20
-17.825353626292276
 11
1.0207692855970667
 21
-17.736047885727075
  0
LINE
  8
0
 10
1.0207692855970667
 20
-17.736047885727075
 11
1.4786773213476645
 21
-16.911885574324902
  0
LINE
  8
0
 10
1.4786773213476645
 20
-16.911885574324902
 11
1.8739908292690899
 21
-15.767494158990125
  0
LINE
  8
0
 10
1.8739908292690899
 20
-15.767494158990125
 11
1.9933269542093663
 21
-15.01883415337323
  0
LINE
  8
0
 10
1.9933269542093663
 20
-15.01883415337323
 11
1.9895280331068301
 21
-14.788101390486629
  0
LINE
  8
0
 10
1.9895280331068301
 20
-14.788101390486629
 11
1.778591656962278
 21
-14.23696280114896
  0
LINE
  8
0
 10
1.778591656962278
 20
-14.23696280114896
 11
1.6961689727189713
 21
-13.202538514654472
  0
LINE
  8
0
 10
1.6961689727189713
 20
-13.202538514654472
 11
1.9536058045427123
 21
-12.60631481952845
  0
LINE
  8
0
 10
1.9536058045427123
 20
-12.60631481952845
 11
4.611285154049529
 21
-11.894191784087237
  0
LINE
  8
0
 10
4.611285154049529
 20
-11.894191784087237
 11
5.132343837841663
 21
-12.281818234492725
  0
LINE
  8
0
 10
5.132343837841663
 20
-12.281818234492725
 11
5.578175842686084
 21
-13.218867287010198
  0
LINE
  8
0
 10
5.578175842686084
 20
-13.218867287010198
 11
5.671068877031529
 21
-13.801635494454814
  0
LINE
  8
0
 10
5.671068877031529
 20
-13.801635494454814
 11
5.783145296293065
 21
-14.00335538915126
  0
LINE
  8
0
 10
5.783145296293065
 20
-14.00335538915126
 11
6.260823414889009
 21
-14.592045910342774
  0
LINE
  8
0
 10
6.260823414889009
 20
-14.592045910342774
 11
7.175370662875467
 21
-15.385461193934784
  0
LINE
  8
0
 10
7.175370662875467
 20
-15.385461193934784
 11
7.9840118101335955
 21
-15.870252674575461
  0
LINE
  8
0
 10
7.9840118101335955
 20
-15.870252674575461
 11
8.91267681314613
 21
-15.437209071810182
  0
LINE
  8
0
 10
8.91267681314613
 20
-15.437209071810182
 11
9.752036075593482
 21
-14.849483388978404
  0
LINE
  8
0
 10
9.752036075593482
 20
-14.849483388978404
 11
9.736514911449444
 21
-13.90678387258712
  0
LINE
  8
0
 10
9.736514911449444
 20
-13.90678387258712
 11
9.506670744101152
 21
-12.718055081073661
  0
LINE
  8
0
 10
9.506670744101152
 20
-12.718055081073661
 11
9.235688857080177
 21
-12.010028434941894
  0
LINE
  8
0
 10
9.235688857080177
 20
-12.010028434941894
 11
9.117032513455108
 21
-11.812107461347992
  0
LINE
  8
0
 10
9.117032513455108
 20
-11.812107461347992
 11
8.658786958462862
 21
-11.440275630047928
  0
LINE
  8
0
 10
8.658786958462862
 20
-11.440275630047928
 11
8.070194676812813
 21
-10.585649261773764
  0
LINE
  8
0
 10
8.070194676812813
 20
-10.585649261773764
 11
7.9950296654789454
 21
-9.94058597954453
  0
LINE
  8
0
 10
7.9950296654789454
 20
-9.94058597954453
 11
9.940585979544542
 21
-7.995029665478943
  0
LINE
  8
0
 10
9.940585979544542
 20
-7.995029665478943
 11
10.585649261773758
 21
-8.07019467681282
  0
LINE
  8
0
 10
10.585649261773758
 20
-8.07019467681282
 11
11.440275630047909
 21
-8.65878695846288
  0
LINE
  8
0
 10
11.440275630047909
 20
-8.65878695846288
 11
11.812107461347992
 21
-9.117032513455115
  0
LINE
  8
0
 10
11.812107461347992
 20
-9.117032513455115
 11
12.010028434941901
 21
-9.235688857080191
  0
LINE
  8
0
 10
12.010028434941901
 20
-9.235688857080191
 11
12.718055081073702
 21
-9.506670744101172
  0
LINE
  8
0
 10
12.718055081073702
 20
-9.506670744101172
 11
13.906783872587127
 21
-9.736514911449458
  0
LINE
  8
0
 10
13.906783872587127
 20
-9.736514911449458
 11
14.849483388978397
 21
-9.752036075593491
  0
LINE
  8
0
 10
0.3118675362266391
 20
-1.4672214011007085
 11
9.18454765366783e-17
 21
-1.5
  0
LINE
  8
0
 10
9.18454765366783e-17
 20
-1.5
 11
-0.3118675362266384
 21
-1.4672214011007085
  0
LINE
  8
0
 10
-0.3118675362266384
 20
-1.4672214011007085
 11
-0.6101049646137001
 21
-1.3703181864639014
  0
LINE
  8
0
 10
-0.6101049646137001
 20
-1.3703181864639014
 11
-0.8816778784387099
 21
-1.213525491562421
  0
LINE
  8
0
 10
-0.8816778784387099
 20
-1.213525491562421
 11
-1.114717238216091
 21
-1.0036959095382878
  0
LINE
  8
0
 10
-1.114717238216091
 20
-1.0036959095382878
 11
-1.299038105676658
 21
-0.7500000000000003
  0
LINE
  8
0
 10
-1.299038105676658
 20
-0.7500000000000003
 11
-1.4265847744427305
 21
-0.46352549156242095
  0
LINE
  8
0
 10
-1.4265847744427305
 20
-0.46352549156242095
 11
-1.49178284305241
 21
-0.15679269490147957
  0
LINE
  8
0
 10
-1.49178284305241
 20
-0.15679269490147957
 11
-1.4917828430524098
 21
0.15679269490148126
  0
LINE
  8
0
 10
-1.4917828430524098
 20
0.15679269490148126
 11
-1.4265847744427302
 21
0.46352549156242123
  0
LINE
  8
0
 10
-1.4265847744427302
 20
0.46352549156242123
 11
-1.2990381056766576
 21
0.7500000000000006
  0
LINE
  8
0
 10
-1.2990381056766576
 20
0.7500000000000006
 11
-1.114717238216091
 21
1.0036959095382878
  0
LINE
  8
0
 10
-1.114717238216091
 20
1.0036959095382878
 11
-0.8816778784387097
 21
1.2135254915624214
  0
LINE
  8
0
 10
-0.8816778784387097
 20
1.2135254915624214
 11
-0.6101049646137005
 21
1.3703181864639014
  0
LINE
  8
0
 10
-0.6101049646137005
 20
1.3703181864639014
 11
-0.3118675362266387
 21
1.4672214011007085
  0
LINE
  8
0
 10
-0.3118675362266387
 20
1.4672214011007085
 11
7.579792913117722e-16
 21
1.5
  0
LINE
  8
0
 10
7.579792913117722e-16
 20
1.5
 11
0.3118675362266389
 21
1.4672214011007085
  0
LINE
  8
0
 10
0.3118675362266389
 20
1.4672214011007085
 11
0.6101049646136999
 21
1.3703181864639014
  0
LINE
  8
0
 10
0.6101049646136999
 20
1.3703181864639014
 11
0.8816778784387097
 21
1.213525491562421
  0
LINE
  8
0
 10
0.8816778784387097
 20
1.213525491562421
 11
1.1147172382160917
 21
1.003695909538287
  0
LINE
  8
0
 10
1.1147172382160917
 20
1.003695909538287
 11
1.299038105676658
 21
0.7499999999999998
  0
LINE
  8
0
 10
1.299038105676658
 20
0.7499999999999998
 11
1.4265847744427305
 21
0.4635254915624211
  0
LINE
  8
0
 10
1.4265847744427305
 20
0.4635254915624211
 11
1.49178284305241
 21
0.1567926949014801
  0
LINE
  8
0
 10
1.49178284305241
 20
0.1567926949014801
 11
1.4917828430524098
 21
-0.1567926949014801
  0
LINE
  8
0
 10
1.4917828430524098
 20
-0.1567926949014801
 11
1.4265847744427302
 21
-0.46352549156242107
  0
LINE
  8
0
 10
1.4265847744427302
 20
-0.46352549156242107
 11
1.299038105676658
 21
-0.7500000000000001
  0
LINE
  8
0
 10
1.299038105676658
 20
-0.7500000000000001
 11
1.1147172382160913
 21
-1.0036959095382874
  0
LINE
  8
0
 10
1.1147172382160913
 20
-1.0036959095382874
 11
0.8816778784387098
 21
-1.2135254915624212
  0
LINE
  8
0
 10
0.8816778784387098
 20
-1.2135254915624212
 11
0.6101049646137003
 21
-1.3703181864639014
  0
LINE
  8
0
 10
0.6101049646137003
 20
-1.3703181864639014
 11
0.3118675362266391
 21
-1.4672214011007085
  0
ENDSEC
  0
SECTION
  2
OBJECTS
  0
DICTIONARY
  0
ENDSEC
  0
EOF
