  0
SECTION
  2
BLOCKS
  0
ENDSEC
  0
SECTION
  2
ENTITIES
  0
LINE
  8
0
 10
26.204401541352997
 20
-9.708312477435578
 11
26.640300848151124
 21
-8.6559584591345
  0
LINE
  8
0
 10
26.640300848151124
 20
-8.6559584591345
 11
26.906209073263273
 21
-7.548370990209712
  0
LINE
  8
0
 10
26.906209073263273
 20
-7.548370990209712
 11
26.056318924650235
 21
-6.808094006989725
  0
LINE
  8
0
 10
26.056318924650235
 20
-6.808094006989725
 11
25.250360336204444
 21
-6.242565576645139
  0
LINE
  8
0
 10
25.250360336204444
 20
-6.242565576645139
 11
24.62671583739556
 21
-5.896066078299613
  0
LINE
  8
0
 10
24.62671583739556
 20
-5.896066078299613
 11
24.219747930979835
 21
-5.722842669228863
  0
LINE
  8
0
 10
24.219747930979835
 20
-5.722842669228863
 11
24.10416805754203
 21
-5.687381174786957
  0
LINE
  8
0
 10
24.10416805754203
 20
-5.687381174786957
 11
24.053450065784695
 21
-5.682893316388691
  0
LINE
  8
0
 10
24.053450065784695
 20
-5.682893316388691
 11
23.188096094313007
 21
-5.503019911173437
  0
LINE
  8
0
 10
23.188096094313007
 20
-5.503019911173437
 11
22.625409613033376
 21
-5.233677750469902
  0
LINE
  8
0
 10
22.625409613033376
 20
-5.233677750469902
 11
22.37155553278254
 21
-4.936170838877361
  0
LINE
  8
0
 10
22.37155553278254
 20
-4.936170838877361
 11
22.8019743454629
 21
-2.2186134083724025
  0
LINE
  8
0
 10
22.8019743454629
 20
-2.2186134083724025
 11
23.13533861429968
 21
-2.0141127463461603
  0
LINE
  8
0
 10
23.13533861429968
 20
-2.0141127463461603
 11
23.753716563910892
 21
-1.9318328145185923
  0
LINE
  8
0
 10
23.753716563910892
 20
-1.9318328145185923
 11
24.63230103642854
 21
-2.0281721237150205
  0
LINE
  8
0
 10
24.63230103642854
 20
-2.0281721237150205
 11
24.681923537496022
 21
-2.0395766381146774
  0
LINE
  8
0
 10
24.681923537496022
 20
-2.0395766381146774
 11
24.802804733710264
 21
-2.0415668978482997
  0
LINE
  8
0
 10
24.802804733710264
 20
-2.0415668978482997
 11
25.24338319025634
 21
-2.0025816451243528
  0
LINE
  8
0
 10
25.24338319025634
 20
-2.0025816451243528
 11
25.943578588231397
 21
-1.8657577879100862
  0
LINE
  8
0
 10
25.943578588231397
 20
-1.8657577879100862
 11
26.884848651415385
 21
-1.5769631896729177
  0
LINE
  8
0
 10
26.884848651415385
 20
-1.5769631896729177
 11
27.921900383748476
 21
-1.135548440191506
  0
LINE
  8
0
 10
27.921900383748476
 20
-1.135548440191506
 11
28.011269984173577
 21
-6.121787933760023e-17
  0
LINE
  8
0
 10
28.011269984173577
 20
-6.121787933760023e-17
 11
27.921900383748472
 21
1.1355484401915081
  0
LINE
  8
0
 10
27.921900383748472
 20
1.1355484401915081
 11
26.884848651415393
 21
1.5769631896729164
  0
LINE
  8
0
 10
26.884848651415393
 20
1.5769631896729164
 11
25.94357858823131
 21
1.8657577879101115
  0
LINE
  8
0
 10
25.94357858823131
 20
1.8657577879101115
 11
25.24338319025634
 21
2.0025816451242338
  0
LINE
  8
0
 10
25.24338319025634
 20
2.0025816451242338
 11
24.80280473371024
 21
2.041566897848178
  0
LINE
  8
0
 10
24.80280473371024
 20
2.041566897848178
 11
24.681923537496164
 21
2.0395766381147316
  0
LINE
  8
0
 10
24.681923537496164
 20
2.0395766381147316
 11
24.632301036428533
 21
2.028172123715026
  0
LINE
  8
0
 10
24.632301036428533
 20
2.028172123715026
 11
23.75371656391089
 21
1.9318328145185875
  0
LINE
  8
0
 10
23.75371656391089
 20
1.9318328145185875
 11
23.135338614299645
 21
2.0141127463482538
  0
LINE
  8
0
 10
23.135338614299645
 20
2.0141127463482538
 11
22.801974345462874
 21
2.218613408372256
  0
LINE
  8
0
 10
22.801974345462874
 20
2.218613408372256
 11
22.371555532782605
 21
4.93617083887723
  0
LINE
  8
0
 10
22.371555532782605
 20
4.93617083887723
 11
22.625409613032758
 21
5.233677750471905
  0
LINE
  8
0
 10
22.625409613032758
 20
5.233677750471905
 11
23.188096094313007
 21
5.503019911173434
  0
LINE
  8
0
 10
23.188096094313007
 20
5.503019911173434
 11
24.0534500657847
 21
5.682893316388698
  0
LINE
  8
0
 10
24.0534500657847
 20
5.682893316388698
 11
24.104168057541877
 21
5.687381174786965
  0
LINE
  8
0
 10
24.104168057541877
 20
5.687381174786965
 11
24.219747930979896
 21
5.722842669228757
  0
LINE
  8
0
 10
24.219747930979896
 20
5.722842669228757
 11
24.6267158373956
 21
5.8960660782995005
  0
LINE
  8
0
 10
24.6267158373956
 20
5.8960660782995005
 11
25.250360336204515
 21
6.242565576645188
  0
LINE
  8
0
 10
25.250360336204515
 20
6.242565576645188
 11
26.056318924650228
 21
6.808094006989721
  0
LINE
  8
0
 10
26.056318924650228
 20
6.808094006989721
 11
26.906209073263273
 21
7.548370990209715
  0
LINE
  8
0
 10
26.906209073263273
 20
7.548370990209715
 11
26.640300848151124
 21
8.655958459134501
  0
LINE
  8
0
 10
26.640300848151124
 20
8.655958459134501
 11
26.204401541352997
 21
9.708312477435577
  0
LINE
  8
0
 10
26.204401541352997
 20
9.708312477435577
 11
25.081702074424925
 21
9.807656241981762
  0
LINE
  8
0
 10
25.081702074424925
 20
9.807656241981762
 11
24.097258608501182
 21
9.791447780685825
  0
LINE
  8
0
 10
24.097258608501182
 20
9.791447780685825
 11
23.389052315462106
 21
9.705202724316559
  0
LINE
  8
0
 10
23.389052315462106
 20
9.705202724316559
 11
22.957990197802975
 21
9.60613367253085
  0
LINE
  8
0
 10
22.957990197802975
 20
9.60613367253085
 11
22.843640372526885
 21
9.566886479111712
  0
LINE
  8
0
 10
22.843640372526885
 20
9.566886479111712
 11
22.799970758293753
 21
9.540705945243404
  0
LINE
  8
0
 10
22.799970758293753
 20
9.540705945243404
 11
21.99415775435815
 21
9.177584284454857
  0
LINE
  8
0
 10
21.99415775435815
 20
9.177584284454857
 11
21.38061947861576
 21
9.064747854405175
  0
LINE
  8
0
 10
21.38061947861576
 20
9.064747854405175
 11
21.000377038512237
 21
9.156224317221833
  0
LINE
  8
0
 10
21.000377038512237
 20
9.156224317221833
 11
19.75125299276069
 21
11.607768292093011
  0
LINE
  8
0
 10
19.75125299276069
 20
11.607768292093011
 11
19.900747878343953
 21
11.969159403896693
  0
LINE
  8
0
 10
19.900747878343953
 20
11.969159403896693
 11
20.352663218038284
 21
12.399198706165537
  0
LINE
  8
0
 10
20.352663218038284
 20
12.399198706165537
 11
21.120079812460716
 21
12.837677563638318
  0
LINE
  8
0
 10
21.120079812460716
 20
12.837677563638318
 11
21.166928664501373
 21
12.857618491985734
  0
LINE
  8
0
 10
21.166928664501373
 20
12.857618491985734
 11
21.265893451858723
 21
12.927060522452217
  0
LINE
  8
0
 10
21.265893451858723
 20
12.927060522452217
 11
21.599413953951952
 21
13.217565773671456
  0
LINE
  8
0
 10
21.599413953951952
 20
13.217565773671456
 11
22.085460884864585
 21
13.739823128046528
  0
LINE
  8
0
 10
22.085460884864585
 20
13.739823128046528
 11
22.677215156491275
 21
14.526727527468035
  0
LINE
  8
0
 10
22.677215156491275
 20
14.526727527468035
 11
23.256750552105174
 21
15.493403275496007
  0
LINE
  8
0
 10
23.256750552105174
 20
15.493403275496007
 11
22.66159345122129
 21
16.464611394680045
  0
LINE
  8
0
 10
22.66159345122129
 20
16.464611394680045
 11
21.921833299288593
 21
17.330759247597793
  0
LINE
  8
0
 10
21.921833299288593
 20
17.330759247597793
 11
20.8233837438956
 21
17.078307567366267
  0
LINE
  8
0
 10
20.8233837438956
 20
17.078307567366267
 11
19.89213106069775
 21
16.758682643659835
  0
LINE
  8
0
 10
19.89213106069775
 20
16.758682643659835
 11
19.245238038920633
 21
16.457810940729242
  0
LINE
  8
0
 10
19.245238038920633
 20
16.457810940729242
 11
18.865887623611325
 21
16.23038515347734
  0
LINE
  8
0
 10
18.865887623611325
 20
16.23038515347734
 11
18.769262526893314
 21
16.157722815115655
  0
LINE
  8
0
 10
18.769262526893314
 20
16.157722815115655
 11
18.73582048559992
 21
16.11932899484428
  0
LINE
  8
0
 10
18.73582048559992
 20
16.11932899484428
 11
18.081657541500906
 21
15.524969860638985
  0
LINE
  8
0
 10
18.081657541500906
 20
15.524969860638985
 11
17.53301634082957
 21
15.228062284660849
  0
LINE
  8
0
 10
17.53301634082957
 20
15.228062284660849
 11
17.143116508801487
 21
15.19756019473568
  0
LINE
  8
0
 10
17.143116508801487
 20
15.19756019473568
 11
15.197560194735809
 21
17.14311650880142
  0
LINE
  8
0
 10
15.197560194735809
 20
17.14311650880142
 11
15.228062284659174
 21
17.533016340830823
  0
LINE
  8
0
 10
15.228062284659174
 20
17.533016340830823
 11
15.524969860638988
 21
18.081657541500906
  0
LINE
  8
0
 10
15.524969860638988
 20
18.081657541500906
 11
16.119328994844278
 21
18.735820485599923
  0
LINE
  8
0
 10
16.119328994844278
 20
18.735820485599923
 11
16.157722815115527
 21
18.769262526893232
  0
LINE
  8
0
 10
16.157722815115527
 20
18.769262526893232
 11
16.230385153477453
 21
18.865887623611272
  0
LINE
  8
0
 10
16.230385153477453
 20
18.865887623611272
 11
16.45781094072934
 21
19.24523803892056
  0
LINE
  8
0
 10
16.45781094072934
 20
19.24523803892056
 11
16.758682643659867
 21
19.89213106069783
  0
LINE
  8
0
 10
16.758682643659867
 20
19.89213106069783
 11
17.078307567366263
 21
20.823383743895594
  0
LINE
  8
0
 10
17.078307567366263
 20
20.823383743895594
 11
17.330759247597793
 21
21.921833299288593
  0
LINE
  8
0
 10
17.330759247597793
 20
21.921833299288593
 11
16.46461139468005
 21
22.66159345122129
  0
LINE
  8
0
 10
16.46461139468005
 20
22.66159345122129
 11
15.493403275496004
 21
23.256750552105167
  0
LINE
  8
0
 10
15.493403275496004
 20
23.256750552105167
 11
14.526727527468038
 21
22.677215156491275
  0
LINE
  8
0
 10
14.526727527468038
 20
22.677215156491275
 11
13.739823128046458
 21
22.085460884864528
  0
LINE
  8
0
 10
13.739823128046458
 20
22.085460884864528
 11
13.21756577367155
 21
21.599413953951874
  0
LINE
  8
0
 10
13.21756577367155
 20
21.599413953951874
 11
12.927060522452303
 21
21.26589345185863
  0
LINE
  8
0
 10
12.927060522452303
 20
21.26589345185863
 11
12.857618491985773
 21
21.166928664501516
  0
LINE
  8
0
 10
12.857618491985773
 20
21.166928664501516
 11
12.83767756363831
 21
21.120079812460713
  0
LINE
  8
0
 10
12.83767756363831
 20
21.120079812460713
 11
12.399198706165537
 21
20.352663218038277
  0
LINE
  8
0
 10
12.399198706165537
 20
20.352663218038277
 11
11.96915940389498
 21
19.900747878345154
  0
LINE
  8
0
 10
11.96915940389498
 20
19.900747878345154
 11
11.607768292093116
 21
19.751252992760584
  0
LINE
  8
0
 10
11.607768292093116
 20
19.751252992760584
 11
9.156224317221978
 21
21.00037703851221
  0
LINE
  8
0
 10
9.156224317221978
 20
21.00037703851221
 11
9.064747854403192
 21
21.380619478616435
  0
LINE
  8
0
 10
9.064747854403192
 20
21.380619478616435
 11
9.177584284454861
 21
21.994157754358145
  0
LINE
  8
0
 10
9.177584284454861
 20
21.994157754358145
 11
9.5407059452434
 21
22.799970758293757
  0
LINE
  8
0
 10
9.5407059452434
 20
22.799970758293757
 11
9.566886479111616
 21
22.843640372526764
  0
LINE
  8
0
 10
9.566886479111616
 20
22.843640372526764
 11
9.606133672530971
 21
22.95799019780296
  0
LINE
  8
0
 10
9.606133672530971
 20
22.95799019780296
 11
9.70520272431667
 21
23.389052315462067
  0
LINE
  8
0
 10
9.70520272431667
 20
23.389052315462067
 11
9.791447780685827
 21
24.097258608501264
  0
LINE
  8
0
 10
9.791447780685827
 20
24.097258608501264
 11
9.80765624198176
 21
25.081702074424918
  0
LINE
  8
0
 10
9.80765624198176
 20
25.081702074424918
 11
9.708312477435575
 21
26.204401541352997
  0
LINE
  8
0
 10
9.708312477435575
 20
26.204401541352997
 11
8.655958459134501
 21
26.640300848151124
  0
LINE
  8
0
 10
8.655958459134501
 20
26.640300848151124
 11
7.548370990209714
 21
26.906209073263273
  0
LINE
  8
0
 10
7.548370990209714
 20
26.906209073263273
 11
6.808094006989727
 21
26.056318924650235
  0
LINE
  8
0
 10
6.808094006989727
 20
26.056318924650235
 11
6.2425655766451404
 21
25.250360336204444
  0
LINE
  8
0
 10
6.2425655766451404
 20
25.250360336204444
 11
5.896066078299615
 21
24.62671583739556
  0
LINE
  8
0
 10
5.896066078299615
 20
24.62671583739556
 11
5.722842669228865
 21
24.219747930979835
  0
LINE
  8
0
 10
5.722842669228865
 20
24.219747930979835
 11
5.6873811747869585
 21
24.10416805754203
  0
LINE
  8
0
 10
5.6873811747869585
 20
24.10416805754203
 11
5.682893316388693
 21
24.053450065784695
  0
LINE
  8
0
 10
5.682893316388693
 20
24.053450065784695
 11
5.503019911173439
 21
23.188096094313007
  0
LINE
  8
0
 10
5.503019911173439
 20
23.188096094313007
 11
5.233677750469904
 21
22.625409613033376
  0
LINE
  8
0
 10
5.233677750469904
 20
22.625409613033376
 11
4.936170838877363
 21
22.37155553278254
  0
LINE
  8
0
 10
4.936170838877363
 20
22.37155553278254
 11
2.218613408372404
 21
22.8019743454629
  0
LINE
  8
0
 10
2.218613408372404
 20
22.8019743454629
 11
2.0141127463461617
 21
23.13533861429968
  0
LINE
  8
0
 10
2.0141127463461617
 20
23.13533861429968
 11
1.931832814518594
 21
23.753716563910892
  0
LINE
  8
0
 10
1.931832814518594
 20
23.753716563910892
 11
2.028172123715022
 21
24.63230103642854
  0
LINE
  8
0
 10
2.028172123715022
 20
24.63230103642854
 11
2.0395766381146787
 21
24.681923537496022
  0
LINE
  8
0
 10
2.0395766381146787
 20
24.681923537496022
 11
2.041566897848301
 21
24.802804733710264
  0
LINE
  8
0
 10
2.041566897848301
 20
24.802804733710264
 11
2.002581645124354
 21
25.24338319025634
  0
LINE
  8
0
 10
2.002581645124354
 20
25.24338319025634
 11
1.8657577879100877
 21
25.943578588231397
  0
LINE
  8
0
 10
1.8657577879100877
 20
25.943578588231397
 11
1.5769631896729193
 21
26.884848651415385
  0
LINE
  8
0
 10
1.5769631896729193
 20
26.884848651415385
 11
1.1355484401915077
 21
27.921900383748476
  0
LINE
  8
0
 10
1.1355484401915077
 20
27.921900383748476
 11
1.8375747187378505e-15
 21
28.01126998417358
  0
LINE
  8
0
 10
1.8375747187378505e-15
 20
28.01126998417358
 11
-1.1355484401915055
 21
27.921900383748472
  0
LINE
  8
0
 10
-1.1355484401915055
 20
27.921900383748472
 11
-1.5769631896729137
 21
26.884848651415396
  0
LINE
  8
0
 10
-1.5769631896729137
 20
26.884848651415396
 11
-1.8657577879101088
 21
25.943578588231315
  0
LINE
  8
0
 10
-1.8657577879101088
 20
25.943578588231315
 11
-2.002581645124231
 21
25.24338319025634
  0
LINE
  8
0
 10
-2.002581645124231
 20
25.24338319025634
 11
-2.041566897848177
 21
24.802804733710243
  0
LINE
  8
0
 10
-2.041566897848177
 20
24.802804733710243
 11
-2.039576638114729
 21
24.681923537496168
  0
LINE
  8
0
 10
-2.039576638114729
 20
24.681923537496168
 11
-2.028172123715025
 21
24.632301036428537
  0
LINE
  8
0
 10
-2.028172123715025
 20
24.632301036428537
 11
-1.9318328145185857
 21
23.753716563910892
  0
LINE
  8
0
 10
-1.9318328145185857
 20
23.753716563910892
 11
-2.014112746348252
 21
23.13533861429965
  0
LINE
  8
0
 10
-2.014112746348252
 20
23.13533861429965
 11
-2.218613408372255
 21
22.801974345462877
  0
LINE
  8
0
 10
-2.218613408372255
 20
22.801974345462877
 11
-4.936170838877229
 21
22.371555532782608
  0
LINE
  8
0
 10
-4.936170838877229
 20
22.371555532782608
 11
-5.233677750471903
 21
22.62540961303276
  0
LINE
  8
0
 10
-5.233677750471903
 20
22.62540961303276
 11
-5.503019911173432
 21
23.18809609431301
  0
LINE
  8
0
 10
-5.503019911173432
 20
23.18809609431301
 11
-5.682893316388697
 21
24.053450065784702
  0
LINE
  8
0
 10
-5.682893316388697
 20
24.053450065784702
 11
-5.687381174786962
 21
24.104168057541877
  0
LINE
  8
0
 10
-5.687381174786962
 20
24.104168057541877
 11
-5.722842669228754
 21
24.219747930979896
  0
LINE
  8
0
 10
-5.722842669228754
 20
24.219747930979896
 11
-5.8960660782995
 21
24.6267158373956
  0
LINE
  8
0
 10
-5.8960660782995
 20
24.6267158373956
 11
-6.2425655766451875
 21
25.25036033620452
  0
LINE
  8
0
 10
-6.2425655766451875
 20
25.25036033620452
 11
-6.80809400698972
 21
26.05631892465023
  0
LINE
  8
0
 10
-6.80809400698972
 20
26.05631892465023
 11
-7.548370990209714
 21
26.906209073263277
  0
LINE
  8
0
 10
-7.548370990209714
 20
26.906209073263277
 11
-8.655958459134498
 21
26.640300848151124
  0
LINE
  8
0
 10
-8.655958459134498
 20
26.640300848151124
 11
-9.708312477435573
 21
26.204401541352997
  0
LINE
  8
0
 10
-9.708312477435573
 20
26.204401541352997
 11
-9.807656241981759
 21
25.081702074424925
  0
LINE
  8
0
 10
-9.807656241981759
 20
25.081702074424925
 11
-9.791447780685823
 21
24.09725860850118
  0
LINE
  8
0
 10
-9.791447780685823
 20
24.09725860850118
 11
-9.705202724316555
 21
23.389052315462106
  0
LINE
  8
0
 10
-9.705202724316555
 20
23.389052315462106
 11
-9.606133672530847
 21
22.957990197802975
  0
LINE
  8
0
 10
-9.606133672530847
 20
22.957990197802975
 11
-9.56688647911171
 21
22.843640372526885
  0
LINE
  8
0
 10
-9.56688647911171
 20
22.843640372526885
 11
-9.540705945243404
 21
22.799970758293753
  0
LINE
  8
0
 10
-9.540705945243404
 20
22.799970758293753
 11
-9.177584284454854
 21
21.99415775435815
  0
LINE
  8
0
 10
-9.177584284454854
 20
21.99415775435815
 11
-9.064747854405171
 21
21.38061947861576
  0
LINE
  8
0
 10
-9.064747854405171
 20
21.38061947861576
 11
-9.156224317221833
 21
21.000377038512234
  0
LINE
  8
0
 10
-9.156224317221833
 20
21.000377038512234
 11
-11.607768292093008
 21
19.75125299276069
  0
LINE
  8
0
 10
-11.607768292093008
 20
19.75125299276069
 11
-11.96915940389669
 21
19.900747878343953
  0
LINE
  8
0
 10
-11.96915940389669
 20
19.900747878343953
 11
-12.399198706165533
 21
20.352663218038284
  0
LINE
  8
0
 10
-12.399198706165533
 20
20.352663218038284
 11
-12.837677563638316
 21
21.120079812460716
  0
LINE
  8
0
 10
-12.837677563638316
 20
21.120079812460716
 11
-12.857618491985733
 21
21.166928664501373
  0
LINE
  8
0
 10
-12.857618491985733
 20
21.166928664501373
 11
-12.927060522452217
 21
21.265893451858723
  0
LINE
  8
0
 10
-12.927060522452217
 20
21.265893451858723
 11
-13.217565773671453
 21
21.599413953951952
  0
LINE
  8
0
 10
-13.217565773671453
 20
21.599413953951952
 11
-13.739823128046524
 21
22.085460884864585
  0
LINE
  8
0
 10
-13.739823128046524
 20
22.085460884864585
 11
-14.526727527468033
 21
22.677215156491275
  0
LINE
  8
0
 10
-14.526727527468033
 20
22.677215156491275
 11
-15.493403275496007
 21
23.256750552105174
  0
LINE
  8
0
 10
-15.493403275496007
 20
23.256750552105174
 11
-16.464611394680045
 21
22.661593451221293
  0
LINE
  8
0
 10
-16.464611394680045
 20
22.661593451221293
 11
-17.33075924759779
 21
21.921833299288593
  0
LINE
  8
0
 10
-17.33075924759779
 20
21.921833299288593
 11
-17.07830756736626
 21
20.823383743895604
  0
LINE
  8
0
 10
-17.07830756736626
 20
20.823383743895604
 11
-16.75868264365983
 21
19.89213106069775
  0
LINE
  8
0
 10
-16.75868264365983
 20
19.89213106069775
 11
-16.45781094072924
 21
19.245238038920633
  0
LINE
  8
0
 10
-16.45781094072924
 20
19.245238038920633
 11
-16.230385153477336
 21
18.865887623611325
  0
LINE
  8
0
 10
-16.230385153477336
 20
18.865887623611325
 11
-16.15772281511565
 21
18.769262526893318
  0
LINE
  8
0
 10
-16.15772281511565
 20
18.769262526893318
 11
-16.119328994844274
 21
18.735820485599923
  0
LINE
  8
0
 10
-16.119328994844274
 20
18.735820485599923
 11
-15.524969860638985
 21
18.08165754150091
  0
LINE
  8
0
 10
-15.524969860638985
 20
18.08165754150091
 11
-15.228062284660849
 21
17.53301634082957
  0
LINE
  8
0
 10
-15.228062284660849
 20
17.53301634082957
 11
-15.197560194735674
 21
17.143116508801487
  0
LINE
  8
0
 10
-15.197560194735674
 20
17.143116508801487
 11
-17.143116508801413
 21
15.197560194735809
  0
LINE
  8
0
 10
-17.143116508801413
 20
15.197560194735809
 11
-17.533016340830823
 21
15.228062284659176
  0
LINE
  8
0
 10
-17.533016340830823
 20
15.228062284659176
 11
-18.081657541500903
 21
15.52496986063899
  0
LINE
  8
0
 10
-18.081657541500903
 20
15.52496986063899
 11
-18.73582048559992
 21
16.11932899484428
  0
LINE
  8
0
 10
-18.73582048559992
 20
16.11932899484428
 11
-18.76926252689323
 21
16.15772281511553
  0
LINE
  8
0
 10
-18.76926252689323
 20
16.15772281511553
 11
-18.86588762361127
 21
16.230385153477457
  0
LINE
  8
0
 10
-18.86588762361127
 20
16.230385153477457
 11
-19.245238038920558
 21
16.457810940729342
  0
LINE
  8
0
 10
-19.245238038920558
 20
16.457810940729342
 11
-19.892131060697828
 21
16.758682643659867
  0
LINE
  8
0
 10
-19.892131060697828
 20
16.758682643659867
 11
-20.82338374389559
 21
17.078307567366267
  0
LINE
  8
0
 10
-20.82338374389559
 20
17.078307567366267
 11
-21.92183329928859
 21
17.330759247597797
  0
LINE
  8
0
 10
-21.92183329928859
 20
17.330759247597797
 11
-22.661593451221286
 21
16.46461139468005
  0
LINE
  8
0
 10
-22.661593451221286
 20
16.46461139468005
 11
-23.256750552105167
 21
15.493403275496005
  0
LINE
  8
0
 10
-23.256750552105167
 20
15.493403275496005
 11
-22.677215156491275
 21
14.52672752746804
  0
LINE
  8
0
 10
-22.677215156491275
 20
14.52672752746804
 11
-22.085460884864528
 21
13.739823128046458
  0
LINE
  8
0
 10
-22.085460884864528
 20
13.739823128046458
 11
-21.599413953951874
 21
13.217565773671554
  0
LINE
  8
0
 10
-21.599413953951874
 20
13.217565773671554
 11
-21.26589345185863
 21
12.927060522452303
  0
LINE
  8
0
 10
-21.26589345185863
 20
12.927060522452303
 11
-21.166928664501516
 21
12.857618491985775
  0
LINE
  8
0
 10
-21.166928664501516
 20
12.857618491985775
 11
-21.120079812460713
 21
12.83767756363831
  0
LINE
  8
0
 10
-21.120079812460713
 20
12.83767756363831
 11
-20.352663218038277
 21
12.39919870616554
  0
LINE
  8
0
 10
-20.352663218038277
 20
12.39919870616554
 11
-19.900747878345154
 21
11.96915940389498
  0
LINE
  8
0
 10
-19.900747878345154
 20
11.96915940389498
 11
-19.751252992760584
 21
11.607768292093118
  0
LINE
  8
0
 10
-19.751252992760584
 20
11.607768292093118
 11
-21.00037703851221
 21
9.156224317221978
  0
LINE
  8
0
 10
-21.00037703851221
 20
9.156224317221978
 11
-21.380619478616435
 21
9.064747854403194
  0
LINE
  8
0
 10
-21.380619478616435
 20
9.064747854403194
 11
-21.994157754358145
 21
9.177584284454863
  0
LINE
  8
0
 10
-21.994157754358145
 20
9.177584284454863
 11
-22.799970758293757
 21
9.540705945243403
  0
LINE
  8
0
 10
-22.799970758293757
 20
9.540705945243403
 11
-22.843640372526764
 21
9.566886479111618
  0
LINE
  8
0
 10
-22.843640372526764
 20
9.566886479111618
 11
-22.95799019780296
 21
9.606133672530973
  0
LINE
  8
0
 10
-22.95799019780296
 20
9.606133672530973
 11
-23.389052315462067
 21
9.705202724316672
  0
LINE
  8
0
 10
-23.389052315462067
 20
9.705202724316672
 11
-24.097258608501264
 21
9.791447780685829
  0
LINE
  8
0
 10
-24.097258608501264
 20
9.791447780685829
 11
-25.081702074424918
 21
9.807656241981762
  0
LINE
  8
0
 10
-25.081702074424918
 20
9.807656241981762
 11
-26.204401541352997
 21
9.708312477435577
  0
LINE
  8
0
 10
-26.204401541352997
 20
9.708312477435577
 11
-26.640300848151124
 21
8.655958459134503
  0
LINE
  8
0
 10
-26.640300848151124
 20
8.655958459134503
 11
-26.906209073263273
 21
7.548370990209715
  0
LINE
  8
0
 10
-26.906209073263273
 20
7.548370990209715
 11
-26.056318924650235
 21
6.808094006989728
  0
LINE
  8
0
 10
-26.056318924650235
 20
6.808094006989728
 11
-25.250360336204444
 21
6.242565576645141
  0
LINE
  8
0
 10
-25.250360336204444
 20
6.242565576645141
 11
-24.62671583739556
 21
5.896066078299616
  0
LINE
  8
0
 10
-24.62671583739556
 20
5.896066078299616
 11
-24.219747930979835
 21
5.722842669228866
  0
LINE
  8
0
 10
-24.219747930979835
 20
5.722842669228866
 11
-24.10416805754203
 21
5.687381174786959
  0
LINE
  8
0
 10
-24.10416805754203
 20
5.687381174786959
 11
-24.053450065784695
 21
5.682893316388694
  0
LINE
  8
0
 10
-24.053450065784695
 20
5.682893316388694
 11
-23.188096094313007
 21
5.50301991117344
  0
LINE
  8
0
 10
-23.188096094313007
 20
5.50301991117344
 11
-22.625409613033376
 21
5.233677750469905
  0
LINE
  8
0
 10
-22.625409613033376
 20
5.233677750469905
 11
-22.37155553278254
 21
4.936170838877364
  0
LINE
  8
0
 10
-22.37155553278254
 20
4.936170838877364
 11
-22.8019743454629
 21
2.218613408372405
  0
LINE
  8
0
 10
-22.8019743454629
 20
2.218613408372405
 11
-23.13533861429968
 21
2.014112746346163
  0
LINE
  8
0
 10
-23.13533861429968
 20
2.014112746346163
 11
-23.753716563910892
 21
1.9318328145185952
  0
LINE
  8
0
 10
-23.753716563910892
 20
1.9318328145185952
 11
-24.63230103642854
 21
2.0281721237150236
  0
LINE
  8
0
 10
-24.63230103642854
 20
2.0281721237150236
 11
-24.681923537496022
 21
2.0395766381146805
  0
LINE
  8
0
 10
-24.681923537496022
 20
2.0395766381146805
 11
-24.802804733710264
 21
2.041566897848303
  0
LINE
  8
0
 10
-24.802804733710264
 20
2.041566897848303
 11
-25.24338319025634
 21
2.002581645124356
  0
LINE
  8
0
 10
-25.24338319025634
 20
2.002581645124356
 11
-25.943578588231397
 21
1.8657577879100893
  0
LINE
  8
0
 10
-25.943578588231397
 20
1.8657577879100893
 11
-26.884848651415385
 21
1.576963189672921
  0
LINE
  8
0
 10
-26.884848651415385
 20
1.576963189672921
 11
-27.921900383748476
 21
1.1355484401915092
  0
LINE
  8
0
 10
-27.921900383748476
 20
1.1355484401915092
 11
-28.01126998417358
 21
-8.820566317663652e-15
  0
LINE
  8
0
 10
-28.01126998417358
 20
-8.820566317663652e-15
 11
-27.921900383748472
 21
-1.135548440191517
  0
LINE
  8
0
 10
-27.921900383748472
 20
-1.135548440191517
 11
-26.884848651415393
 21
-1.5769631896729253
  0
LINE
  8
0
 10
-26.884848651415393
 20
-1.5769631896729253
 11
-25.943578588231315
 21
-1.8657577879101195
  0
LINE
  8
0
 10
-25.943578588231315
 20
-1.8657577879101195
 11
-25.24338319025634
 21
-2.0025816451242417
  0
LINE
  8
0
 10
-25.24338319025634
 20
-2.0025816451242417
 11
-24.802804733710243
 21
-2.041566897848186
  0
LINE
  8
0
 10
-24.802804733710243
 20
-2.041566897848186
 11
-24.681923537496164
 21
-2.0395766381147395
  0
LINE
  8
0
 10
-24.681923537496164
 20
-2.0395766381147395
 11
-24.632301036428537
 21
-2.028172123715034
  0
LINE
  8
0
 10
-24.632301036428537
 20
-2.028172123715034
 11
-23.753716563910892
 21
-1.9318328145185955
  0
LINE
  8
0
 10
-23.753716563910892
 20
-1.9318328145185955
 11
-23.13533861429965
 21
-2.0141127463482618
  0
LINE
  8
0
 10
-23.13533861429965
 20
-2.0141127463482618
 11
-22.801974345462877
 21
-2.218613408372264
  0
LINE
  8
0
 10
-22.801974345462877
 20
-2.218613408372264
 11
-22.371555532782605
 21
-4.936170838877238
  0
LINE
  8
0
 10
-22.371555532782605
 20
-4.936170838877238
 11
-22.62540961303276
 21
-5.233677750471912
  0
LINE
  8
0
 10
-22.62540961303276
 20
-5.233677750471912
 11
-23.188096094313007
 21
-5.503019911173441
  0
LINE
  8
0
 10
-23.188096094313007
 20
-5.503019911173441
 11
-24.0534500657847
 21
-5.682893316388707
  0
LINE
  8
0
 10
-24.0534500657847
 20
-5.682893316388707
 11
-24.10416805754188
 21
-5.687381174786973
  0
LINE
  8
0
 10
-24.10416805754188
 20
-5.687381174786973
 11
-24.219747930979896
 21
-5.722842669228765
  0
LINE
  8
0
 10
-24.219747930979896
 20
-5.722842669228765
 11
-24.6267158373956
 21
-5.896066078299509
  0
LINE
  8
0
 10
-24.6267158373956
 20
-5.896066078299509
 11
-25.250360336204515
 21
-6.242565576645197
  0
LINE
  8
0
 10
-25.250360336204515
 20
-6.242565576645197
 11
-26.056318924650228
 21
-6.80809400698973
  0
LINE
  8
0
 10
-26.056318924650228
 20
-6.80809400698973
 11
-26.906209073263273
 21
-7.548370990209724
  0
LINE
  8
0
 10
-26.906209073263273
 20
-7.548370990209724
 11
-26.640300848151128
 21
-8.655958459134496
  0
LINE
  8
0
 10
-26.640300848151128
 20
-8.655958459134496
 11
-26.204401541352997
 21
-9.708312477435571
  0
LINE
  8
0
 10
-26.204401541352997
 20
-9.708312477435571
 11
-25.08170207442493
 21
-9.807656241981757
  0
LINE
  8
0
 10
-25.08170207442493
 20
-9.807656241981757
 11
-24.09725860850118
 21
-9.791447780685823
  0
LINE
  8
0
 10
-24.09725860850118
 20
-9.791447780685823
 11
-23.38905231546211
 21
-9.705202724316555
  0
LINE
  8
0
 10
-23.38905231546211
 20
-9.705202724316555
 11
-22.957990197802978
 21
-9.606133672530847
  0
LINE
  8
0
 10
-22.957990197802978
 20
-9.606133672530847
 11
-22.843640372526885
 21
-9.56688647911171
  0
LINE
  8
0
 10
-22.843640372526885
 20
-9.56688647911171
 11
-22.799970758293753
 21
-9.540705945243403
  0
LINE
  8
0
 10
-22.799970758293753
 20
-9.540705945243403
 11
-21.994157754358152
 21
-9.177584284454854
  0
LINE
  8
0
 10
-21.994157754358152
 20
-9.177584284454854
 11
-21.380619478615763
 21
-9.064747854405171
  0
LINE
  8
0
 10
-21.380619478615763
 20
-9.064747854405171
 11
-21.00037703851224
 21
-9.156224317221831
  0
LINE
  8
0
 10
-21.00037703851224
 20
-9.156224317221831
 11
-19.75125299276069
 21
-11.607768292093008
  0
LINE
  8
0
 10
-19.75125299276069
 20
-11.607768292093008
 11
-19.900747878343957
 21
-11.96915940389669
  0
LINE
  8
0
 10
-19.900747878343957
 20
-11.96915940389669
 11
-20.352663218038284
 21
-12.399198706165532
  0
LINE
  8
0
 10
-20.352663218038284
 20
-12.399198706165532
 11
-21.12007981246072
 21
-12.837677563638316
  0
LINE
  8
0
 10
-21.12007981246072
 20
-12.837677563638316
 11
-21.166928664501377
 21
-12.857618491985733
  0
LINE
  8
0
 10
-21.166928664501377
 20
-12.857618491985733
 11
-21.265893451858727
 21
-12.927060522452216
  0
LINE
  8
0
 10
-21.265893451858727
 20
-12.927060522452216
 11
-21.599413953951952
 21
-13.217565773671453
  0
LINE
  8
0
 10
-21.599413953951952
 20
-13.217565773671453
 11
-22.085460884864585
 21
-13.739823128046524
  0
LINE
  8
0
 10
-22.085460884864585
 20
-13.739823128046524
 11
-22.67721515649128
 21
-14.526727527468033
  0
LINE
  8
0
 10
-22.67721515649128
 20
-14.526727527468033
 11
-23.256750552105178
 21
-15.493403275496007
  0
LINE
  8
0
 10
-23.256750552105178
 20
-15.493403275496007
 11
-22.661593451221293
 21
-16.464611394680045
  0
LINE
  8
0
 10
-22.661593451221293
 20
-16.464611394680045
 11
-21.921833299288593
 21
-17.33075924759779
  0
LINE
  8
0
 10
-21.921833299288593
 20
-17.33075924759779
 11
-20.823383743895604
 21
-17.07830756736626
  0
LINE
  8
0
 10
-20.823383743895604
 20
-17.07830756736626
 11
-19.89213106069775
 21
-16.75868264365983
  0
LINE
  8
0
 10
-19.89213106069775
 20
-16.75868264365983
 11
-19.245238038920633
 21
-16.45781094072924
  0
LINE
  8
0
 10
-19.245238038920633
 20
-16.45781094072924
 11
-18.865887623611325
 21
-16.230385153477336
  0
LINE
  8
0
 10
-18.865887623611325
 20
-16.230385153477336
 11
-18.769262526893318
 21
-16.15772281511565
  0
LINE
  8
0
 10
-18.769262526893318
 20
-16.15772281511565
 11
-18.735820485599923
 21
-16.119328994844274
  0
LINE
  8
0
 10
-18.735820485599923
 20
-16.119328994844274
 11
-18.08165754150091
 21
-15.524969860638985
  0
LINE
  8
0
 10
-18.08165754150091
 20
-15.524969860638985
 11
-17.53301634082957
 21
-15.228062284660849
  0
LINE
  8
0
 10
-17.53301634082957
 20
-15.228062284660849
 11
-17.143116508801487
 21
-15.197560194735674
  0
LINE
  8
0
 10
-17.143116508801487
 20
-15.197560194735674
 11
-15.197560194735809
 21
-17.143116508801413
  0
LINE
  8
0
 10
-15.197560194735809
 20
-17.143116508801413
 11
-15.228062284659176
 21
-17.533016340830823
  0
LINE
  8
0
 10
-15.228062284659176
 20
-17.533016340830823
 11
-15.52496986063899
 21
-18.081657541500903
  0
LINE
  8
0
 10
-15.52496986063899
 20
-18.081657541500903
 11
-16.11932899484428
 21
-18.73582048559992
  0
LINE
  8
0
 10
-16.11932899484428
 20
-18.73582048559992
 11
-16.15772281511553
 21
-18.76926252689323
  0
LINE
  8
0
 10
-16.15772281511553
 20
-18.76926252689323
 11
-16.230385153477457
 21
-18.86588762361127
  0
LINE
  8
0
 10
-16.230385153477457
 20
-18.86588762361127
 11
-16.457810940729342
 21
-19.245238038920558
  0
LINE
  8
0
 10
-16.457810940729342
 20
-19.245238038920558
 11
-16.758682643659867
 21
-19.892131060697828
  0
LINE
  8
0
 10
-16.758682643659867
 20
-19.892131060697828
 11
-17.078307567366267
 21
-20.82338374389559
  0
LINE
  8
0
 10
-17.078307567366267
 20
-20.82338374389559
 11
-17.330759247597797
 21
-21.92183329928859
  0
LINE
  8
0
 10
-17.330759247597797
 20
-21.92183329928859
 11
-16.46461139468005
 21
-22.661593451221286
  0
LINE
  8
0
 10
-16.46461139468005
 20
-22.661593451221286
 11
-15.493403275496007
 21
-23.256750552105167
  0
LINE
  8
0
 10
-15.493403275496007
 20
-23.256750552105167
 11
-14.526727527468042
 21
-22.677215156491275
  0
LINE
  8
0
 10
-14.526727527468042
 20
-22.677215156491275
 11
-13.73982312804646
 21
-22.085460884864528
  0
LINE
  8
0
 10
-13.73982312804646
 20
-22.085460884864528
 11
-13.217565773671554
 21
-21.599413953951874
  0
LINE
  8
0
 10
-13.217565773671554
 20
-21.599413953951874
 11
-12.927060522452305
 21
-21.26589345185863
  0
LINE
  8
0
 10
-12.927060522452305
 20
-21.26589345185863
 11
-12.857618491985777
 21
-21.166928664501516
  0
LINE
  8
0
 10
-12.857618491985777
 20
-21.166928664501516
 11
-12.837677563638312
 21
-21.120079812460713
  0
LINE
  8
0
 10
-12.837677563638312
 20
-21.120079812460713
 11
-12.39919870616554
 21
-20.352663218038277
  0
LINE
  8
0
 10
-12.39919870616554
 20
-20.352663218038277
 11
-11.969159403894981
 21
-19.900747878345154
  0
LINE
  8
0
 10
-11.969159403894981
 20
-19.900747878345154
 11
-11.607768292093118
 21
-19.751252992760584
  0
LINE
  8
0
 10
-11.607768292093118
 20
-19.751252992760584
 11
-9.156224317221982
 21
-21.00037703851221
  0
LINE
  8
0
 10
-9.156224317221982
 20
-21.00037703851221
 11
-9.064747854403194
 21
-21.380619478616435
  0
LINE
  8
0
 10
-9.064747854403194
 20
-21.380619478616435
 11
-9.177584284454865
 21
-21.994157754358145
  0
LINE
  8
0
 10
-9.177584284454865
 20
-21.994157754358145
 11
-9.540705945243403
 21
-22.799970758293757
  0
LINE
  8
0
 10
-9.540705945243403
 20
-22.799970758293757
 11
-9.56688647911162
 21
-22.843640372526764
  0
LINE
  8
0
 10
-9.56688647911162
 20
-22.843640372526764
 11
-9.606133672530975
 21
-22.95799019780296
  0
LINE
  8
0
 10
-9.606133672530975
 20
-22.95799019780296
 11
-9.705202724316672
 21
-23.389052315462067
  0
LINE
  8
0
 10
-9.705202724316672
 20
-23.389052315462067
 11
-9.79144778068583
 21
-24.097258608501264
  0
LINE
  8
0
 10
-9.79144778068583
 20
-24.097258608501264
 11
-9.807656241981764
 21
-25.081702074424918
  0
LINE
  8
0
 10
-9.807656241981764
 20
-25.081702074424918
 11
-9.708312477435578
 21
-26.204401541352997
  0
LINE
  8
0
 10
-9.708312477435578
 20
-26.204401541352997
 11
-8.655958459134505
 21
-26.640300848151124
  0
LINE
  8
0
 10
-8.655958459134505
 20
-26.640300848151124
 11
-7.548370990209717
 21
-26.906209073263273
  0
LINE
  8
0
 10
-7.548370990209717
 20
-26.906209073263273
 11
-6.808094006989729
 21
-26.056318924650235
  0
LINE
  8
0
 10
-6.808094006989729
 20
-26.056318924650235
 11
-6.242565576645143
 21
-25.250360336204444
  0
LINE
  8
0
 10
-6.242565576645143
 20
-25.250360336204444
 11
-5.896066078299618
 21
-24.62671583739556
  0
LINE
  8
0
 10
-5.896066078299618
 20
-24.62671583739556
 11
-5.722842669228868
 21
-24.219747930979835
  0
LINE
  8
0
 10
-5.722842669228868
 20
-24.219747930979835
 11
-5.687381174786961
 21
-24.10416805754203
  0
LINE
  8
0
 10
-5.687381174786961
 20
-24.10416805754203
 11
-5.682893316388696
 21
-24.053450065784695
  0
LINE
  8
0
 10
-5.682893316388696
 20
-24.053450065784695
 11
-5.503019911173442
 21
-23.188096094313007
  0
LINE
  8
0
 10
-5.503019911173442
 20
-23.188096094313007
 11
-5.233677750469907
 21
-22.625409613033376
  0
LINE
  8
0
 10
-5.233677750469907
 20
-22.625409613033376
 11
-4.9361708388773655
 21
-22.37155553278254
  0
LINE
  8
0
 10
-4.9361708388773655
 20
-22.37155553278254
 11
-2.2186134083724065
 21
-22.8019743454629
  0
LINE
  8
0
 10
-2.2186134083724065
 20
-22.8019743454629
 11
-2.0141127463461648
 21
-23.13533861429968
  0
LINE
  8
0
 10
-2.0141127463461648
 20
-23.13533861429968
 11
-1.9318328145185968
 21
-23.753716563910892
  0
LINE
  8
0
 10
-1.9318328145185968
 20
-23.753716563910892
 11
-2.028172123715025
 21
-24.63230103642854
  0
LINE
  8
0
 10
-2.028172123715025
 20
-24.63230103642854
 11
-2.039576638114682
 21
-24.681923537496022
  0
LINE
  8
0
 10
-2.039576638114682
 20
-24.681923537496022
 11
-2.041566897848304
 21
-24.802804733710264
  0
LINE
  8
0
 10
-2.041566897848304
 20
-24.802804733710264
 11
-2.002581645124357
 21
-25.24338319025634
  0
LINE
  8
0
 10
-2.002581645124357
 20
-25.24338319025634
 11
-1.8657577879100908
 21
-25.943578588231397
  0
LINE
  8
0
 10
-1.8657577879100908
 20
-25.943578588231397
 11
-1.5769631896729226
 21
-26.884848651415385
  0
LINE
  8
0
 10
-1.5769631896729226
 20
-26.884848651415385
 11
-1.135548440191511
 21
-27.921900383748476
  0
LINE
  8
0
 10
-1.135548440191511
 20
-27.921900383748476
 11
-5.3902883975383514e-15
 21
-28.01126998417358
  0
LINE
  8
0
 10
-5.3902883975383514e-15
 20
-28.01126998417358
 11
1.1355484401915037
 21
-27.921900383748472
  0
LINE
  8
0
 10
1.1355484401915037
 20
-27.921900383748472
 11
1.576963189672912
 21
-26.884848651415393
  0
LINE
  8
0
 10
1.576963189672912
 20
-26.884848651415393
 11
1.8657577879101062
 21
-25.943578588231315
  0
LINE
  8
0
 10
1.8657577879101062
 20
-25.943578588231315
 11
2.0025816451242284
 21
-25.24338319025634
  0
LINE
  8
0
 10
2.0025816451242284
 20
-25.24338319025634
 11
2.0415668978481745
 21
-24.802804733710243
  0
LINE
  8
0
 10
2.0415668978481745
 20
-24.802804733710243
 11
2.0395766381147262
 21
-24.681923537496164
  0
LINE
  8
0
 10
2.0395766381147262
 20
-24.681923537496164
 11
2.0281721237150223
 21
-24.632301036428537
  0
LINE
  8
0
 10
2.0281721237150223
 20
-24.632301036428537
 11
1.931832814518584
 21
-23.753716563910892
  0
LINE
  8
0
 10
1.931832814518584
 20
-23.753716563910892
 11
2.0141127463482493
 21
-23.13533861429965
  0
LINE
  8
0
 10
2.0141127463482493
 20
-23.13533861429965
 11
2.2186134083722524
 21
-22.801974345462877
  0
LINE
  8
0
 10
2.2186134083722524
 20
-22.801974345462877
 11
4.936170838877226
 21
-22.371555532782608
  0
LINE
  8
0
 10
4.936170838877226
 20
-22.371555532782608
 11
5.2336777504719
 21
-22.62540961303276
  0
LINE
  8
0
 10
5.2336777504719
 20
-22.62540961303276
 11
5.503019911173429
 21
-23.18809609431301
  0
LINE
  8
0
 10
5.503019911173429
 20
-23.18809609431301
 11
5.682893316388695
 21
-24.053450065784702
  0
LINE
  8
0
 10
5.682893316388695
 20
-24.053450065784702
 11
5.68738117478696
 21
-24.104168057541877
  0
LINE
  8
0
 10
5.68738117478696
 20
-24.104168057541877
 11
5.722842669228752
 21
-24.219747930979896
  0
LINE
  8
0
 10
5.722842669228752
 20
-24.219747930979896
 11
5.896066078299496
 21
-24.626715837395597
  0
LINE
  8
0
 10
5.896066078299496
 20
-24.626715837395597
 11
6.242565576645184
 21
-25.25036033620452
  0
LINE
  8
0
 10
6.242565576645184
 20
-25.25036033620452
 11
6.808094006989718
 21
-26.05631892465023
  0
LINE
  8
0
 10
6.808094006989718
 20
-26.05631892465023
 11
7.54837099020971
 21
-26.906209073263277
  0
LINE
  8
0
 10
7.54837099020971
 20
-26.906209073263277
 11
8.655958459134494
 21
-26.640300848151128
  0
LINE
  8
0
 10
8.655958459134494
 20
-26.640300848151128
 11
9.708312477435568
 21
-26.204401541352993
  0
LINE
  8
0
 10
9.708312477435568
 20
-26.204401541352993
 11
9.807656241981755
 21
-25.08170207442493
  0
LINE
  8
0
 10
9.807656241981755
 20
-25.08170207442493
 11
9.79144778068582
 21
-24.09725860850118
  0
LINE
  8
0
 10
9.79144778068582
 20
-24.09725860850118
 11
9.705202724316552
 21
-23.38905231546211
  0
LINE
  8
0
 10
9.705202724316552
 20
-23.38905231546211
 11
9.606133672530843
 21
-22.957990197802978
  0
LINE
  8
0
 10
9.606133672530843
 20
-22.957990197802978
 11
9.566886479111707
 21
-22.843640372526885
  0
LINE
  8
0
 10
9.566886479111707
 20
-22.843640372526885
 11
9.540705945243399
 21
-22.799970758293753
  0
LINE
  8
0
 10
9.540705945243399
 20
-22.799970758293753
 11
9.177584284454854
 21
-21.994157754358152
  0
LINE
  8
0
 10
9.177584284454854
 20
-21.994157754358152
 11
9.064747854405168
 21
-21.380619478615763
  0
LINE
  8
0
 10
9.064747854405168
 20
-21.380619478615763
 11
9.156224317221827
 21
-21.000377038512237
  0
LINE
  8
0
 10
9.156224317221827
 20
-21.000377038512237
 11
11.607768292093006
 21
-19.75125299276069
  0
LINE
  8
0
 10
11.607768292093006
 20
-19.75125299276069
 11
11.969159403896688
 21
-19.900747878343957
  0
LINE
  8
0
 10
11.969159403896688
 20
-19.900747878343957
 11
12.39919870616553
 21
-20.352663218038284
  0
LINE
  8
0
 10
12.39919870616553
 20
-20.352663218038284
 11
12.837677563638312
 21
-21.120079812460716
  0
LINE
  8
0
 10
12.837677563638312
 20
-21.120079812460716
 11
12.857618491985729
 21
-21.166928664501377
  0
LINE
  8
0
 10
12.857618491985729
 20
-21.166928664501377
 11
12.927060522452212
 21
-21.265893451858727
  0
LINE
  8
0
 10
12.927060522452212
 20
-21.265893451858727
 11
13.217565773671451
 21
-21.599413953951952
  0
LINE
  8
0
 10
13.217565773671451
 20
-21.599413953951952
 11
13.739823128046522
 21
-22.085460884864585
  0
LINE
  8
0
 10
13.739823128046522
 20
-22.085460884864585
 11
14.52672752746803
 21
-22.67721515649128
  0
LINE
  8
0
 10
14.52672752746803
 20
-22.67721515649128
 11
15.493403275496004
 21
-23.256750552105178
  0
LINE
  8
0
 10
15.493403275496004
 20
-23.256750552105178
 11
16.46461139468004
 21
-22.661593451221293
  0
LINE
  8
0
 10
16.46461139468004
 20
-22.661593451221293
 11
17.33075924759779
 21
-21.921833299288597
  0
LINE
  8
0
 10
17.33075924759779
 20
-21.921833299288597
 11
17.07830756736626
 21
-20.823383743895604
  0
LINE
  8
0
 10
17.07830756736626
 20
-20.823383743895604
 11
16.75868264365983
 21
-19.892131060697753
  0
LINE
  8
0
 10
16.75868264365983
 20
-19.892131060697753
 11
16.45781094072924
 21
-19.24523803892064
  0
LINE
  8
0
 10
16.45781094072924
 20
-19.24523803892064
 11
16.230385153477336
 21
-18.86588762361133
  0
LINE
  8
0
 10
16.230385153477336
 20
-18.86588762361133
 11
16.15772281511565
 21
-18.76926252689332
  0
LINE
  8
0
 10
16.15772281511565
 20
-18.76926252689332
 11
16.119328994844274
 21
-18.735820485599923
  0
LINE
  8
0
 10
16.119328994844274
 20
-18.735820485599923
 11
15.524969860638983
 21
-18.08165754150091
  0
LINE
  8
0
 10
15.524969860638983
 20
-18.08165754150091
 11
15.228062284660849
 21
-17.533016340829572
  0
LINE
  8
0
 10
15.228062284660849
 20
-17.533016340829572
 11
15.197560194735674
 21
-17.14311650880149
  0
LINE
  8
0
 10
15.197560194735674
 20
-17.14311650880149
 11
17.143116508801413
 21
-15.197560194735813
  0
LINE
  8
0
 10
17.143116508801413
 20
-15.197560194735813
 11
17.533016340830823
 21
-15.22806228465918
  0
LINE
  8
0
 10
17.533016340830823
 20
-15.22806228465918
 11
18.081657541500903
 21
-15.524969860638993
  0
LINE
  8
0
 10
18.081657541500903
 20
-15.524969860638993
 11
18.73582048559992
 21
-16.11932899484428
  0
LINE
  8
0
 10
18.73582048559992
 20
-16.11932899484428
 11
18.76926252689323
 21
-16.157722815115534
  0
LINE
  8
0
 10
18.76926252689323
 20
-16.157722815115534
 11
18.86588762361127
 21
-16.230385153477457
  0
LINE
  8
0
 10
18.86588762361127
 20
-16.230385153477457
 11
19.245238038920558
 21
-16.457810940729345
  0
LINE
  8
0
 10
19.245238038920558
 20
-16.457810940729345
 11
19.892131060697828
 21
-16.75868264365987
  0
LINE
  8
0
 10
19.892131060697828
 20
-16.75868264365987
 11
20.82338374389559
 21
-17.07830756736627
  0
LINE
  8
0
 10
20.82338374389559
 20
-17.07830756736627
 11
21.92183329928859
 21
-17.3307592475978
  0
LINE
  8
0
 10
21.92183329928859
 20
-17.3307592475978
 11
22.661593451221286
 21
-16.464611394680052
  0
LINE
  8
0
 10
22.661593451221286
 20
-16.464611394680052
 11
23.256750552105167
 21
-15.493403275496009
  0
LINE
  8
0
 10
23.256750552105167
 20
-15.493403275496009
 11
22.677215156491275
 21
-14.526727527468042
  0
LINE
  8
0
 10
22.677215156491275
 20
-14.526727527468042
 11
22.085460884864528
 21
-13.739823128046462
  0
LINE
  8
0
 10
22.085460884864528
 20
-13.739823128046462
 11
21.599413953951874
 21
-13.217565773671556
  0
LINE
  8
0
 10
21.599413953951874
 20
-13.217565773671556
 11
21.265893451858627
 21
-12.927060522452306
  0
LINE
  8
0
 10
21.265893451858627
 20
-12.927060522452306
 11
21.166928664501516
 21
-12.857618491985777
  0
LINE
  8
0
 10
21.166928664501516
 20
-12.857618491985777
 11
21.12007981246071
 21
-12.837677563638314
  0
LINE
  8
0
 10
21.12007981246071
 20
-12.837677563638314
 11
20.352663218038277
 21
-12.399198706165542
  0
LINE
  8
0
 10
20.352663218038277
 20
-12.399198706165542
 11
19.900747878345154
 21
-11.969159403894983
  0
LINE
  8
0
 10
19.900747878345154
 20
-11.969159403894983
 11
19.751252992760584
 21
-11.60776829209312
  0
LINE
  8
0
 10
19.751252992760584
 20
-11.60776829209312
 11
21.00037703851221
 21
-9.156224317221982
  0
LINE
  8
0
 10
21.00037703851221
 20
-9.156224317221982
 11
21.380619478616435
 21
-9.064747854403196
  0
LINE
  8
0
 10
21.380619478616435
 20
-9.064747854403196
 11
21.994157754358145
 21
-9.177584284454865
  0
LINE
  8
0
 10
21.994157754358145
 20
-9.177584284454865
 11
22.799970758293757
 21
-9.540705945243404
  0
LINE
  8
0
 10
22.799970758293757
 20
-9.540705945243404
 11
22.84364037252676
 21
-9.566886479111622
  0
LINE
  8
0
 10
22.84364037252676
 20
-9.566886479111622
 11
22.95799019780296
 21
-9.606133672530976
  0
LINE
  8
0
 10
22.95799019780296
 20
-9.606133672530976
 11
23.389052315462067
 21
-9.705202724316674
  0
LINE
  8
0
 10
23.389052315462067
 20
-9.705202724316674
 11
24.097258608501264
 21
-9.791447780685832
  0
LINE
  8
0
 10
24.097258608501264
 20
-9.791447780685832
 11
25.081702074424918
 21
-9.807656241981764
  0
LINE
  8
0
 10
25.081702074424918
 20
-9.807656241981764
 11
26.204401541352997
 21
-9.708312477435578
  0
LINE
  8
0
 10
0.3118675362266391
 20
-1.4672214011007085
 11
9.18454765366783e-17
 21
-1.5
  0
LINE
  8
0
 10
9.18454765366783e-17
 20
-1.5
 11
-0.3118675362266384
 21
-1.4672214011007085
  0
LINE
  8
0
 10
-0.3118675362266384
 20
-1.4672214011007085
 11
-0.6101049646137001
 21
-1.3703181864639014
  0
LINE
  8
0
 10
-0.6101049646137001
 20
-1.3703181864639014
 11
-0.8816778784387099
 21
-1.213525491562421
  0
LINE
  8
0
 10
-0.8816778784387099
 20
-1.213525491562421
 11
-1.114717238216091
 21
-1.0036959095382878
  0
LINE
  8
0
 10
-1.114717238216091
 20
-1.0036959095382878
 11
-1.299038105676658
 21
-0.7500000000000003
  0
LINE
  8
0
 10
-1.299038105676658
 20
-0.7500000000000003
 11
-1.4265847744427305
 21
-0.46352549156242095
  0
LINE
  8
0
 10
-1.4265847744427305
 20
-0.46352549156242095
 11
-1.49178284305241
 21
-0.15679269490147957
  0
LINE
  8
0
 10
-1.49178284305241
 20
-0.15679269490147957
 11
-1.4917828430524098
 21
0.15679269490148126
  0
LINE
  8
0
 10
-1.4917828430524098
 20
0.15679269490148126
 11
-1.4265847744427302
 21
0.46352549156242123
  0
LINE
  8
0
 10
-1.4265847744427302
 20
0.46352549156242123
 11
-1.2990381056766576
 21
0.7500000000000006
  0
LINE
  8
0
 10
-1.2990381056766576
 20
0.7500000000000006
 11
-1.114717238216091
 21
1.0036959095382878
  0
LINE
  8
0
 10
-1.114717238216091
 20
1.0036959095382878
 11
-0.8816778784387097
 21
1.2135254915624214
  0
LINE
  8
0
 10
-0.8816778784387097
 20
1.2135254915624214
 11
-0.6101049646137005
 21
1.3703181864639014
  0
LINE
  8
0
 10
-0.6101049646137005
 20
1.3703181864639014
 11
-0.3118675362266387
 21
1.4672214011007085
  0
LINE
  8
0
 10
-0.3118675362266387
 20
1.4672214011007085
 11
7.579792913117722e-16
 21
1.5
  0
LINE
  8
0
 10
7.579792913117722e-16
 20
1.5
 11
0.3118675362266389
 21
1.4672214011007085
  0
LINE
  8
0
 10
0.3118675362266389
 20
1.4672214011007085
 11
0.6101049646136999
 21
1.3703181864639014
  0
LINE
  8
0
 10
0.6101049646136999
 20
1.3703181864639014
 11
0.8816778784387097
 21
1.213525491562421
  0
LINE
  8
0
 10
0.8816778784387097
 20
1.213525491562421
 11
1.1147172382160917
 21
1.003695909538287
  0
LINE
  8
0
 10
1.1147172382160917
 20
1.003695909538287
 11
1.299038105676658
 21
0.7499999999999998
  0
LINE
  8
0
 10
1.299038105676658
 20
0.7499999999999998
 11
1.4265847744427305
 21
0.4635254915624211
  0
LINE
  8
0
 10
1.4265847744427305
 20
0.4635254915624211
 11
1.49178284305241
 21
0.1567926949014801
  0
LINE
  8
0
 10
1.49178284305241
 20
0.1567926949014801
 11
1.4917828430524098
 21
-0.1567926949014801
  0
LINE
  8
0
 10
1.4917828430524098
 20
-0.1567926949014801
 11
1.4265847744427302
 21
-0.46352549156242107
  0
LINE
  8
0
 10
1.4265847744427302
 20
-0.46352549156242107
 11
1.299038105676658
 21
-0.7500000000000001
  0
LINE
  8
0
 10
1.299038105676658
 20
-0.7500000000000001
 11
1.1147172382160913
 21
-1.0036959095382874
  0
LINE
  8
0
 10
1.1147172382160913
 20
-1.0036959095382874
 11
0.8816778784387098
 21
-1.2135254915624212
  0
LINE
  8
0
 10
0.8816778784387098
 20
-1.2135254915624212
 11
0.6101049646137003
 21
-1.3703181864639014
  0
LINE
  8
0
 10
0.6101049646137003
 20
-1.3703181864639014
 11
0.3118675362266391
 21
-1.4672214011007085
  0
ENDSEC
  0
SECTION
  2
OBJECTS
  0
DICTIONARY
  0
ENDSEC
  0
EOF
