  0
SECTION
  2
BLOCKS
  0
ENDSEC
  0
SECTION
  2
ENTITIES
  0
LINE
  8
0
 10
20.653610670544996
 20
-9.743587672412339
 11
21.1737591965665
 21
-8.770458225639894
  0
LINE
  8
0
 10
21.1737591965665
 20
-8.770458225639894
 11
21.494065077377623
 21
-7.714551244880782
  0
LINE
  8
0
 10
21.494065077377623
 20
-7.714551244880782
 11
20.797240442997335
 21
-6.945879225301051
  0
LINE
  8
0
 10
20.797240442997335
 20
-6.945879225301051
 11
19.98187548305808
 21
-6.254234696546103
  0
LINE
  8
0
 10
19.98187548305808
 20
-6.254234696546103
 11
19.368220929035395
 21
-5.858659245216394
  0
LINE
  8
0
 10
19.368220929035395
 20
-5.858659245216394
 11
19.01473855489021
 21
-5.691518065348036
  0
LINE
  8
0
 10
19.01473855489021
 20
-5.691518065348036
 11
18.965316627212033
 21
-5.675644013157639
  0
LINE
  8
0
 10
18.965316627212033
 20
-5.675644013157639
 11
18.17608805438781
 21
-5.532121056104293
  0
LINE
  8
0
 10
18.17608805438781
 20
-5.532121056104293
 11
17.472910749660784
 21
-5.1962914281317
  0
LINE
  8
0
 10
17.472910749660784
 20
-5.1962914281317
 11
17.165416300924328
 21
-4.81708152736745
  0
LINE
  8
0
 10
17.165416300924328
 20
-4.81708152736745
 11
17.702194080335016
 21
-2.1185173984403765
  0
LINE
  8
0
 10
17.702194080335016
 20
-2.1185173984403765
 11
18.13139925429479
 21
-1.8858461636742423
  0
LINE
  8
0
 10
18.13139925429479
 20
-1.8858461636742423
 11
18.90956680858097
 21
-1.8446743485137505
  0
LINE
  8
0
 10
18.90956680858097
 20
-1.8446743485137505
 11
19.69364279131473
 21
-2.014101125215643
  0
LINE
  8
0
 10
19.69364279131473
 20
-2.014101125215643
 11
19.7453774355316
 21
-2.0183483662169093
  0
LINE
  8
0
 10
19.7453774355316
 20
-2.0183483662169093
 11
20.135914726509423
 21
-1.9992018993151865
  0
LINE
  8
0
 10
20.135914726509423
 20
-1.9992018993151865
 11
20.854237780477476
 21
-1.8685732672876374
  0
LINE
  8
0
 10
20.854237780477476
 20
-1.8685732672876374
 11
21.87221768073275
 21
-1.541603704897295
  0
LINE
  8
0
 10
21.87221768073275
 20
-1.541603704897295
 11
22.810157745002165
 21
-1.098106601634651
  0
LINE
  8
0
 10
22.810157745002165
 20
-1.098106601634651
 11
22.918311805232925
 21
-2.149418166021969e-15
  0
LINE
  8
0
 10
22.918311805232925
 20
-2.149418166021969e-15
 11
22.810157745002165
 21
1.0981066016346577
  0
LINE
  8
0
 10
22.810157745002165
 20
1.0981066016346577
 11
21.87221768073278
 21
1.541603704897287
  0
LINE
  8
0
 10
21.87221768073278
 20
1.541603704897287
 11
20.854237780477536
 21
1.8685732672876205
  0
LINE
  8
0
 10
20.854237780477536
 20
1.8685732672876205
 11
20.13591472650942
 21
1.9992018993151839
  0
LINE
  8
0
 10
20.13591472650942
 20
1.9992018993151839
 11
19.74537743553161
 21
2.0183483662169075
  0
LINE
  8
0
 10
19.74537743553161
 20
2.0183483662169075
 11
19.693642791314726
 21
2.0141011252156464
  0
LINE
  8
0
 10
19.693642791314726
 20
2.0141011252156464
 11
18.90956680858097
 21
1.8446743485137544
  0
LINE
  8
0
 10
18.90956680858097
 20
1.8446743485137544
 11
18.131399254294774
 21
1.8858461636743418
  0
LINE
  8
0
 10
18.131399254294774
 20
1.8858461636743418
 11
17.702194080335033
 21
2.1185173984403898
  0
LINE
  8
0
 10
17.702194080335033
 20
2.1185173984403898
 11
17.165416300924306
 21
4.817081527367455
  0
LINE
  8
0
 10
17.165416300924306
 20
4.817081527367455
 11
17.472910749660763
 21
5.196291428131798
  0
LINE
  8
0
 10
17.472910749660763
 20
5.196291428131798
 11
18.176088054387808
 21
5.5321210561042955
  0
LINE
  8
0
 10
18.176088054387808
 20
5.5321210561042955
 11
18.965316627212037
 21
5.675644013157643
  0
LINE
  8
0
 10
18.965316627212037
 20
5.675644013157643
 11
19.014738554890204
 21
5.69151806534803
  0
LINE
  8
0
 10
19.014738554890204
 20
5.69151806534803
 11
19.368220929035402
 21
5.858659245216393
  0
LINE
  8
0
 10
19.368220929035402
 20
5.858659245216393
 11
19.98187548305803
 21
6.254234696546062
  0
LINE
  8
0
 10
19.98187548305803
 20
6.254234696546062
 11
20.79724044299731
 21
6.945879225301031
  0
LINE
  8
0
 10
20.79724044299731
 20
6.945879225301031
 11
21.49406507737762
 21
7.714551244880785
  0
LINE
  8
0
 10
21.49406507737762
 20
7.714551244880785
 11
21.173759196566504
 21
8.77045822563989
  0
LINE
  8
0
 10
21.173759196566504
 20
8.77045822563989
 11
20.653610670544996
 21
9.74358767241235
  0
LINE
  8
0
 10
20.653610670544996
 20
9.74358767241235
 11
19.61734804872367
 21
9.794391445697395
  0
LINE
  8
0
 10
19.61734804872367
 20
9.794391445697395
 11
18.55173141995553
 21
9.70690788983565
  0
LINE
  8
0
 10
18.55173141995553
 20
9.70690788983565
 11
17.838098039393916
 21
9.55270267748637
  0
LINE
  8
0
 10
17.838098039393916
 20
9.55270267748637
 11
17.4699615939055
 21
9.420939555398824
  0
LINE
  8
0
 10
17.4699615939055
 20
9.420939555398824
 11
17.423790363756208
 21
9.397217625147013
  0
LINE
  8
0
 10
17.423790363756208
 20
9.397217625147013
 11
16.764235431817653
 21
8.940634805585193
  0
LINE
  8
0
 10
16.764235431817653
 20
8.940634805585193
 11
16.029546584005917
 21
8.680880772299007
  0
LINE
  8
0
 10
16.029546584005917
 20
8.680880772299007
 11
15.543973281803673
 21
8.731591254743718
  0
LINE
  8
0
 10
15.543973281803673
 20
8.731591254743718
 11
14.015359494584123
 21
11.019323457586374
  0
LINE
  8
0
 10
14.015359494584123
 20
11.019323457586374
 11
14.154329975721252
 21
11.487340754503865
  0
LINE
  8
0
 10
14.154329975721252
 20
11.487340754503865
 11
14.675464660562616
 21
12.066701178732716
  0
LINE
  8
0
 10
14.675464660562616
 20
12.066701178732716
 11
15.349692927639651
 21
12.501323800368777
  0
LINE
  8
0
 10
15.349692927639651
 20
12.501323800368777
 11
15.389278098301004
 21
12.534902465203471
  0
LINE
  8
0
 10
15.389278098301004
 20
12.534902465203471
 11
15.651891068475674
 21
12.824592628542085
  0
LINE
  8
0
 10
15.651891068475674
 20
12.824592628542085
 11
16.067453779495313
 21
13.424892122609327
  0
LINE
  8
0
 10
16.067453779495313
 20
13.424892122609327
 11
16.556071875269613
 21
14.375915007999245
  0
LINE
  8
0
 10
16.556071875269613
 20
14.375915007999245
 11
16.905695845907456
 21
15.3527385969443
  0
LINE
  8
0
 10
16.905695845907456
 20
15.3527385969443
 11
16.205693690827914
 21
16.205693690827907
  0
LINE
  8
0
 10
16.205693690827914
 20
16.205693690827907
 11
15.352738596944299
 21
16.90569584590746
  0
LINE
  8
0
 10
15.352738596944299
 20
16.90569584590746
 11
14.375915007999275
 21
16.556071875269623
  0
LINE
  8
0
 10
14.375915007999275
 20
16.556071875269623
 11
13.424892122609384
 21
16.067453779495338
  0
LINE
  8
0
 10
13.424892122609384
 20
16.067453779495338
 11
12.824592628542083
 21
15.651891068475665
  0
LINE
  8
0
 10
12.824592628542083
 20
15.651891068475665
 11
12.53490246520348
 21
15.389278098301006
  0
LINE
  8
0
 10
12.53490246520348
 20
15.389278098301006
 11
12.501323800368771
 21
15.349692927639648
  0
LINE
  8
0
 10
12.501323800368771
 20
15.349692927639648
 11
12.066701178732714
 21
14.675464660562616
  0
LINE
  8
0
 10
12.066701178732714
 20
14.675464660562616
 11
11.487340754503787
 21
14.154329975721307
  0
LINE
  8
0
 10
11.487340754503787
 20
14.154329975721307
 11
11.019323457586381
 21
14.015359494584143
  0
LINE
  8
0
 10
11.019323457586381
 20
14.015359494584143
 11
8.7315912547437
 21
15.543973281803659
  0
LINE
  8
0
 10
8.7315912547437
 20
15.543973281803659
 11
8.680880772298924
 21
16.02954658400597
  0
LINE
  8
0
 10
8.680880772298924
 20
16.02954658400597
 11
8.940634805585189
 21
16.76423543181765
  0
LINE
  8
0
 10
8.940634805585189
 20
16.76423543181765
 11
9.397217625147013
 21
17.423790363756215
  0
LINE
  8
0
 10
9.397217625147013
 20
17.423790363756215
 11
9.420939555398826
 21
17.469961593905484
  0
LINE
  8
0
 10
9.420939555398826
 20
17.469961593905484
 11
9.552702677486376
 21
17.83809803939392
  0
LINE
  8
0
 10
9.552702677486376
 20
17.83809803939392
 11
9.706907889835643
 21
18.551731419955463
  0
LINE
  8
0
 10
9.706907889835643
 20
18.551731419955463
 11
9.794391445697395
 21
19.61734804872364
  0
LINE
  8
0
 10
9.794391445697395
 20
19.61734804872364
 11
9.743587672412346
 21
20.653610670544992
  0
LINE
  8
0
 10
9.743587672412346
 20
20.653610670544992
 11
8.770458225639896
 21
21.1737591965665
  0
LINE
  8
0
 10
8.770458225639896
 20
21.1737591965665
 11
7.7145512448807825
 21
21.494065077377623
  0
LINE
  8
0
 10
7.7145512448807825
 20
21.494065077377623
 11
6.945879225301052
 21
20.797240442997335
  0
LINE
  8
0
 10
6.945879225301052
 20
20.797240442997335
 11
6.254234696546104
 21
19.98187548305808
  0
LINE
  8
0
 10
6.254234696546104
 20
19.98187548305808
 11
5.858659245216395
 21
19.368220929035395
  0
LINE
  8
0
 10
5.858659245216395
 20
19.368220929035395
 11
5.691518065348037
 21
19.01473855489021
  0
LINE
  8
0
 10
5.691518065348037
 20
19.01473855489021
 11
5.6756440131576396
 21
18.965316627212033
  0
LINE
  8
0
 10
5.6756440131576396
 20
18.965316627212033
 11
5.532121056104294
 21
18.17608805438781
  0
LINE
  8
0
 10
5.532121056104294
 20
18.17608805438781
 11
5.196291428131701
 21
17.472910749660784
  0
LINE
  8
0
 10
5.196291428131701
 20
17.472910749660784
 11
4.817081527367451
 21
17.165416300924328
  0
LINE
  8
0
 10
4.817081527367451
 20
17.165416300924328
 11
2.1185173984403773
 21
17.702194080335016
  0
LINE
  8
0
 10
2.1185173984403773
 20
17.702194080335016
 11
1.8858461636742434
 21
18.13139925429479
  0
LINE
  8
0
 10
1.8858461636742434
 20
18.13139925429479
 11
1.8446743485137516
 21
18.90956680858097
  0
LINE
  8
0
 10
1.8446743485137516
 20
18.90956680858097
 11
2.014101125215644
 21
19.69364279131473
  0
LINE
  8
0
 10
2.014101125215644
 20
19.69364279131473
 11
2.0183483662169106
 21
19.7453774355316
  0
LINE
  8
0
 10
2.0183483662169106
 20
19.7453774355316
 11
1.9992018993151879
 21
20.135914726509423
  0
LINE
  8
0
 10
1.9992018993151879
 20
20.135914726509423
 11
1.8685732672876387
 21
20.854237780477476
  0
LINE
  8
0
 10
1.8685732672876387
 20
20.854237780477476
 11
1.5416037048972964
 21
21.87221768073275
  0
LINE
  8
0
 10
1.5416037048972964
 20
21.87221768073275
 11
1.0981066016346523
 21
22.810157745002165
  0
LINE
  8
0
 10
1.0981066016346523
 20
22.810157745002165
 11
2.149418166021969e-15
 21
22.918311805232925
  0
LINE
  8
0
 10
2.149418166021969e-15
 20
22.918311805232925
 11
-1.098106601634656
 21
22.810157745002165
  0
LINE
  8
0
 10
-1.098106601634656
 20
22.810157745002165
 11
-1.5416037048972862
 21
21.872217680732778
  0
LINE
  8
0
 10
-1.5416037048972862
 20
21.872217680732778
 11
-1.8685732672876196
 21
20.854237780477536
  0
LINE
  8
0
 10
-1.8685732672876196
 20
20.854237780477536
 11
-1.999201899315182
 21
20.135914726509416
  0
LINE
  8
0
 10
-1.999201899315182
 20
20.135914726509416
 11
-2.0183483662169066
 21
19.74537743553161
  0
LINE
  8
0
 10
-2.0183483662169066
 20
19.74537743553161
 11
-2.0141011252156455
 21
19.693642791314726
  0
LINE
  8
0
 10
-2.0141011252156455
 20
19.693642791314726
 11
-1.8446743485137536
 21
18.90956680858097
  0
LINE
  8
0
 10
-1.8446743485137536
 20
18.90956680858097
 11
-1.8858461636743409
 21
18.131399254294774
  0
LINE
  8
0
 10
-1.8858461636743409
 20
18.131399254294774
 11
-2.118517398440389
 21
17.702194080335033
  0
LINE
  8
0
 10
-2.118517398440389
 20
17.702194080335033
 11
-4.817081527367454
 21
17.165416300924306
  0
LINE
  8
0
 10
-4.817081527367454
 20
17.165416300924306
 11
-5.196291428131797
 21
17.472910749660763
  0
LINE
  8
0
 10
-5.196291428131797
 20
17.472910749660763
 11
-5.532121056104295
 21
18.176088054387808
  0
LINE
  8
0
 10
-5.532121056104295
 20
18.176088054387808
 11
-5.675644013157642
 21
18.965316627212037
  0
LINE
  8
0
 10
-5.675644013157642
 20
18.965316627212037
 11
-5.691518065348029
 21
19.014738554890204
  0
LINE
  8
0
 10
-5.691518065348029
 20
19.014738554890204
 11
-5.8586592452163915
 21
19.368220929035402
  0
LINE
  8
0
 10
-5.8586592452163915
 20
19.368220929035402
 11
-6.254234696546061
 21
19.98187548305803
  0
LINE
  8
0
 10
-6.254234696546061
 20
19.98187548305803
 11
-6.945879225301029
 21
20.79724044299731
  0
LINE
  8
0
 10
-6.945879225301029
 20
20.79724044299731
 11
-7.714551244880783
 21
21.49406507737762
  0
LINE
  8
0
 10
-7.714551244880783
 20
21.49406507737762
 11
-8.77045822563989
 21
21.173759196566504
  0
LINE
  8
0
 10
-8.77045822563989
 20
21.173759196566504
 11
-9.74358767241235
 21
20.653610670544996
  0
LINE
  8
0
 10
-9.74358767241235
 20
20.653610670544996
 11
-9.794391445697395
 21
19.61734804872367
  0
LINE
  8
0
 10
-9.794391445697395
 20
19.61734804872367
 11
-9.70690788983565
 21
18.55173141995553
  0
LINE
  8
0
 10
-9.70690788983565
 20
18.55173141995553
 11
-9.55270267748637
 21
17.838098039393916
  0
LINE
  8
0
 10
-9.55270267748637
 20
17.838098039393916
 11
-9.420939555398824
 21
17.4699615939055
  0
LINE
  8
0
 10
-9.420939555398824
 20
17.4699615939055
 11
-9.397217625147013
 21
17.423790363756208
  0
LINE
  8
0
 10
-9.397217625147013
 20
17.423790363756208
 11
-8.940634805585193
 21
16.764235431817653
  0
LINE
  8
0
 10
-8.940634805585193
 20
16.764235431817653
 11
-8.680880772299007
 21
16.029546584005917
  0
LINE
  8
0
 10
-8.680880772299007
 20
16.029546584005917
 11
-8.731591254743718
 21
15.543973281803673
  0
LINE
  8
0
 10
-8.731591254743718
 20
15.543973281803673
 11
-11.019323457586374
 21
14.015359494584123
  0
LINE
  8
0
 10
-11.019323457586374
 20
14.015359494584123
 11
-11.487340754503865
 21
14.154329975721252
  0
LINE
  8
0
 10
-11.487340754503865
 20
14.154329975721252
 11
-12.066701178732716
 21
14.675464660562616
  0
LINE
  8
0
 10
-12.066701178732716
 20
14.675464660562616
 11
-12.501323800368777
 21
15.349692927639651
  0
LINE
  8
0
 10
-12.501323800368777
 20
15.349692927639651
 11
-12.534902465203471
 21
15.389278098301004
  0
LINE
  8
0
 10
-12.534902465203471
 20
15.389278098301004
 11
-12.824592628542085
 21
15.651891068475674
  0
LINE
  8
0
 10
-12.824592628542085
 20
15.651891068475674
 11
-13.424892122609327
 21
16.067453779495313
  0
LINE
  8
0
 10
-13.424892122609327
 20
16.067453779495313
 11
-14.375915007999245
 21
16.556071875269613
  0
LINE
  8
0
 10
-14.375915007999245
 20
16.556071875269613
 11
-15.3527385969443
 21
16.905695845907456
  0
LINE
  8
0
 10
-15.3527385969443
 20
16.905695845907456
 11
-16.20569369082791
 21
16.205693690827903
  0
LINE
  8
0
 10
-16.20569369082791
 20
16.205693690827903
 11
-16.905695845907463
 21
15.352738596944294
  0
LINE
  8
0
 10
-16.905695845907463
 20
15.352738596944294
 11
-16.55607187526963
 21
14.375915007999266
  0
LINE
  8
0
 10
-16.55607187526963
 20
14.375915007999266
 11
-16.067453779495345
 21
13.424892122609377
  0
LINE
  8
0
 10
-16.067453779495345
 20
13.424892122609377
 11
-15.651891068475667
 21
12.824592628542076
  0
LINE
  8
0
 10
-15.651891068475667
 20
12.824592628542076
 11
-15.389278098301011
 21
12.534902465203475
  0
LINE
  8
0
 10
-15.389278098301011
 20
12.534902465203475
 11
-15.349692927639651
 21
12.501323800368764
  0
LINE
  8
0
 10
-15.349692927639651
 20
12.501323800368764
 11
-14.675464660562621
 21
12.066701178732709
  0
LINE
  8
0
 10
-14.675464660562621
 20
12.066701178732709
 11
-14.154329975721312
 21
11.48734075450378
  0
LINE
  8
0
 10
-14.154329975721312
 20
11.48734075450378
 11
-14.015359494584148
 21
11.019323457586374
  0
LINE
  8
0
 10
-14.015359494584148
 20
11.019323457586374
 11
-15.543973281803659
 21
8.731591254743693
  0
LINE
  8
0
 10
-15.543973281803659
 20
8.731591254743693
 11
-16.02954658400597
 21
8.680880772298917
  0
LINE
  8
0
 10
-16.02954658400597
 20
8.680880772298917
 11
-16.764235431817653
 21
8.940634805585182
  0
LINE
  8
0
 10
-16.764235431817653
 20
8.940634805585182
 11
-17.423790363756215
 21
9.397217625147006
  0
LINE
  8
0
 10
-17.423790363756215
 20
9.397217625147006
 11
-17.46996159390549
 21
9.420939555398817
  0
LINE
  8
0
 10
-17.46996159390549
 20
9.420939555398817
 11
-17.83809803939392
 21
9.552702677486367
  0
LINE
  8
0
 10
-17.83809803939392
 20
9.552702677486367
 11
-18.551731419955463
 21
9.706907889835636
  0
LINE
  8
0
 10
-18.551731419955463
 20
9.706907889835636
 11
-19.61734804872364
 21
9.794391445697384
  0
LINE
  8
0
 10
-19.61734804872364
 20
9.794391445697384
 11
-20.653610670544996
 21
9.743587672412337
  0
LINE
  8
0
 10
-20.653610670544996
 20
9.743587672412337
 11
-21.1737591965665
 21
8.770458225639896
  0
LINE
  8
0
 10
-21.1737591965665
 20
8.770458225639896
 11
-21.494065077377623
 21
7.714551244880784
  0
LINE
  8
0
 10
-21.494065077377623
 20
7.714551244880784
 11
-20.797240442997335
 21
6.945879225301054
  0
LINE
  8
0
 10
-20.797240442997335
 20
6.945879225301054
 11
-19.98187548305808
 21
6.2542346965461055
  0
LINE
  8
0
 10
-19.98187548305808
 20
6.2542346965461055
 11
-19.368220929035395
 21
5.858659245216397
  0
LINE
  8
0
 10
-19.368220929035395
 20
5.858659245216397
 11
-19.01473855489021
 21
5.691518065348038
  0
LINE
  8
0
 10
-19.01473855489021
 20
5.691518065348038
 11
-18.965316627212033
 21
5.675644013157641
  0
LINE
  8
0
 10
-18.965316627212033
 20
5.675644013157641
 11
-18.17608805438781
 21
5.5321210561042955
  0
LINE
  8
0
 10
-18.17608805438781
 20
5.5321210561042955
 11
-17.472910749660784
 21
5.196291428131702
  0
LINE
  8
0
 10
-17.472910749660784
 20
5.196291428131702
 11
-17.165416300924328
 21
4.817081527367452
  0
LINE
  8
0
 10
-17.165416300924328
 20
4.817081527367452
 11
-17.702194080335016
 21
2.1185173984403787
  0
LINE
  8
0
 10
-17.702194080335016
 20
2.1185173984403787
 11
-18.13139925429479
 21
1.8858461636742445
  0
LINE
  8
0
 10
-18.13139925429479
 20
1.8858461636742445
 11
-18.90956680858097
 21
1.8446743485137527
  0
LINE
  8
0
 10
-18.90956680858097
 20
1.8446743485137527
 11
-19.69364279131473
 21
2.014101125215645
  0
LINE
  8
0
 10
-19.69364279131473
 20
2.014101125215645
 11
-19.7453774355316
 21
2.0183483662169115
  0
LINE
  8
0
 10
-19.7453774355316
 20
2.0183483662169115
 11
-20.135914726509423
 21
1.999201899315189
  0
LINE
  8
0
 10
-20.135914726509423
 20
1.999201899315189
 11
-20.854237780477476
 21
1.86857326728764
  0
LINE
  8
0
 10
-20.854237780477476
 20
1.86857326728764
 11
-21.87221768073275
 21
1.5416037048972977
  0
LINE
  8
0
 10
-21.87221768073275
 20
1.5416037048972977
 11
-22.810157745002165
 21
1.098106601634654
  0
LINE
  8
0
 10
-22.810157745002165
 20
1.098106601634654
 11
-22.91831180523293
 21
3.9257750054222194e-15
  0
LINE
  8
0
 10
-22.91831180523293
 20
3.9257750054222194e-15
 11
-22.81015774500217
 21
-1.0981066016346532
  0
LINE
  8
0
 10
-22.81015774500217
 20
-1.0981066016346532
 11
-21.87221768073278
 21
-1.5416037048972844
  0
LINE
  8
0
 10
-21.87221768073278
 20
-1.5416037048972844
 11
-20.85423778047754
 21
-1.868573267287617
  0
LINE
  8
0
 10
-20.85423778047754
 20
-1.868573267287617
 11
-20.135914726509416
 21
-1.9992018993151803
  0
LINE
  8
0
 10
-20.135914726509416
 20
-1.9992018993151803
 11
-19.745377435531612
 21
-2.018348366216904
  0
LINE
  8
0
 10
-19.745377435531612
 20
-2.018348366216904
 11
-19.693642791314726
 21
-2.0141011252156447
  0
LINE
  8
0
 10
-19.693642791314726
 20
-2.0141011252156447
 11
-18.909566808580973
 21
-1.8446743485137518
  0
LINE
  8
0
 10
-18.909566808580973
 20
-1.8446743485137518
 11
-18.131399254294777
 21
-1.885846163674339
  0
LINE
  8
0
 10
-18.131399254294777
 20
-1.885846163674339
 11
-17.702194080335037
 21
-2.118517398440387
  0
LINE
  8
0
 10
-17.702194080335037
 20
-2.118517398440387
 11
-17.165416300924306
 21
-4.817081527367453
  0
LINE
  8
0
 10
-17.165416300924306
 20
-4.817081527367453
 11
-17.472910749660763
 21
-5.1962914281317945
  0
LINE
  8
0
 10
-17.472910749660763
 20
-5.1962914281317945
 11
-18.17608805438781
 21
-5.532121056104294
  0
LINE
  8
0
 10
-18.17608805438781
 20
-5.532121056104294
 11
-18.965316627212037
 21
-5.675644013157641
  0
LINE
  8
0
 10
-18.965316627212037
 20
-5.675644013157641
 11
-19.014738554890208
 21
-5.691518065348027
  0
LINE
  8
0
 10
-19.014738554890208
 20
-5.691518065348027
 11
-19.368220929035402
 21
-5.85865924521639
  0
LINE
  8
0
 10
-19.368220929035402
 20
-5.85865924521639
 11
-19.98187548305803
 21
-6.254234696546059
  0
LINE
  8
0
 10
-19.98187548305803
 20
-6.254234696546059
 11
-20.79724044299731
 21
-6.945879225301029
  0
LINE
  8
0
 10
-20.79724044299731
 20
-6.945879225301029
 11
-21.494065077377623
 21
-7.714551244880782
  0
LINE
  8
0
 10
-21.494065077377623
 20
-7.714551244880782
 11
-21.173759196566504
 21
-8.77045822563989
  0
LINE
  8
0
 10
-21.173759196566504
 20
-8.77045822563989
 11
-20.653610670545
 21
-9.743587672412348
  0
LINE
  8
0
 10
-20.653610670545
 20
-9.743587672412348
 11
-19.617348048723674
 21
-9.794391445697395
  0
LINE
  8
0
 10
-19.617348048723674
 20
-9.794391445697395
 11
-18.55173141995553
 21
-9.70690788983565
  0
LINE
  8
0
 10
-18.55173141995553
 20
-9.70690788983565
 11
-17.838098039393916
 21
-9.552702677486367
  0
LINE
  8
0
 10
-17.838098039393916
 20
-9.552702677486367
 11
-17.469961593905502
 21
-9.420939555398824
  0
LINE
  8
0
 10
-17.469961593905502
 20
-9.420939555398824
 11
-17.42379036375621
 21
-9.397217625147013
  0
LINE
  8
0
 10
-17.42379036375621
 20
-9.397217625147013
 11
-16.764235431817657
 21
-8.940634805585193
  0
LINE
  8
0
 10
-16.764235431817657
 20
-8.940634805585193
 11
-16.02954658400592
 21
-8.680880772299007
  0
LINE
  8
0
 10
-16.02954658400592
 20
-8.680880772299007
 11
-15.543973281803673
 21
-8.731591254743718
  0
LINE
  8
0
 10
-15.543973281803673
 20
-8.731591254743718
 11
-14.015359494584125
 21
-11.019323457586374
  0
LINE
  8
0
 10
-14.015359494584125
 20
-11.019323457586374
 11
-14.154329975721254
 21
-11.487340754503863
  0
LINE
  8
0
 10
-14.154329975721254
 20
-11.487340754503863
 11
-14.675464660562618
 21
-12.066701178732716
  0
LINE
  8
0
 10
-14.675464660562618
 20
-12.066701178732716
 11
-15.349692927639655
 21
-12.501323800368777
  0
LINE
  8
0
 10
-15.349692927639655
 20
-12.501323800368777
 11
-15.389278098301007
 21
-12.534902465203471
  0
LINE
  8
0
 10
-15.389278098301007
 20
-12.534902465203471
 11
-15.651891068475676
 21
-12.824592628542085
  0
LINE
  8
0
 10
-15.651891068475676
 20
-12.824592628542085
 11
-16.067453779495317
 21
-13.424892122609327
  0
LINE
  8
0
 10
-16.067453779495317
 20
-13.424892122609327
 11
-16.556071875269616
 21
-14.375915007999245
  0
LINE
  8
0
 10
-16.556071875269616
 20
-14.375915007999245
 11
-16.90569584590746
 21
-15.3527385969443
  0
LINE
  8
0
 10
-16.90569584590746
 20
-15.3527385969443
 11
-16.205693690827907
 21
-16.20569369082791
  0
LINE
  8
0
 10
-16.205693690827907
 20
-16.20569369082791
 11
-15.352738596944294
 21
-16.905695845907463
  0
LINE
  8
0
 10
-15.352738596944294
 20
-16.905695845907463
 11
-14.37591500799927
 21
-16.55607187526963
  0
LINE
  8
0
 10
-14.37591500799927
 20
-16.55607187526963
 11
-13.42489212260938
 21
-16.067453779495345
  0
LINE
  8
0
 10
-13.42489212260938
 20
-16.067453779495345
 11
-12.824592628542078
 21
-15.651891068475667
  0
LINE
  8
0
 10
-12.824592628542078
 20
-15.651891068475667
 11
-12.534902465203475
 21
-15.38927809830101
  0
LINE
  8
0
 10
-12.534902465203475
 20
-15.38927809830101
 11
-12.501323800368764
 21
-15.349692927639651
  0
LINE
  8
0
 10
-12.501323800368764
 20
-15.349692927639651
 11
-12.066701178732709
 21
-14.675464660562621
  0
LINE
  8
0
 10
-12.066701178732709
 20
-14.675464660562621
 11
-11.48734075450378
 21
-14.154329975721312
  0
LINE
  8
0
 10
-11.48734075450378
 20
-14.154329975721312
 11
-11.019323457586376
 21
-14.015359494584148
  0
LINE
  8
0
 10
-11.019323457586376
 20
-14.015359494584148
 11
-8.731591254743694
 21
-15.543973281803659
  0
LINE
  8
0
 10
-8.731591254743694
 20
-15.543973281803659
 11
-8.680880772298917
 21
-16.02954658400597
  0
LINE
  8
0
 10
-8.680880772298917
 20
-16.02954658400597
 11
-8.940634805585182
 21
-16.764235431817653
  0
LINE
  8
0
 10
-8.940634805585182
 20
-16.764235431817653
 11
-9.397217625147007
 21
-17.423790363756215
  0
LINE
  8
0
 10
-9.397217625147007
 20
-17.423790363756215
 11
-9.420939555398819
 21
-17.46996159390549
  0
LINE
  8
0
 10
-9.420939555398819
 20
-17.46996159390549
 11
-9.55270267748637
 21
-17.83809803939392
  0
LINE
  8
0
 10
-9.55270267748637
 20
-17.83809803939392
 11
-9.706907889835636
 21
-18.551731419955463
  0
LINE
  8
0
 10
-9.706907889835636
 20
-18.551731419955463
 11
-9.794391445697388
 21
-19.61734804872364
  0
LINE
  8
0
 10
-9.794391445697388
 20
-19.61734804872364
 11
-9.743587672412337
 21
-20.653610670544996
  0
LINE
  8
0
 10
-9.743587672412337
 20
-20.653610670544996
 11
-8.770458225639898
 21
-21.1737591965665
  0
LINE
  8
0
 10
-8.770458225639898
 20
-21.1737591965665
 11
-7.714551244880785
 21
-21.494065077377623
  0
LINE
  8
0
 10
-7.714551244880785
 20
-21.494065077377623
 11
-6.945879225301055
 21
-20.797240442997335
  0
LINE
  8
0
 10
-6.945879225301055
 20
-20.797240442997335
 11
-6.254234696546106
 21
-19.98187548305808
  0
LINE
  8
0
 10
-6.254234696546106
 20
-19.98187548305808
 11
-5.858659245216398
 21
-19.368220929035395
  0
LINE
  8
0
 10
-5.858659245216398
 20
-19.368220929035395
 11
-5.691518065348039
 21
-19.01473855489021
  0
LINE
  8
0
 10
-5.691518065348039
 20
-19.01473855489021
 11
-5.675644013157642
 21
-18.965316627212033
  0
LINE
  8
0
 10
-5.675644013157642
 20
-18.965316627212033
 11
-5.532121056104296
 21
-18.17608805438781
  0
LINE
  8
0
 10
-5.532121056104296
 20
-18.17608805438781
 11
-5.196291428131704
 21
-17.472910749660784
  0
LINE
  8
0
 10
-5.196291428131704
 20
-17.472910749660784
 11
-4.817081527367454
 21
-17.165416300924328
  0
LINE
  8
0
 10
-4.817081527367454
 20
-17.165416300924328
 11
-2.1185173984403796
 21
-17.702194080335016
  0
LINE
  8
0
 10
-2.1185173984403796
 20
-17.702194080335016
 11
-1.8858461636742456
 21
-18.13139925429479
  0
LINE
  8
0
 10
-1.8858461636742456
 20
-18.13139925429479
 11
-1.844674348513754
 21
-18.90956680858097
  0
LINE
  8
0
 10
-1.844674348513754
 20
-18.90956680858097
 11
-2.0141011252156464
 21
-19.69364279131473
  0
LINE
  8
0
 10
-2.0141011252156464
 20
-19.69364279131473
 11
-2.018348366216913
 21
-19.7453774355316
  0
LINE
  8
0
 10
-2.018348366216913
 20
-19.7453774355316
 11
-1.9992018993151903
 21
-20.135914726509423
  0
LINE
  8
0
 10
-1.9992018993151903
 20
-20.135914726509423
 11
-1.8685732672876412
 21
-20.854237780477476
  0
LINE
  8
0
 10
-1.8685732672876412
 20
-20.854237780477476
 11
-1.541603704897299
 21
-21.87221768073275
  0
LINE
  8
0
 10
-1.541603704897299
 20
-21.87221768073275
 11
-1.0981066016346552
 21
-22.810157745002165
  0
LINE
  8
0
 10
-1.0981066016346552
 20
-22.810157745002165
 11
4.956009191579033e-15
 21
-22.91831180523293
  0
LINE
  8
0
 10
4.956009191579033e-15
 20
-22.91831180523293
 11
1.0981066016346621
 21
-22.81015774500217
  0
LINE
  8
0
 10
1.0981066016346621
 20
-22.81015774500217
 11
1.5416037048972924
 21
-21.87221768073278
  0
LINE
  8
0
 10
1.5416037048972924
 20
-21.87221768073278
 11
1.868573267287625
 21
-20.85423778047754
  0
LINE
  8
0
 10
1.868573267287625
 20
-20.85423778047754
 11
1.9992018993151883
 21
-20.135914726509416
  0
LINE
  8
0
 10
1.9992018993151883
 20
-20.135914726509416
 11
2.018348366216912
 21
-19.74537743553161
  0
LINE
  8
0
 10
2.018348366216912
 20
-19.74537743553161
 11
2.0141011252156518
 21
-19.693642791314723
  0
LINE
  8
0
 10
2.0141011252156518
 20
-19.693642791314723
 11
1.8446743485137598
 21
-18.909566808580973
  0
LINE
  8
0
 10
1.8446743485137598
 20
-18.909566808580973
 11
1.8858461636743453
 21
-18.131399254294774
  0
LINE
  8
0
 10
1.8858461636743453
 20
-18.131399254294774
 11
2.118517398440394
 21
-17.702194080335033
  0
LINE
  8
0
 10
2.118517398440394
 20
-17.702194080335033
 11
4.817081527367459
 21
-17.165416300924303
  0
LINE
  8
0
 10
4.817081527367459
 20
-17.165416300924303
 11
5.196291428131802
 21
-17.47291074966076
  0
LINE
  8
0
 10
5.196291428131802
 20
-17.47291074966076
 11
5.5321210561043
 21
-18.176088054387808
  0
LINE
  8
0
 10
5.5321210561043
 20
-18.176088054387808
 11
5.675644013157648
 21
-18.965316627212033
  0
LINE
  8
0
 10
5.675644013157648
 20
-18.965316627212033
 11
5.691518065348035
 21
-19.014738554890204
  0
LINE
  8
0
 10
5.691518065348035
 20
-19.014738554890204
 11
5.858659245216398
 21
-19.368220929035402
  0
LINE
  8
0
 10
5.858659245216398
 20
-19.368220929035402
 11
6.2542346965460665
 21
-19.981875483058026
  0
LINE
  8
0
 10
6.2542346965460665
 20
-19.981875483058026
 11
6.945879225301036
 21
-20.797240442997307
  0
LINE
  8
0
 10
6.945879225301036
 20
-20.797240442997307
 11
7.714551244880791
 21
-21.494065077377616
  0
LINE
  8
0
 10
7.714551244880791
 20
-21.494065077377616
 11
8.770458225639908
 21
-21.173759196566497
  0
LINE
  8
0
 10
8.770458225639908
 20
-21.173759196566497
 11
9.743587672412364
 21
-20.653610670544985
  0
LINE
  8
0
 10
9.743587672412364
 20
-20.653610670544985
 11
9.794391445697412
 21
-19.617348048723663
  0
LINE
  8
0
 10
9.794391445697412
 20
-19.617348048723663
 11
9.706907889835664
 21
-18.55173141995552
  0
LINE
  8
0
 10
9.706907889835664
 20
-18.55173141995552
 11
9.552702677486383
 21
-17.83809803939391
  0
LINE
  8
0
 10
9.552702677486383
 20
-17.83809803939391
 11
9.420939555398839
 21
-17.46996159390549
  0
LINE
  8
0
 10
9.420939555398839
 20
-17.46996159390549
 11
9.397217625147027
 21
-17.4237903637562
  0
LINE
  8
0
 10
9.397217625147027
 20
-17.4237903637562
 11
8.940634805585205
 21
-16.764235431817646
  0
LINE
  8
0
 10
8.940634805585205
 20
-16.764235431817646
 11
8.68088077229902
 21
-16.02954658400591
  0
LINE
  8
0
 10
8.68088077229902
 20
-16.02954658400591
 11
8.731591254743732
 21
-15.543973281803664
  0
LINE
  8
0
 10
8.731591254743732
 20
-15.543973281803664
 11
11.019323457586385
 21
-14.015359494584116
  0
LINE
  8
0
 10
11.019323457586385
 20
-14.015359494584116
 11
11.487340754503874
 21
-14.154329975721243
  0
LINE
  8
0
 10
11.487340754503874
 20
-14.154329975721243
 11
12.066701178732727
 21
-14.675464660562607
  0
LINE
  8
0
 10
12.066701178732727
 20
-14.675464660562607
 11
12.501323800368787
 21
-15.349692927639643
  0
LINE
  8
0
 10
12.501323800368787
 20
-15.349692927639643
 11
12.534902465203482
 21
-15.389278098300995
  0
LINE
  8
0
 10
12.534902465203482
 20
-15.389278098300995
 11
12.824592628542096
 21
-15.651891068475665
  0
LINE
  8
0
 10
12.824592628542096
 20
-15.651891068475665
 11
13.42489212260934
 21
-16.067453779495303
  0
LINE
  8
0
 10
13.42489212260934
 20
-16.067453779495303
 11
14.375915007999257
 21
-16.556071875269602
  0
LINE
  8
0
 10
14.375915007999257
 20
-16.556071875269602
 11
15.352738596944315
 21
-16.905695845907445
  0
LINE
  8
0
 10
15.352738596944315
 20
-16.905695845907445
 11
16.20569369082791
 21
-16.205693690827907
  0
LINE
  8
0
 10
16.20569369082791
 20
-16.205693690827907
 11
16.905695845907463
 21
-15.352738596944294
  0
LINE
  8
0
 10
16.905695845907463
 20
-15.352738596944294
 11
16.55607187526963
 21
-14.37591500799927
  0
LINE
  8
0
 10
16.55607187526963
 20
-14.37591500799927
 11
16.067453779495345
 21
-13.42489212260938
  0
LINE
  8
0
 10
16.067453779495345
 20
-13.42489212260938
 11
15.651891068475667
 21
-12.82459262854208
  0
LINE
  8
0
 10
15.651891068475667
 20
-12.82459262854208
 11
15.38927809830101
 21
-12.534902465203475
  0
LINE
  8
0
 10
15.38927809830101
 20
-12.534902465203475
 11
15.34969292763965
 21
-12.501323800368766
  0
LINE
  8
0
 10
15.34969292763965
 20
-12.501323800368766
 11
14.675464660562621
 21
-12.06670117873271
  0
LINE
  8
0
 10
14.675464660562621
 20
-12.06670117873271
 11
14.15432997572131
 21
-11.487340754503782
  0
LINE
  8
0
 10
14.15432997572131
 20
-11.487340754503782
 11
14.015359494584148
 21
-11.019323457586378
  0
LINE
  8
0
 10
14.015359494584148
 20
-11.019323457586378
 11
15.543973281803659
 21
-8.731591254743696
  0
LINE
  8
0
 10
15.543973281803659
 20
-8.731591254743696
 11
16.02954658400597
 21
-8.680880772298918
  0
LINE
  8
0
 10
16.02954658400597
 20
-8.680880772298918
 11
16.764235431817653
 21
-8.940634805585184
  0
LINE
  8
0
 10
16.764235431817653
 20
-8.940634805585184
 11
17.423790363756215
 21
-9.39721762514701
  0
LINE
  8
0
 10
17.423790363756215
 20
-9.39721762514701
 11
17.46996159390549
 21
-9.42093955539882
  0
LINE
  8
0
 10
17.46996159390549
 20
-9.42093955539882
 11
17.83809803939392
 21
-9.552702677486371
  0
LINE
  8
0
 10
17.83809803939392
 20
-9.552702677486371
 11
18.551731419955463
 21
-9.706907889835637
  0
LINE
  8
0
 10
18.551731419955463
 20
-9.706907889835637
 11
19.61734804872364
 21
-9.794391445697388
  0
LINE
  8
0
 10
19.61734804872364
 20
-9.794391445697388
 11
20.653610670544996
 21
-9.743587672412339
  0
LINE
  8
0
 10
0.3118675362266391
 20
-1.4672214011007085
 11
9.18454765366783e-17
 21
-1.5
  0
LINE
  8
0
 10
9.18454765366783e-17
 20
-1.5
 11
-0.3118675362266384
 21
-1.4672214011007085
  0
LINE
  8
0
 10
-0.3118675362266384
 20
-1.4672214011007085
 11
-0.6101049646137001
 21
-1.3703181864639014
  0
LINE
  8
0
 10
-0.6101049646137001
 20
-1.3703181864639014
 11
-0.8816778784387099
 21
-1.213525491562421
  0
LINE
  8
0
 10
-0.8816778784387099
 20
-1.213525491562421
 11
-1.114717238216091
 21
-1.0036959095382878
  0
LINE
  8
0
 10
-1.114717238216091
 20
-1.0036959095382878
 11
-1.299038105676658
 21
-0.7500000000000003
  0
LINE
  8
0
 10
-1.299038105676658
 20
-0.7500000000000003
 11
-1.4265847744427305
 21
-0.46352549156242095
  0
LINE
  8
0
 10
-1.4265847744427305
 20
-0.46352549156242095
 11
-1.49178284305241
 21
-0.15679269490147957
  0
LINE
  8
0
 10
-1.49178284305241
 20
-0.15679269490147957
 11
-1.4917828430524098
 21
0.15679269490148126
  0
LINE
  8
0
 10
-1.4917828430524098
 20
0.15679269490148126
 11
-1.4265847744427302
 21
0.46352549156242123
  0
LINE
  8
0
 10
-1.4265847744427302
 20
0.46352549156242123
 11
-1.2990381056766576
 21
0.7500000000000006
  0
LINE
  8
0
 10
-1.2990381056766576
 20
0.7500000000000006
 11
-1.114717238216091
 21
1.0036959095382878
  0
LINE
  8
0
 10
-1.114717238216091
 20
1.0036959095382878
 11
-0.8816778784387097
 21
1.2135254915624214
  0
LINE
  8
0
 10
-0.8816778784387097
 20
1.2135254915624214
 11
-0.6101049646137005
 21
1.3703181864639014
  0
LINE
  8
0
 10
-0.6101049646137005
 20
1.3703181864639014
 11
-0.3118675362266387
 21
1.4672214011007085
  0
LINE
  8
0
 10
-0.3118675362266387
 20
1.4672214011007085
 11
7.579792913117722e-16
 21
1.5
  0
LINE
  8
0
 10
7.579792913117722e-16
 20
1.5
 11
0.3118675362266389
 21
1.4672214011007085
  0
LINE
  8
0
 10
0.3118675362266389
 20
1.4672214011007085
 11
0.6101049646136999
 21
1.3703181864639014
  0
LINE
  8
0
 10
0.6101049646136999
 20
1.3703181864639014
 11
0.8816778784387097
 21
1.213525491562421
  0
LINE
  8
0
 10
0.8816778784387097
 20
1.213525491562421
 11
1.1147172382160917
 21
1.003695909538287
  0
LINE
  8
0
 10
1.1147172382160917
 20
1.003695909538287
 11
1.299038105676658
 21
0.7499999999999998
  0
LINE
  8
0
 10
1.299038105676658
 20
0.7499999999999998
 11
1.4265847744427305
 21
0.4635254915624211
  0
LINE
  8
0
 10
1.4265847744427305
 20
0.4635254915624211
 11
1.49178284305241
 21
0.1567926949014801
  0
LINE
  8
0
 10
1.49178284305241
 20
0.1567926949014801
 11
1.4917828430524098
 21
-0.1567926949014801
  0
LINE
  8
0
 10
1.4917828430524098
 20
-0.1567926949014801
 11
1.4265847744427302
 21
-0.46352549156242107
  0
LINE
  8
0
 10
1.4265847744427302
 20
-0.46352549156242107
 11
1.299038105676658
 21
-0.7500000000000001
  0
LINE
  8
0
 10
1.299038105676658
 20
-0.7500000000000001
 11
1.1147172382160913
 21
-1.0036959095382874
  0
LINE
  8
0
 10
1.1147172382160913
 20
-1.0036959095382874
 11
0.8816778784387098
 21
-1.2135254915624212
  0
LINE
  8
0
 10
0.8816778784387098
 20
-1.2135254915624212
 11
0.6101049646137003
 21
-1.3703181864639014
  0
LINE
  8
0
 10
0.6101049646137003
 20
-1.3703181864639014
 11
0.3118675362266391
 21
-1.4672214011007085
  0
ENDSEC
  0
SECTION
  2
OBJECTS
  0
DICTIONARY
  0
ENDSEC
  0
EOF
