  0
SECTION
  2
BLOCKS
  0
ENDSEC
  0
SECTION
  2
ENTITIES
  0
LINE
  8
0
 10
42.10519069671779
 20
-9.60965403935434
 11
42.45833653272094
 21
-8.44548823472574
  0
LINE
  8
0
 10
42.45833653272094
 20
-8.44548823472574
 11
42.57757928880339
 21
-7.234796214732738
  0
LINE
  8
0
 10
42.57757928880339
 20
-7.234796214732738
 11
42.432967301878605
 21
-7.1347303214417055
  0
LINE
  8
0
 10
42.432967301878605
 20
-7.1347303214417055
 11
41.55172316323278
 21
-6.606653459337617
  0
LINE
  8
0
 10
41.55172316323278
 20
-6.606653459337617
 11
40.78849052303842
 21
-6.2147127067612296
  0
LINE
  8
0
 10
40.78849052303842
 20
-6.2147127067612296
 11
40.15665805349242
 21
-5.940878807591489
  0
LINE
  8
0
 10
40.15665805349242
 20
-5.940878807591489
 11
39.667741143408456
 21
-5.765997044164859
  0
LINE
  8
0
 10
39.667741143408456
 20
-5.765997044164859
 11
39.33129486270251
 21
-5.669956305408001
  0
LINE
  8
0
 10
39.33129486270251
 20
-5.669956305408001
 11
39.154841095029305
 21
-5.631864531345874
  0
LINE
  8
0
 10
39.154841095029305
 20
-5.631864531345874
 11
38.882478090154336
 21
-5.591491310502451
  0
LINE
  8
0
 10
38.882478090154336
 20
-5.591491310502451
 11
38.34627580359543
 21
-5.457316337777015
  0
LINE
  8
0
 10
38.34627580359543
 20
-5.457316337777015
 11
37.994498805421436
 21
-5.288359336527444
  0
LINE
  8
0
 10
37.994498805421436
 20
-5.288359336527444
 11
37.82865345874467
 21
-5.10816973085926
  0
LINE
  8
0
 10
37.82865345874467
 20
-5.10816973085926
 11
38.098340967517935
 21
-2.3699865028750895
  0
LINE
  8
0
 10
38.098340967517935
 20
-2.3699865028750895
 11
38.296152890555554
 21
-2.2256140120419072
  0
LINE
  8
0
 10
38.296152890555554
 20
-2.2256140120419072
 11
38.67413246812976
 21
-2.12853176004633
  0
LINE
  8
0
 10
38.67413246812976
 20
-2.12853176004633
 11
39.22620801674078
 21
-2.1015427985498625
  0
LINE
  8
0
 10
39.22620801674078
 20
-2.1015427985498625
 11
39.50121406750551
 21
-2.1150807241504714
  0
LINE
  8
0
 10
39.50121406750551
 20
-2.1150807241504714
 11
39.681708661977524
 21
-2.11214529520235
  0
LINE
  8
0
 10
39.681708661977524
 20
-2.11214529520235
 11
40.03042684039072
 21
-2.083587365554565
  0
LINE
  8
0
 10
40.03042684039072
 20
-2.083587365554565
 11
40.54406708868297
 21
-2.007448863602127
  0
LINE
  8
0
 10
40.54406708868297
 20
-2.007448863602127
 11
41.21718141806258
 21
-1.8621410059650085
  0
LINE
  8
0
 10
41.21718141806258
 20
-1.8621410059650085
 11
42.04221260471983
 21
-1.626630586596669
  0
LINE
  8
0
 10
42.04221260471983
 20
-1.626630586596669
 11
43.009546569422376
 21
-1.280622776106712
  0
LINE
  8
0
 10
43.009546569422376
 20
-1.280622776106712
 11
43.17090176491312
 21
-1.210692019993004
  0
LINE
  8
0
 10
43.17090176491312
 20
-1.210692019993004
 11
43.290144520995554
 21
-5.329070518200751e-15
  0
LINE
  8
0
 10
43.290144520995554
 20
-5.329070518200751e-15
 11
43.170901764913104
 21
1.2106920199930107
  0
LINE
  8
0
 10
43.170901764913104
 20
1.2106920199930107
 11
43.00954656942241
 21
1.2806227761067044
  0
LINE
  8
0
 10
43.00954656942241
 20
1.2806227761067044
 11
42.04221260471981
 21
1.626630586596681
  0
LINE
  8
0
 10
42.04221260471981
 20
1.626630586596681
 11
41.217181418062516
 21
1.8621410059650285
  0
LINE
  8
0
 10
41.217181418062516
 20
1.8621410059650285
 11
40.54406708868302
 21
2.007448863602158
  0
LINE
  8
0
 10
40.54406708868302
 20
2.007448863602158
 11
40.03042684039079
 21
2.0835873655545463
  0
LINE
  8
0
 10
40.03042684039079
 20
2.0835873655545463
 11
39.68170866197724
 21
2.112145295202272
  0
LINE
  8
0
 10
39.68170866197724
 20
2.112145295202272
 11
39.501214067503724
 21
2.1150807241505265
  0
LINE
  8
0
 10
39.501214067503724
 20
2.1150807241505265
 11
39.22620801674079
 21
2.1015427985498882
  0
LINE
  8
0
 10
39.22620801674079
 20
2.1015427985498882
 11
38.674132468129756
 21
2.1285317600469402
  0
LINE
  8
0
 10
38.674132468129756
 20
2.1285317600469402
 11
38.29615289055561
 21
2.2256140120419565
  0
LINE
  8
0
 10
38.29615289055561
 20
2.2256140120419565
 11
38.0983409675179
 21
2.369986502874927
  0
LINE
  8
0
 10
38.0983409675179
 20
2.369986502874927
 11
37.82865345874473
 21
5.108169730859109
  0
LINE
  8
0
 10
37.82865345874473
 20
5.108169730859109
 11
37.99449880542138
 21
5.288359336527483
  0
LINE
  8
0
 10
37.99449880542138
 20
5.288359336527483
 11
38.346275803595326
 21
5.457316337777615
  0
LINE
  8
0
 10
38.346275803595326
 20
5.457316337777615
 11
38.882478090154315
 21
5.591491310502474
  0
LINE
  8
0
 10
38.882478090154315
 20
5.591491310502474
 11
39.15484109503104
 21
5.631864531346277
  0
LINE
  8
0
 10
39.15484109503104
 20
5.631864531346277
 11
39.331294862702805
 21
5.66995630540798
  0
LINE
  8
0
 10
39.331294862702805
 20
5.66995630540798
 11
39.667741143408385
 21
5.765997044164826
  0
LINE
  8
0
 10
39.667741143408385
 20
5.765997044164826
 11
40.156658053492365
 21
5.940878807591511
  0
LINE
  8
0
 10
40.156658053492365
 20
5.940878807591511
 11
40.788490523038476
 21
6.214712706761262
  0
LINE
  8
0
 10
40.788490523038476
 20
6.214712706761262
 11
41.5517231632328
 21
6.606653459337632
  0
LINE
  8
0
 10
41.5517231632328
 20
6.606653459337632
 11
42.43296730187857
 21
7.134730321441691
  0
LINE
  8
0
 10
42.43296730187857
 20
7.134730321441691
 11
42.57757928880345
 21
7.23479621473275
  0
LINE
  8
0
 10
42.57757928880345
 20
7.23479621473275
 11
42.45833653272103
 21
8.445488234725751
  0
LINE
  8
0
 10
42.45833653272103
 20
8.445488234725751
 11
42.105190696717806
 21
9.609654039354332
  0
LINE
  8
0
 10
42.105190696717806
 20
9.609654039354332
 11
41.93329308233492
 21
9.646762258550863
  0
LINE
  8
0
 10
41.93329308233492
 20
9.646762258550863
 11
40.91704339335192
 21
9.797404131313012
  0
LINE
  8
0
 10
40.91704339335192
 20
9.797404131313012
 11
40.06191914605211
 21
9.86743368413276
  0
LINE
  8
0
 10
40.06191914605211
 20
9.86743368413276
 11
39.37339036303031
 21
9.87863140075787
  0
LINE
  8
0
 10
39.37339036303031
 20
9.87863140075787
 11
38.854765683218915
 21
9.853100681304946
  0
LINE
  8
0
 10
38.854765683218915
 20
9.853100681304946
 11
38.507176651130784
 21
9.81307833662265
  0
LINE
  8
0
 10
38.507176651130784
 20
9.81307833662265
 11
38.32957753590004
 21
9.780744613568762
  0
LINE
  8
0
 10
38.32957753590004
 20
9.780744613568762
 11
38.06249676755479
 21
9.713815796412733
  0
LINE
  8
0
 10
38.06249676755479
 20
9.713815796412733
 11
37.5157639106172
 21
9.632581576026656
  0
LINE
  8
0
 10
37.5157639106172
 20
9.632581576026656
 11
37.12610729683569
 21
9.654058262267304
  0
LINE
  8
0
 10
37.12610729683569
 20
9.654058262267304
 11
36.90393059870517
 21
9.757065484407375
  0
LINE
  8
0
 10
36.90393059870517
 20
9.757065484407375
 11
36.10523201210525
 21
12.390021866530981
  0
LINE
  8
0
 10
36.10523201210525
 20
12.390021866530981
 11
36.232737438755265
 21
12.599104001540207
  0
LINE
  8
0
 10
36.232737438755265
 20
12.599104001540207
 11
36.54479326476793
 21
12.83344282923903
  0
LINE
  8
0
 10
36.54479326476793
 20
12.83344282923903
 11
37.04451633610815
 21
13.069647544236654
  0
LINE
  8
0
 10
37.04451633610815
 20
13.069647544236654
 11
37.303769537562395
 21
13.162380391289405
  0
LINE
  8
0
 10
37.303769537562395
 20
13.162380391289405
 11
37.469401459098684
 21
13.234164664949612
  0
LINE
  8
0
 10
37.469401459098684
 20
13.234164664949612
 11
37.7806464002104
 21
13.393997421085361
  0
LINE
  8
0
 10
37.7806464002104
 20
13.393997421085361
 11
38.226051169419335
 21
13.660901837892625
  0
LINE
  8
0
 10
38.226051169419335
 20
13.660901837892625
 11
38.792320811663025
 21
14.052738495417737
  0
LINE
  8
0
 10
38.792320811663025
 20
14.052738495417737
 11
39.46442430305754
 21
14.586047517883534
  0
LINE
  8
0
 10
39.46442430305754
 20
14.586047517883534
 11
40.22571289760579
 21
15.275899733939951
  0
LINE
  8
0
 10
40.22571289760579
 20
15.275899733939951
 11
40.348024318406544
 21
15.402255288246772
  0
LINE
  8
0
 10
40.348024318406544
 20
15.402255288246772
 11
39.994878482403394
 21
16.56642109287535
  0
LINE
  8
0
 10
39.994878482403394
 20
16.56642109287535
 11
39.42140076291067
 21
17.63932244313935
  0
LINE
  8
0
 10
39.42140076291067
 20
17.63932244313935
 11
39.24556665855497
 21
17.64218207736551
  0
LINE
  8
0
 10
39.24556665855497
 20
17.64218207736551
 11
38.219455150919806
 21
17.591668929710522
  0
LINE
  8
0
 10
38.219455150919806
 20
17.591668929710522
 11
37.367099788242015
 21
17.49352641953983
  0
LINE
  8
0
 10
37.367099788242015
 20
17.49352641953983
 11
36.68961632657805
 21
17.37018367318277
  0
LINE
  8
0
 10
36.68961632657805
 20
17.37018367318277
 11
36.18593767084456
 21
17.24396486355532
  0
LINE
  8
0
 10
36.18593767084456
 20
17.24396486355532
 11
35.85283543665483
 21
17.13690028080435
  0
LINE
  8
0
 10
35.85283543665483
 20
17.13690028080435
 11
35.68495683506644
 21
17.070539972592318
  0
LINE
  8
0
 10
35.68495683506644
 20
17.070539972592318
 11
35.436065113285764
 21
16.952792300790097
  0
LINE
  8
0
 10
35.436065113285764
 20
16.952792300790097
 11
34.91568558510242
 21
16.766456684053647
  0
LINE
  8
0
 10
34.91568558510242
 20
16.766456684053647
 11
34.52932622025922
 21
16.711502467531968
  0
LINE
  8
0
 10
34.52932622025922
 20
16.711502467531968
 11
34.29132287294693
 21
16.76918591119941
  0
LINE
  8
0
 10
34.29132287294693
 20
16.76918591119941
 11
32.99430674728794
 21
19.19573241027638
  0
LINE
  8
0
 10
32.99430674728794
 20
19.19573241027638
 11
33.07857229187104
 21
19.425672165432665
  0
LINE
  8
0
 10
33.07857229187104
 20
19.425672165432665
 11
33.3389148153317
 21
19.71638730985044
  0
LINE
  8
0
 10
33.3389148153317
 20
19.71638730985044
 11
33.78295459406946
 21
20.045544552388602
  0
LINE
  8
0
 10
33.78295459406946
 20
20.045544552388602
 11
34.01913503696019
 21
20.187073354343248
  0
LINE
  8
0
 10
34.01913503696019
 20
20.187073354343248
 11
34.16757997050383
 21
20.28979149822228
  0
LINE
  8
0
 10
34.16757997050383
 20
20.28979149822228
 11
34.441662603482925
 21
20.507273988553873
  0
LINE
  8
0
 10
34.441662603482925
 20
20.507273988553873
 11
34.82643857632198
 21
20.85594407168554
  0
LINE
  8
0
 10
34.82643857632198
 20
20.85594407168554
 11
35.3053839664795
 21
21.350725424561848
  0
LINE
  8
0
 10
35.3053839664795
 20
21.350725424561848
 11
35.86052974881991
 21
22.00490795026686
  0
LINE
  8
0
 10
35.86052974881991
 20
22.00490795026686
 11
36.4726069055177
 21
22.830024886486164
  0
LINE
  8
0
 10
36.4726069055177
 20
22.830024886486164
 11
36.5679174008861
 21
22.97781432871779
  0
LINE
  8
0
 10
36.5679174008861
 20
22.97781432871779
 11
35.994439681393374
 21
24.05071567898177
  0
LINE
  8
0
 10
35.994439681393374
 20
24.05071567898177
 11
35.22266850556106
 21
24.991121577680484
  0
LINE
  8
0
 10
35.22266850556106
 20
24.991121577680484
 11
35.04965511725411
 21
24.959622732796692
  0
LINE
  8
0
 10
35.04965511725411
 20
24.959622732796692
 11
34.053114680755236
 21
24.709895756660845
  0
LINE
  8
0
 10
34.053114680755236
 20
24.709895756660845
 11
33.236283741280765
 21
24.447352745126626
  0
LINE
  8
0
 10
33.236283741280765
 20
24.447352745126626
 11
32.595880910469276
 21
24.19420952835848
  0
LINE
  8
0
 10
32.595880910469276
 20
24.19420952835848
 11
32.1265043670873
 21
23.97215314662617
  0
LINE
  8
0
 10
32.1265043670873
 20
23.97215314662617
 11
31.82068986284999
 21
23.802160757679143
  0
LINE
  8
0
 10
31.82068986284999
 20
23.802160757679143
 11
31.668983255415593
 21
23.704324053738258
  0
LINE
  8
0
 10
31.668983255415593
 20
23.704324053738258
 11
31.44784534948743
 21
23.54028250428355
  0
LINE
  8
0
 10
31.44784534948743
 20
23.54028250428355
 11
30.973817043494222
 21
23.256006264449695
  0
LINE
  8
0
 10
30.973817043494222
 20
23.256006264449695
 11
30.605602501307427
 21
23.126733004887928
  0
LINE
  8
0
 10
30.605602501307427
 20
23.126733004887928
 11
30.360918839976748
 21
23.136875927691854
  0
LINE
  8
0
 10
30.360918839976748
 20
23.136875927691854
 11
28.61542877759275
 21
25.263761722585613
  0
LINE
  8
0
 10
28.61542877759275
 20
25.263761722585613
 11
28.65321616248727
 21
25.50572264205
  0
LINE
  8
0
 10
28.65321616248727
 20
25.50572264205
 11
28.851840566221085
 21
25.841642083221682
  0
LINE
  8
0
 10
28.851840566221085
 20
25.841642083221682
 11
29.223132852679882
 21
26.251102525063153
  0
LINE
  8
0
 10
29.223132852679882
 20
26.251102525063153
 11
29.427164255038345
 21
26.435988409430838
  0
LINE
  8
0
 10
29.427164255038345
 20
26.435988409430838
 11
29.552717545042118
 21
26.565693022864423
  0
LINE
  8
0
 10
29.552717545042118
 20
26.565693022864423
 11
29.77910502801051
 21
26.83246751725401
  0
LINE
  8
0
 10
29.77910502801051
 20
26.83246751725401
 11
30.08846547962835
 21
27.249504070951758
  0
LINE
  8
0
 10
30.08846547962835
 20
27.249504070951758
 11
30.461681014951612
 21
27.82821594926481
  0
LINE
  8
0
 10
30.461681014951612
 20
27.82821594926481
 11
30.878535147151897
 21
28.578132110615975
  0
LINE
  8
0
 10
30.878535147151897
 20
28.578132110615975
 11
31.317879084124172
 21
29.506804985870176
  0
LINE
  8
0
 10
31.317879084124172
 20
29.506804985870176
 11
31.382525925173844
 21
29.670348850642853
  0
LINE
  8
0
 10
31.382525925173844
 20
29.670348850642853
 11
30.610754749341613
 21
30.610754749341613
  0
LINE
  8
0
 10
30.610754749341613
 20
30.610754749341613
 11
29.670348850642863
 21
31.38252592517386
  0
LINE
  8
0
 10
29.670348850642863
 20
31.38252592517386
 11
29.506804985870208
 21
31.317879084124193
  0
LINE
  8
0
 10
29.506804985870208
 20
31.317879084124193
 11
28.578132110615957
 21
30.878535147151883
  0
LINE
  8
0
 10
28.578132110615957
 20
30.878535147151883
 11
27.828215949264752
 21
30.461681014951576
  0
LINE
  8
0
 10
27.828215949264752
 20
30.461681014951576
 11
27.249504070951776
 21
30.0884654796284
  0
LINE
  8
0
 10
27.249504070951776
 20
30.0884654796284
 11
26.832467517254077
 21
29.77910502801054
  0
LINE
  8
0
 10
26.832467517254077
 20
29.77910502801054
 11
26.565693022864277
 21
29.552717545041855
  0
LINE
  8
0
 10
26.565693022864277
 20
29.552717545041855
 11
26.435988409429537
 21
29.427164255037116
  0
LINE
  8
0
 10
26.435988409429537
 20
29.427164255037116
 11
26.251102525063146
 21
29.223132852679907
  0
LINE
  8
0
 10
26.251102525063146
 20
29.223132852679907
 11
25.841642083221252
 21
28.851840566221505
  0
LINE
  8
0
 10
25.841642083221252
 20
28.851840566221505
 11
25.50572264205001
 21
28.65321616248734
  0
LINE
  8
0
 10
25.50572264205001
 20
28.65321616248734
 11
25.26376172258571
 21
28.615428777592605
  0
LINE
  8
0
 10
25.26376172258571
 20
28.615428777592605
 11
23.13687592769201
 21
30.360918839976687
  0
LINE
  8
0
 10
23.13687592769201
 20
30.360918839976687
 11
23.12673300488786
 21
30.60560250130741
  0
LINE
  8
0
 10
23.12673300488786
 20
30.60560250130741
 11
23.256006264449194
 21
30.97381704349457
  0
LINE
  8
0
 10
23.256006264449194
 20
30.97381704349457
 11
23.540282504283525
 21
31.44784534948743
  0
LINE
  8
0
 10
23.540282504283525
 20
31.44784534948743
 11
23.704324053739203
 21
31.6689832554171
  0
LINE
  8
0
 10
23.704324053739203
 20
31.6689832554171
 11
23.802160757679363
 21
31.820689862850177
  0
LINE
  8
0
 10
23.802160757679363
 20
31.820689862850177
 11
23.972153146626148
 21
32.12650436708722
  0
LINE
  8
0
 10
23.972153146626148
 20
32.12650436708722
 11
24.19420952835843
 21
32.59588091046924
  0
LINE
  8
0
 10
24.19420952835843
 20
32.59588091046924
 11
24.447352745126647
 21
33.23628374128082
  0
LINE
  8
0
 10
24.447352745126647
 20
33.23628374128082
 11
24.70989575666085
 21
34.05311468075525
  0
LINE
  8
0
 10
24.70989575666085
 20
34.05311468075525
 11
24.95962273279668
 21
35.04965511725407
  0
LINE
  8
0
 10
24.95962273279668
 20
35.04965511725407
 11
24.99112157768052
 21
35.22266850556111
  0
LINE
  8
0
 10
24.99112157768052
 20
35.22266850556111
 11
24.050715678981778
 21
35.99443968139334
  0
LINE
  8
0
 10
24.050715678981778
 20
35.99443968139334
 11
22.977814328717766
 21
36.567917400886074
  0
LINE
  8
0
 10
22.977814328717766
 20
36.567917400886074
 11
22.830024886486193
 21
36.47260690551773
  0
LINE
  8
0
 10
22.830024886486193
 20
36.47260690551773
 11
22.00490795026684
 21
35.860529748819886
  0
LINE
  8
0
 10
22.00490795026684
 20
35.860529748819886
 11
21.350725424561798
 21
35.30538396647946
  0
LINE
  8
0
 10
21.350725424561798
 20
35.30538396647946
 11
20.855944071685542
 21
34.82643857632205
  0
LINE
  8
0
 10
20.855944071685542
 20
34.82643857632205
 11
20.50727398855393
 21
34.44166260348297
  0
LINE
  8
0
 10
20.50727398855393
 20
34.44166260348297
 11
20.289791498222183
 21
34.167579970503546
  0
LINE
  8
0
 10
20.289791498222183
 20
34.167579970503546
 11
20.18707335434221
 21
34.019135036958744
  0
LINE
  8
0
 10
20.18707335434221
 20
34.019135036958744
 11
20.04554455238859
 21
33.78295459406948
  0
LINE
  8
0
 10
20.04554455238859
 20
33.78295459406948
 11
19.716387309849928
 21
33.338914815332025
  0
LINE
  8
0
 10
19.716387309849928
 20
33.338914815332025
 11
19.425672165432655
 21
33.078572291871104
  0
LINE
  8
0
 10
19.425672165432655
 20
33.078572291871104
 11
19.195732410276495
 21
32.99430674728781
  0
LINE
  8
0
 10
19.195732410276495
 20
32.99430674728781
 11
16.769185911199575
 21
34.29132287294689
  0
LINE
  8
0
 10
16.769185911199575
 20
34.29132287294689
 11
16.7115024675319
 21
34.52932622025919
  0
LINE
  8
0
 10
16.7115024675319
 20
34.52932622025919
 11
16.76645668405309
 21
34.915685585102665
  0
LINE
  8
0
 10
16.76645668405309
 20
34.915685585102665
 11
16.95279230079007
 21
35.43606511328576
  0
LINE
  8
0
 10
16.95279230079007
 20
35.43606511328576
 11
17.07053997259295
 21
35.684956835068114
  0
LINE
  8
0
 10
17.07053997259295
 20
35.684956835068114
 11
17.136900280804536
 21
35.85283543665506
  0
LINE
  8
0
 10
17.136900280804536
 20
35.85283543665506
 11
17.243964863555313
 21
36.18593767084448
  0
LINE
  8
0
 10
17.243964863555313
 20
36.18593767084448
 11
17.37018367318272
 21
36.689616326578005
  0
LINE
  8
0
 10
17.37018367318272
 20
36.689616326578005
 11
17.493526419539837
 21
37.36709978824208
  0
LINE
  8
0
 10
17.493526419539837
 20
37.36709978824208
 11
17.59166892971052
 21
38.21945515091983
  0
LINE
  8
0
 10
17.59166892971052
 20
38.21945515091983
 11
17.6421820773655
 21
39.245566658554935
  0
LINE
  8
0
 10
17.6421820773655
 20
39.245566658554935
 11
17.639322443139353
 21
39.42140076291068
  0
LINE
  8
0
 10
17.639322443139353
 20
39.42140076291068
 11
16.566421092875366
 21
39.99487848240342
  0
LINE
  8
0
 10
16.566421092875366
 20
39.99487848240342
 11
15.402255288246753
 21
40.34802431840652
  0
LINE
  8
0
 10
15.402255288246753
 20
40.34802431840652
 11
15.275899733939966
 21
40.22571289760582
  0
LINE
  8
0
 10
15.275899733939966
 20
40.22571289760582
 11
14.58604751788351
 21
39.46442430305753
  0
LINE
  8
0
 10
14.58604751788351
 20
39.46442430305753
 11
14.052738495417687
 21
38.79232081166297
  0
LINE
  8
0
 10
14.052738495417687
 20
38.79232081166297
 11
13.66090183789261
 21
38.22605116941939
  0
LINE
  8
0
 10
13.66090183789261
 20
38.22605116941939
 11
13.3939974210854
 21
37.78064640021046
  0
LINE
  8
0
 10
13.3939974210854
 20
37.78064640021046
 11
13.234164664949569
 21
37.46940145909839
  0
LINE
  8
0
 10
13.234164664949569
 20
37.46940145909839
 11
13.162380391288666
 21
37.30376953756077
  0
LINE
  8
0
 10
13.162380391288666
 20
37.30376953756077
 11
13.069647544236629
 21
37.04451633610818
  0
LINE
  8
0
 10
13.069647544236629
 20
37.04451633610818
 11
12.833442829238455
 21
36.54479326476816
  0
LINE
  8
0
 10
12.833442829238455
 20
36.54479326476816
 11
12.599104001540175
 21
36.232737438755336
  0
LINE
  8
0
 10
12.599104001540175
 20
36.232737438755336
 11
12.39002186653111
 21
36.10523201210515
  0
LINE
  8
0
 10
12.39002186653111
 20
36.10523201210515
 11
9.757065484407535
 21
36.90393059870518
  0
LINE
  8
0
 10
9.757065484407535
 20
36.90393059870518
 11
9.65405826226724
 21
37.12610729683565
  0
LINE
  8
0
 10
9.65405826226724
 20
37.12610729683565
 11
9.632581576026052
 21
37.51576391061733
  0
LINE
  8
0
 10
9.632581576026052
 20
37.51576391061733
 11
9.713815796412701
 21
38.062496767554784
  0
LINE
  8
0
 10
9.713815796412701
 20
38.062496767554784
 11
9.780744613569047
 21
38.3295775359018
  0
LINE
  8
0
 10
9.780744613569047
 20
38.3295775359018
 11
9.813078336622777
 21
38.50717665113105
  0
LINE
  8
0
 10
9.813078336622777
 20
38.50717665113105
 11
9.853100681304946
 21
38.85476568321884
  0
LINE
  8
0
 10
9.853100681304946
 20
38.85476568321884
 11
9.878631400757822
 21
39.37339036303027
  0
LINE
  8
0
 10
9.878631400757822
 20
39.37339036303027
 11
9.867433684132745
 21
40.061919146052176
  0
LINE
  8
0
 10
9.867433684132745
 20
40.061919146052176
 11
9.797404131312998
 21
40.91704339335194
  0
LINE
  8
0
 10
9.797404131312998
 20
40.91704339335194
 11
9.646762258550854
 21
41.93329308233488
  0
LINE
  8
0
 10
9.646762258550854
 20
41.93329308233488
 11
9.609654039354323
 21
42.105190696717834
  0
LINE
  8
0
 10
9.609654039354323
 20
42.105190696717834
 11
8.445488234725754
 21
42.45833653272099
  0
LINE
  8
0
 10
8.445488234725754
 20
42.45833653272099
 11
7.234796214732743
 21
42.5775792888034
  0
LINE
  8
0
 10
7.234796214732743
 20
42.5775792888034
 11
7.134730321441708
 21
42.432967301878605
  0
LINE
  8
0
 10
7.134730321441708
 20
42.432967301878605
 11
6.60665345933762
 21
41.55172316323278
  0
LINE
  8
0
 10
6.60665345933762
 20
41.55172316323278
 11
6.214712706761232
 21
40.78849052303842
  0
LINE
  8
0
 10
6.214712706761232
 20
40.78849052303842
 11
5.940878807591492
 21
40.15665805349242
  0
LINE
  8
0
 10
5.940878807591492
 20
40.15665805349242
 11
5.765997044164862
 21
39.667741143408456
  0
LINE
  8
0
 10
5.765997044164862
 20
39.667741143408456
 11
5.669956305408004
 21
39.33129486270251
  0
LINE
  8
0
 10
5.669956305408004
 20
39.33129486270251
 11
5.631864531345877
 21
39.154841095029305
  0
LINE
  8
0
 10
5.631864531345877
 20
39.154841095029305
 11
5.5914913105024535
 21
38.882478090154336
  0
LINE
  8
0
 10
5.5914913105024535
 20
38.882478090154336
 11
5.4573163377770175
 21
38.34627580359543
  0
LINE
  8
0
 10
5.4573163377770175
 20
38.34627580359543
 11
5.288359336527447
 21
37.994498805421436
  0
LINE
  8
0
 10
5.288359336527447
 20
37.994498805421436
 11
5.108169730859263
 21
37.82865345874467
  0
LINE
  8
0
 10
5.108169730859263
 20
37.82865345874467
 11
2.3699865028750917
 21
38.098340967517935
  0
LINE
  8
0
 10
2.3699865028750917
 20
38.098340967517935
 11
2.2256140120419095
 21
38.296152890555554
  0
LINE
  8
0
 10
2.2256140120419095
 20
38.296152890555554
 11
2.1285317600463323
 21
38.67413246812976
  0
LINE
  8
0
 10
2.1285317600463323
 20
38.67413246812976
 11
2.1015427985498647
 21
39.22620801674078
  0
LINE
  8
0
 10
2.1015427985498647
 20
39.22620801674078
 11
2.1150807241504737
 21
39.50121406750551
  0
LINE
  8
0
 10
2.1150807241504737
 20
39.50121406750551
 11
2.1121452952023523
 21
39.681708661977524
  0
LINE
  8
0
 10
2.1121452952023523
 20
39.681708661977524
 11
2.0835873655545676
 21
40.03042684039072
  0
LINE
  8
0
 10
2.0835873655545676
 20
40.03042684039072
 11
2.0074488636021295
 21
40.54406708868297
  0
LINE
  8
0
 10
2.0074488636021295
 20
40.54406708868297
 11
1.862141005965011
 21
41.21718141806258
  0
LINE
  8
0
 10
1.862141005965011
 20
41.21718141806258
 11
1.6266305865966717
 21
42.04221260471983
  0
LINE
  8
0
 10
1.6266305865966717
 20
42.04221260471983
 11
1.2806227761067146
 21
43.009546569422376
  0
LINE
  8
0
 10
1.2806227761067146
 20
43.009546569422376
 11
1.2106920199930076
 21
43.170901764913125
  0
LINE
  8
0
 10
1.2106920199930076
 20
43.170901764913125
 11
7.105427357601002e-15
 21
43.29014452099556
  0
LINE
  8
0
 10
7.105427357601002e-15
 20
43.29014452099556
 11
-1.210692019993008
 21
43.170901764913104
  0
LINE
  8
0
 10
-1.210692019993008
 20
43.170901764913104
 11
-1.2806227761067008
 21
43.00954656942241
  0
LINE
  8
0
 10
-1.2806227761067008
 20
43.00954656942241
 11
-1.6266305865966775
 21
42.04221260471981
  0
LINE
  8
0
 10
-1.6266305865966775
 20
42.04221260471981
 11
-1.8621410059650259
 21
41.217181418062516
  0
LINE
  8
0
 10
-1.8621410059650259
 20
41.217181418062516
 11
-2.007448863602156
 21
40.54406708868302
  0
LINE
  8
0
 10
-2.007448863602156
 20
40.54406708868302
 11
-2.0835873655545445
 21
40.03042684039079
  0
LINE
  8
0
 10
-2.0835873655545445
 20
40.03042684039079
 11
-2.1121452952022692
 21
39.68170866197724
  0
LINE
  8
0
 10
-2.1121452952022692
 20
39.68170866197724
 11
-2.1150807241505247
 21
39.501214067503724
  0
LINE
  8
0
 10
-2.1150807241505247
 20
39.501214067503724
 11
-2.1015427985498856
 21
39.22620801674079
  0
LINE
  8
0
 10
-2.1015427985498856
 20
39.22620801674079
 11
-2.1285317600469376
 21
38.674132468129756
  0
LINE
  8
0
 10
-2.1285317600469376
 20
38.674132468129756
 11
-2.2256140120419547
 21
38.29615289055561
  0
LINE
  8
0
 10
-2.2256140120419547
 20
38.29615289055561
 11
-2.3699865028749243
 21
38.0983409675179
  0
LINE
  8
0
 10
-2.3699865028749243
 20
38.0983409675179
 11
-5.108169730859108
 21
37.82865345874473
  0
LINE
  8
0
 10
-5.108169730859108
 20
37.82865345874473
 11
-5.288359336527481
 21
37.99449880542138
  0
LINE
  8
0
 10
-5.288359336527481
 20
37.99449880542138
 11
-5.4573163377776135
 21
38.346275803595326
  0
LINE
  8
0
 10
-5.4573163377776135
 20
38.346275803595326
 11
-5.591491310502471
 21
38.882478090154315
  0
LINE
  8
0
 10
-5.591491310502471
 20
38.882478090154315
 11
-5.631864531346276
 21
39.15484109503104
  0
LINE
  8
0
 10
-5.631864531346276
 20
39.15484109503104
 11
-5.669956305407978
 21
39.331294862702805
  0
LINE
  8
0
 10
-5.669956305407978
 20
39.331294862702805
 11
-5.765997044164823
 21
39.667741143408385
  0
LINE
  8
0
 10
-5.765997044164823
 20
39.667741143408385
 11
-5.940878807591508
 21
40.156658053492365
  0
LINE
  8
0
 10
-5.940878807591508
 20
40.156658053492365
 11
-6.214712706761259
 21
40.788490523038476
  0
LINE
  8
0
 10
-6.214712706761259
 20
40.788490523038476
 11
-6.60665345933763
 21
41.5517231632328
  0
LINE
  8
0
 10
-6.60665345933763
 20
41.5517231632328
 11
-7.134730321441688
 21
42.43296730187857
  0
LINE
  8
0
 10
-7.134730321441688
 20
42.43296730187857
 11
-7.234796214732747
 21
42.577579288803456
  0
LINE
  8
0
 10
-7.234796214732747
 20
42.577579288803456
 11
-8.445488234725753
 21
42.458336532721034
  0
LINE
  8
0
 10
-8.445488234725753
 20
42.458336532721034
 11
-9.60965403935434
 21
42.10519069671784
  0
LINE
  8
0
 10
-9.60965403935434
 20
42.10519069671784
 11
-9.64676225855086
 21
41.93329308233492
  0
LINE
  8
0
 10
-9.64676225855086
 20
41.93329308233492
 11
-9.797404131313009
 21
40.91704339335192
  0
LINE
  8
0
 10
-9.797404131313009
 20
40.91704339335192
 11
-9.867433684132758
 21
40.06191914605211
  0
LINE
  8
0
 10
-9.867433684132758
 20
40.06191914605211
 11
-9.878631400757866
 21
39.37339036303031
  0
LINE
  8
0
 10
-9.878631400757866
 20
39.37339036303031
 11
-9.853100681304946
 21
38.854765683218915
  0
LINE
  8
0
 10
-9.853100681304946
 20
38.854765683218915
 11
-9.813078336622649
 21
38.507176651130784
  0
LINE
  8
0
 10
-9.813078336622649
 20
38.507176651130784
 11
-9.780744613568759
 21
38.32957753590004
  0
LINE
  8
0
 10
-9.780744613568759
 20
38.32957753590004
 11
-9.713815796412733
 21
38.06249676755479
  0
LINE
  8
0
 10
-9.713815796412733
 20
38.06249676755479
 11
-9.632581576026654
 21
37.5157639106172
  0
LINE
  8
0
 10
-9.632581576026654
 20
37.5157639106172
 11
-9.654058262267302
 21
37.12610729683569
  0
LINE
  8
0
 10
-9.654058262267302
 20
37.12610729683569
 11
-9.757065484407372
 21
36.90393059870517
  0
LINE
  8
0
 10
-9.757065484407372
 20
36.90393059870517
 11
-12.39002186653098
 21
36.10523201210525
  0
LINE
  8
0
 10
-12.39002186653098
 20
36.10523201210525
 11
-12.599104001540203
 21
36.232737438755265
  0
LINE
  8
0
 10
-12.599104001540203
 20
36.232737438755265
 11
-12.833442829239026
 21
36.54479326476793
  0
LINE
  8
0
 10
-12.833442829239026
 20
36.54479326476793
 11
-13.069647544236652
 21
37.04451633610815
  0
LINE
  8
0
 10
-13.069647544236652
 20
37.04451633610815
 11
-13.162380391289403
 21
37.303769537562395
  0
LINE
  8
0
 10
-13.162380391289403
 20
37.303769537562395
 11
-13.23416466494961
 21
37.469401459098684
  0
LINE
  8
0
 10
-13.23416466494961
 20
37.469401459098684
 11
-13.39399742108536
 21
37.7806464002104
  0
LINE
  8
0
 10
-13.39399742108536
 20
37.7806464002104
 11
-13.660901837892622
 21
38.22605116941933
  0
LINE
  8
0
 10
-13.660901837892622
 20
38.22605116941933
 11
-14.052738495417735
 21
38.792320811663025
  0
LINE
  8
0
 10
-14.052738495417735
 20
38.792320811663025
 11
-14.58604751788353
 21
39.46442430305754
  0
LINE
  8
0
 10
-14.58604751788353
 20
39.46442430305754
 11
-15.275899733939948
 21
40.22571289760579
  0
LINE
  8
0
 10
-15.275899733939948
 20
40.22571289760579
 11
-15.402255288246783
 21
40.34802431840658
  0
LINE
  8
0
 10
-15.402255288246783
 20
40.34802431840658
 11
-16.566421092875366
 21
39.99487848240343
  0
LINE
  8
0
 10
-16.566421092875366
 20
39.99487848240343
 11
-17.639322443139335
 21
39.421400762910615
  0
LINE
  8
0
 10
-17.639322443139335
 20
39.421400762910615
 11
-17.642182077365515
 21
39.245566658554964
  0
LINE
  8
0
 10
-17.642182077365515
 20
39.245566658554964
 11
-17.591668929710526
 21
38.2194551509198
  0
LINE
  8
0
 10
-17.591668929710526
 20
38.2194551509198
 11
-17.493526419539833
 21
37.367099788242015
  0
LINE
  8
0
 10
-17.493526419539833
 20
37.367099788242015
 11
-17.370183673182773
 21
36.68961632657805
  0
LINE
  8
0
 10
-17.370183673182773
 20
36.68961632657805
 11
-17.243964863555323
 21
36.18593767084456
  0
LINE
  8
0
 10
-17.243964863555323
 20
36.18593767084456
 11
-17.13690028080436
 21
35.85283543665482
  0
LINE
  8
0
 10
-17.13690028080436
 20
35.85283543665482
 11
-17.070539972592325
 21
35.684956835066444
  0
LINE
  8
0
 10
-17.070539972592325
 20
35.684956835066444
 11
-16.9527923007901
 21
35.43606511328576
  0
LINE
  8
0
 10
-16.9527923007901
 20
35.43606511328576
 11
-16.766456684053654
 21
34.91568558510242
  0
LINE
  8
0
 10
-16.766456684053654
 20
34.91568558510242
 11
-16.711502467531968
 21
34.52932622025922
  0
LINE
  8
0
 10
-16.711502467531968
 20
34.52932622025922
 11
-16.769185911199415
 21
34.29132287294692
  0
LINE
  8
0
 10
-16.769185911199415
 20
34.29132287294692
 11
-19.195732410276385
 21
32.994306747287936
  0
LINE
  8
0
 10
-19.195732410276385
 20
32.994306747287936
 11
-19.425672165432673
 21
33.07857229187103
  0
LINE
  8
0
 10
-19.425672165432673
 20
33.07857229187103
 11
-19.716387309850443
 21
33.33891481533169
  0
LINE
  8
0
 10
-19.716387309850443
 20
33.33891481533169
 11
-20.045544552388606
 21
33.78295459406946
  0
LINE
  8
0
 10
-20.045544552388606
 20
33.78295459406946
 11
-20.18707335434325
 21
34.01913503696019
  0
LINE
  8
0
 10
-20.18707335434325
 20
34.01913503696019
 11
-20.289791498222282
 21
34.16757997050382
  0
LINE
  8
0
 10
-20.289791498222282
 20
34.16757997050382
 11
-20.507273988553877
 21
34.44166260348292
  0
LINE
  8
0
 10
-20.507273988553877
 20
34.44166260348292
 11
-20.855944071685546
 21
34.82643857632198
  0
LINE
  8
0
 10
-20.855944071685546
 20
34.82643857632198
 11
-21.350725424561855
 21
35.3053839664795
  0
LINE
  8
0
 10
-21.350725424561855
 20
35.3053839664795
 11
-22.004907950266862
 21
35.8605297488199
  0
LINE
  8
0
 10
-22.004907950266862
 20
35.8605297488199
 11
-22.83002488648617
 21
36.4726069055177
  0
LINE
  8
0
 10
-22.83002488648617
 20
36.4726069055177
 11
-22.977814328717766
 21
36.56791740088603
  0
LINE
  8
0
 10
-22.977814328717766
 20
36.56791740088603
 11
-24.05071567898174
 21
35.9944396813933
  0
LINE
  8
0
 10
-24.05071567898174
 20
35.9944396813933
 11
-24.991121577680484
 21
35.22266850556107
  0
LINE
  8
0
 10
-24.991121577680484
 20
35.22266850556107
 11
-24.959622732796692
 21
35.04965511725411
  0
LINE
  8
0
 10
-24.959622732796692
 20
35.04965511725411
 11
-24.709895756660845
 21
34.053114680755236
  0
LINE
  8
0
 10
-24.709895756660845
 20
34.053114680755236
 11
-24.447352745126626
 21
33.236283741280765
  0
LINE
  8
0
 10
-24.447352745126626
 20
33.236283741280765
 11
-24.19420952835848
 21
32.595880910469276
  0
LINE
  8
0
 10
-24.19420952835848
 20
32.595880910469276
 11
-23.97215314662617
 21
32.1265043670873
  0
LINE
  8
0
 10
-23.97215314662617
 20
32.1265043670873
 11
-23.802160757679143
 21
31.82068986284999
  0
LINE
  8
0
 10
-23.802160757679143
 20
31.82068986284999
 11
-23.704324053738258
 21
31.668983255415593
  0
LINE
  8
0
 10
-23.704324053738258
 20
31.668983255415593
 11
-23.54028250428355
 21
31.44784534948743
  0
LINE
  8
0
 10
-23.54028250428355
 20
31.44784534948743
 11
-23.256006264449695
 21
30.973817043494222
  0
LINE
  8
0
 10
-23.256006264449695
 20
30.973817043494222
 11
-23.126733004887928
 21
30.605602501307427
  0
LINE
  8
0
 10
-23.126733004887928
 20
30.605602501307427
 11
-23.136875927691854
 21
30.360918839976748
  0
LINE
  8
0
 10
-23.136875927691854
 20
30.360918839976748
 11
-25.263761722585613
 21
28.61542877759275
  0
LINE
  8
0
 10
-25.263761722585613
 20
28.61542877759275
 11
-25.50572264205
 21
28.65321616248727
  0
LINE
  8
0
 10
-25.50572264205
 20
28.65321616248727
 11
-25.841642083221682
 21
28.851840566221085
  0
LINE
  8
0
 10
-25.841642083221682
 20
28.851840566221085
 11
-26.251102525063153
 21
29.223132852679882
  0
LINE
  8
0
 10
-26.251102525063153
 20
29.223132852679882
 11
-26.435988409430838
 21
29.427164255038345
  0
LINE
  8
0
 10
-26.435988409430838
 20
29.427164255038345
 11
-26.565693022864423
 21
29.552717545042118
  0
LINE
  8
0
 10
-26.565693022864423
 20
29.552717545042118
 11
-26.83246751725401
 21
29.77910502801051
  0
LINE
  8
0
 10
-26.83246751725401
 20
29.77910502801051
 11
-27.249504070951758
 21
30.08846547962835
  0
LINE
  8
0
 10
-27.249504070951758
 20
30.08846547962835
 11
-27.82821594926481
 21
30.461681014951612
  0
LINE
  8
0
 10
-27.82821594926481
 20
30.461681014951612
 11
-28.578132110615975
 21
30.878535147151897
  0
LINE
  8
0
 10
-28.578132110615975
 20
30.878535147151897
 11
-29.506804985870176
 21
31.317879084124172
  0
LINE
  8
0
 10
-29.506804985870176
 20
31.317879084124172
 11
-29.670348850642853
 21
31.382525925173848
  0
LINE
  8
0
 10
-29.670348850642853
 20
31.382525925173848
 11
-30.61075474934162
 21
30.610754749341613
  0
LINE
  8
0
 10
-30.61075474934162
 20
30.610754749341613
 11
-31.382525925173848
 21
29.670348850642842
  0
LINE
  8
0
 10
-31.382525925173848
 20
29.670348850642842
 11
-31.3178790841242
 21
29.506804985870208
  0
LINE
  8
0
 10
-31.3178790841242
 20
29.506804985870208
 11
-30.87853514715189
 21
28.578132110615957
  0
LINE
  8
0
 10
-30.87853514715189
 20
28.578132110615957
 11
-30.461681014951576
 21
27.82821594926475
  0
LINE
  8
0
 10
-30.461681014951576
 20
27.82821594926475
 11
-30.088465479628407
 21
27.249504070951772
  0
LINE
  8
0
 10
-30.088465479628407
 20
27.249504070951772
 11
-29.779105028010548
 21
26.832467517254074
  0
LINE
  8
0
 10
-29.779105028010548
 20
26.832467517254074
 11
-29.552717545041855
 21
26.565693022864277
  0
LINE
  8
0
 10
-29.552717545041855
 20
26.565693022864277
 11
-29.427164255037123
 21
26.435988409429537
  0
LINE
  8
0
 10
-29.427164255037123
 20
26.435988409429537
 11
-29.223132852679907
 21
26.251102525063143
  0
LINE
  8
0
 10
-29.223132852679907
 20
26.251102525063143
 11
-28.85184056622151
 21
25.841642083221252
  0
LINE
  8
0
 10
-28.85184056622151
 20
25.841642083221252
 11
-28.653216162487343
 21
25.505722642050006
  0
LINE
  8
0
 10
-28.653216162487343
 20
25.505722642050006
 11
-28.615428777592612
 21
25.263761722585706
  0
LINE
  8
0
 10
-28.615428777592612
 20
25.263761722585706
 11
-30.36091883997669
 21
23.136875927692007
  0
LINE
  8
0
 10
-30.36091883997669
 20
23.136875927692007
 11
-30.605602501307413
 21
23.126733004887853
  0
LINE
  8
0
 10
-30.605602501307413
 20
23.126733004887853
 11
-30.97381704349457
 21
23.25600626444919
  0
LINE
  8
0
 10
-30.97381704349457
 20
23.25600626444919
 11
-31.447845349487437
 21
23.54028250428352
  0
LINE
  8
0
 10
-31.447845349487437
 20
23.54028250428352
 11
-31.668983255417107
 21
23.704324053739203
  0
LINE
  8
0
 10
-31.668983255417107
 20
23.704324053739203
 11
-31.820689862850177
 21
23.80216075767936
  0
LINE
  8
0
 10
-31.820689862850177
 20
23.80216075767936
 11
-32.12650436708722
 21
23.972153146626145
  0
LINE
  8
0
 10
-32.12650436708722
 20
23.972153146626145
 11
-32.59588091046925
 21
24.194209528358424
  0
LINE
  8
0
 10
-32.59588091046925
 20
24.194209528358424
 11
-33.23628374128083
 21
24.44735274512664
  0
LINE
  8
0
 10
-33.23628374128083
 20
24.44735274512664
 11
-34.05311468075525
 21
24.709895756660845
  0
LINE
  8
0
 10
-34.05311468075525
 20
24.709895756660845
 11
-35.049655117254076
 21
24.959622732796674
  0
LINE
  8
0
 10
-35.049655117254076
 20
24.959622732796674
 11
-35.2226685055611
 21
24.991121577680506
  0
LINE
  8
0
 10
-35.2226685055611
 20
24.991121577680506
 11
-35.994439681393345
 21
24.05071567898175
  0
LINE
  8
0
 10
-35.994439681393345
 20
24.05071567898175
 11
-36.567917400886046
 21
22.977814328717734
  0
LINE
  8
0
 10
-36.567917400886046
 20
22.977814328717734
 11
-36.472606905517736
 21
22.83002488648618
  0
LINE
  8
0
 10
-36.472606905517736
 20
22.83002488648618
 11
-35.8605297488199
 21
22.004907950266826
  0
LINE
  8
0
 10
-35.8605297488199
 20
22.004907950266826
 11
-35.30538396647946
 21
21.350725424561784
  0
LINE
  8
0
 10
-35.30538396647946
 20
21.350725424561784
 11
-34.82643857632205
 21
20.855944071685524
  0
LINE
  8
0
 10
-34.82643857632205
 20
20.855944071685524
 11
-34.441662603482975
 21
20.507273988553916
  0
LINE
  8
0
 10
-34.441662603482975
 20
20.507273988553916
 11
-34.16757997050355
 21
20.289791498222172
  0
LINE
  8
0
 10
-34.16757997050355
 20
20.289791498222172
 11
-34.019135036958744
 21
20.187073354342193
  0
LINE
  8
0
 10
-34.019135036958744
 20
20.187073354342193
 11
-33.782954594069494
 21
20.045544552388574
  0
LINE
  8
0
 10
-33.782954594069494
 20
20.045544552388574
 11
-33.33891481533203
 21
19.716387309849914
  0
LINE
  8
0
 10
-33.33891481533203
 20
19.716387309849914
 11
-33.07857229187111
 21
19.42567216543264
  0
LINE
  8
0
 10
-33.07857229187111
 20
19.42567216543264
 11
-32.99430674728782
 21
19.19573241027648
  0
LINE
  8
0
 10
-32.99430674728782
 20
19.19573241027648
 11
-34.2913228729469
 21
16.76918591119956
  0
LINE
  8
0
 10
-34.2913228729469
 20
16.76918591119956
 11
-34.52932622025919
 21
16.711502467531886
  0
LINE
  8
0
 10
-34.52932622025919
 20
16.711502467531886
 11
-34.91568558510267
 21
16.766456684053075
  0
LINE
  8
0
 10
-34.91568558510267
 20
16.766456684053075
 11
-35.436065113285764
 21
16.952792300790055
  0
LINE
  8
0
 10
-35.436065113285764
 20
16.952792300790055
 11
-35.684956835068114
 21
17.070539972592936
  0
LINE
  8
0
 10
-35.684956835068114
 20
17.070539972592936
 11
-35.85283543665506
 21
17.13690028080452
  0
LINE
  8
0
 10
-35.85283543665506
 20
17.13690028080452
 11
-36.18593767084449
 21
17.243964863555295
  0
LINE
  8
0
 10
-36.18593767084449
 20
17.243964863555295
 11
-36.68961632657802
 21
17.370183673182705
  0
LINE
  8
0
 10
-36.68961632657802
 20
17.370183673182705
 11
-37.367099788242086
 21
17.493526419539823
  0
LINE
  8
0
 10
-37.367099788242086
 20
17.493526419539823
 11
-38.21945515091983
 21
17.5916689297105
  0
LINE
  8
0
 10
-38.21945515091983
 20
17.5916689297105
 11
-39.24556665855494
 21
17.642182077365486
  0
LINE
  8
0
 10
-39.24556665855494
 20
17.642182077365486
 11
-39.42140076291069
 21
17.63932244313935
  0
LINE
  8
0
 10
-39.42140076291069
 20
17.63932244313935
 11
-39.99487848240344
 21
16.56642109287537
  0
LINE
  8
0
 10
-39.99487848240344
 20
16.56642109287537
 11
-40.34802431840652
 21
15.402255288246753
  0
LINE
  8
0
 10
-40.34802431840652
 20
15.402255288246753
 11
-40.22571289760582
 21
15.27589973393997
  0
LINE
  8
0
 10
-40.22571289760582
 20
15.27589973393997
 11
-39.46442430305753
 21
14.586047517883513
  0
LINE
  8
0
 10
-39.46442430305753
 20
14.586047517883513
 11
-38.79232081166297
 21
14.05273849541769
  0
LINE
  8
0
 10
-38.79232081166297
 20
14.05273849541769
 11
-38.22605116941939
 21
13.660901837892611
  0
LINE
  8
0
 10
-38.22605116941939
 20
13.660901837892611
 11
-37.78064640021046
 21
13.3939974210854
  0
LINE
  8
0
 10
-37.78064640021046
 20
13.3939974210854
 11
-37.46940145909839
 21
13.23416466494957
  0
LINE
  8
0
 10
-37.46940145909839
 20
13.23416466494957
 11
-37.30376953756077
 21
13.162380391288668
  0
LINE
  8
0
 10
-37.30376953756077
 20
13.162380391288668
 11
-37.04451633610818
 21
13.06964754423663
  0
LINE
  8
0
 10
-37.04451633610818
 20
13.06964754423663
 11
-36.54479326476816
 21
12.833442829238457
  0
LINE
  8
0
 10
-36.54479326476816
 20
12.833442829238457
 11
-36.23273743875533
 21
12.599104001540177
  0
LINE
  8
0
 10
-36.23273743875533
 20
12.599104001540177
 11
-36.10523201210515
 21
12.390021866531113
  0
LINE
  8
0
 10
-36.10523201210515
 20
12.390021866531113
 11
-36.90393059870518
 21
9.757065484407539
  0
LINE
  8
0
 10
-36.90393059870518
 20
9.757065484407539
 11
-37.12610729683565
 21
9.654058262267242
  0
LINE
  8
0
 10
-37.12610729683565
 20
9.654058262267242
 11
-37.51576391061733
 21
9.632581576026055
  0
LINE
  8
0
 10
-37.51576391061733
 20
9.632581576026055
 11
-38.062496767554784
 21
9.713815796412703
  0
LINE
  8
0
 10
-38.062496767554784
 20
9.713815796412703
 11
-38.3295775359018
 21
9.78074461356905
  0
LINE
  8
0
 10
-38.3295775359018
 20
9.78074461356905
 11
-38.50717665113105
 21
9.813078336622779
  0
LINE
  8
0
 10
-38.50717665113105
 20
9.813078336622779
 11
-38.85476568321884
 21
9.853100681304948
  0
LINE
  8
0
 10
-38.85476568321884
 20
9.853100681304948
 11
-39.37339036303027
 21
9.878631400757824
  0
LINE
  8
0
 10
-39.37339036303027
 20
9.878631400757824
 11
-40.061919146052176
 21
9.867433684132749
  0
LINE
  8
0
 10
-40.061919146052176
 20
9.867433684132749
 11
-40.91704339335194
 21
9.797404131313
  0
LINE
  8
0
 10
-40.91704339335194
 20
9.797404131313
 11
-41.93329308233488
 21
9.646762258550858
  0
LINE
  8
0
 10
-41.93329308233488
 20
9.646762258550858
 11
-42.105190696717834
 21
9.609654039354325
  0
LINE
  8
0
 10
-42.105190696717834
 20
9.609654039354325
 11
-42.45833653272099
 21
8.445488234725758
  0
LINE
  8
0
 10
-42.45833653272099
 20
8.445488234725758
 11
-42.5775792888034
 21
7.234796214732745
  0
LINE
  8
0
 10
-42.5775792888034
 20
7.234796214732745
 11
-42.432967301878605
 21
7.134730321441711
  0
LINE
  8
0
 10
-42.432967301878605
 20
7.134730321441711
 11
-41.55172316323278
 21
6.606653459337623
  0
LINE
  8
0
 10
-41.55172316323278
 20
6.606653459337623
 11
-40.78849052303842
 21
6.214712706761235
  0
LINE
  8
0
 10
-40.78849052303842
 20
6.214712706761235
 11
-40.15665805349242
 21
5.940878807591495
  0
LINE
  8
0
 10
-40.15665805349242
 20
5.940878807591495
 11
-39.667741143408456
 21
5.765997044164863
  0
LINE
  8
0
 10
-39.667741143408456
 20
5.765997044164863
 11
-39.33129486270251
 21
5.6699563054080055
  0
LINE
  8
0
 10
-39.33129486270251
 20
5.6699563054080055
 11
-39.154841095029305
 21
5.631864531345879
  0
LINE
  8
0
 10
-39.154841095029305
 20
5.631864531345879
 11
-38.882478090154336
 21
5.591491310502455
  0
LINE
  8
0
 10
-38.882478090154336
 20
5.591491310502455
 11
-38.34627580359543
 21
5.457316337777019
  0
LINE
  8
0
 10
-38.34627580359543
 20
5.457316337777019
 11
-37.994498805421436
 21
5.288359336527448
  0
LINE
  8
0
 10
-37.994498805421436
 20
5.288359336527448
 11
-37.82865345874467
 21
5.108169730859265
  0
LINE
  8
0
 10
-37.82865345874467
 20
5.108169730859265
 11
-38.098340967517935
 21
2.3699865028750944
  0
LINE
  8
0
 10
-38.098340967517935
 20
2.3699865028750944
 11
-38.296152890555554
 21
2.225614012041912
  0
LINE
  8
0
 10
-38.296152890555554
 20
2.225614012041912
 11
-38.67413246812976
 21
2.128531760046335
  0
LINE
  8
0
 10
-38.67413246812976
 20
2.128531760046335
 11
-39.22620801674078
 21
2.1015427985498674
  0
LINE
  8
0
 10
-39.22620801674078
 20
2.1015427985498674
 11
-39.50121406750551
 21
2.1150807241504763
  0
LINE
  8
0
 10
-39.50121406750551
 20
2.1150807241504763
 11
-39.681708661977524
 21
2.112145295202355
  0
LINE
  8
0
 10
-39.681708661977524
 20
2.112145295202355
 11
-40.03042684039072
 21
2.08358736555457
  0
LINE
  8
0
 10
-40.03042684039072
 20
2.08358736555457
 11
-40.54406708868297
 21
2.0074488636021317
  0
LINE
  8
0
 10
-40.54406708868297
 20
2.0074488636021317
 11
-41.21718141806258
 21
1.8621410059650136
  0
LINE
  8
0
 10
-41.21718141806258
 20
1.8621410059650136
 11
-42.04221260471983
 21
1.6266305865966741
  0
LINE
  8
0
 10
-42.04221260471983
 20
1.6266305865966741
 11
-43.009546569422376
 21
1.2806227761067173
  0
LINE
  8
0
 10
-43.009546569422376
 20
1.2806227761067173
 11
-43.17090176491312
 21
1.2106920199930107
  0
LINE
  8
0
 10
-43.17090176491312
 20
1.2106920199930107
 11
-43.290144520995554
 21
-8.881784197001252e-16
  0
LINE
  8
0
 10
-43.290144520995554
 20
-8.881784197001252e-16
 11
-43.17090176491312
 21
-1.210692019993017
  0
LINE
  8
0
 10
-43.17090176491312
 20
-1.210692019993017
 11
-43.00954656942241
 21
-1.280622776106708
  0
LINE
  8
0
 10
-43.00954656942241
 20
-1.280622776106708
 11
-42.042212604719815
 21
-1.6266305865966846
  0
LINE
  8
0
 10
-42.042212604719815
 20
-1.6266305865966846
 11
-41.217181418062516
 21
-1.862141005965033
  0
LINE
  8
0
 10
-41.217181418062516
 20
-1.862141005965033
 11
-40.54406708868302
 21
-2.0074488636021623
  0
LINE
  8
0
 10
-40.54406708868302
 20
-2.0074488636021623
 11
-40.03042684039079
 21
-2.0835873655545507
  0
LINE
  8
0
 10
-40.03042684039079
 20
-2.0835873655545507
 11
-39.68170866197724
 21
-2.1121452952022763
  0
LINE
  8
0
 10
-39.68170866197724
 20
-2.1121452952022763
 11
-39.501214067503724
 21
-2.115080724150531
  0
LINE
  8
0
 10
-39.501214067503724
 20
-2.115080724150531
 11
-39.22620801674079
 21
-2.1015427985498927
  0
LINE
  8
0
 10
-39.22620801674079
 20
-2.1015427985498927
 11
-38.674132468129756
 21
-2.1285317600469438
  0
LINE
  8
0
 10
-38.674132468129756
 20
-2.1285317600469438
 11
-38.29615289055561
 21
-2.225614012041961
  0
LINE
  8
0
 10
-38.29615289055561
 20
-2.225614012041961
 11
-38.0983409675179
 21
-2.3699865028749305
  0
LINE
  8
0
 10
-38.0983409675179
 20
-2.3699865028749305
 11
-37.82865345874474
 21
-5.108169730859113
  0
LINE
  8
0
 10
-37.82865345874474
 20
-5.108169730859113
 11
-37.99449880542138
 21
-5.2883593365274875
  0
LINE
  8
0
 10
-37.99449880542138
 20
-5.2883593365274875
 11
-38.346275803595326
 21
-5.457316337777619
  0
LINE
  8
0
 10
-38.346275803595326
 20
-5.457316337777619
 11
-38.882478090154315
 21
-5.591491310502478
  0
LINE
  8
0
 10
-38.882478090154315
 20
-5.591491310502478
 11
-39.15484109503104
 21
-5.631864531346282
  0
LINE
  8
0
 10
-39.15484109503104
 20
-5.631864531346282
 11
-39.331294862702805
 21
-5.669956305407985
  0
LINE
  8
0
 10
-39.331294862702805
 20
-5.669956305407985
 11
-39.667741143408385
 21
-5.7659970441648305
  0
LINE
  8
0
 10
-39.667741143408385
 20
-5.7659970441648305
 11
-40.156658053492365
 21
-5.940878807591515
  0
LINE
  8
0
 10
-40.156658053492365
 20
-5.940878807591515
 11
-40.788490523038476
 21
-6.214712706761266
  0
LINE
  8
0
 10
-40.788490523038476
 20
-6.214712706761266
 11
-41.5517231632328
 21
-6.606653459337637
  0
LINE
  8
0
 10
-41.5517231632328
 20
-6.606653459337637
 11
-42.43296730187857
 21
-7.134730321441695
  0
LINE
  8
0
 10
-42.43296730187857
 20
-7.134730321441695
 11
-42.57757928880343
 21
-7.234796214732752
  0
LINE
  8
0
 10
-42.57757928880343
 20
-7.234796214732752
 11
-42.458336532721
 21
-8.445488234725746
  0
LINE
  8
0
 10
-42.458336532721
 20
-8.445488234725746
 11
-42.105190696717834
 21
-9.60965403935433
  0
LINE
  8
0
 10
-42.105190696717834
 20
-9.60965403935433
 11
-41.93329308233492
 21
-9.646762258550856
  0
LINE
  8
0
 10
-41.93329308233492
 20
-9.646762258550856
 11
-40.917043393351925
 21
-9.797404131313007
  0
LINE
  8
0
 10
-40.917043393351925
 20
-9.797404131313007
 11
-40.06191914605211
 21
-9.867433684132754
  0
LINE
  8
0
 10
-40.06191914605211
 20
-9.867433684132754
 11
-39.37339036303031
 21
-9.878631400757863
  0
LINE
  8
0
 10
-39.37339036303031
 20
-9.878631400757863
 11
-38.854765683218915
 21
-9.853100681304943
  0
LINE
  8
0
 10
-38.854765683218915
 20
-9.853100681304943
 11
-38.50717665113079
 21
-9.813078336622647
  0
LINE
  8
0
 10
-38.50717665113079
 20
-9.813078336622647
 11
-38.32957753590004
 21
-9.780744613568755
  0
LINE
  8
0
 10
-38.32957753590004
 20
-9.780744613568755
 11
-38.0624967675548
 21
-9.71381579641273
  0
LINE
  8
0
 10
-38.0624967675548
 20
-9.71381579641273
 11
-37.51576391061721
 21
-9.63258157602665
  0
LINE
  8
0
 10
-37.51576391061721
 20
-9.63258157602665
 11
-37.1261072968357
 21
-9.6540582622673
  0
LINE
  8
0
 10
-37.1261072968357
 20
-9.6540582622673
 11
-36.90393059870518
 21
-9.757065484407372
  0
LINE
  8
0
 10
-36.90393059870518
 20
-9.757065484407372
 11
-36.105232012105255
 21
-12.390021866530978
  0
LINE
  8
0
 10
-36.105232012105255
 20
-12.390021866530978
 11
-36.232737438755265
 21
-12.599104001540203
  0
LINE
  8
0
 10
-36.232737438755265
 20
-12.599104001540203
 11
-36.54479326476794
 21
-12.833442829239024
  0
LINE
  8
0
 10
-36.54479326476794
 20
-12.833442829239024
 11
-37.04451633610816
 21
-13.069647544236648
  0
LINE
  8
0
 10
-37.04451633610816
 20
-13.069647544236648
 11
-37.303769537562395
 21
-13.162380391289402
  0
LINE
  8
0
 10
-37.303769537562395
 20
-13.162380391289402
 11
-37.469401459098684
 21
-13.234164664949608
  0
LINE
  8
0
 10
-37.469401459098684
 20
-13.234164664949608
 11
-37.78064640021041
 21
-13.393997421085354
  0
LINE
  8
0
 10
-37.78064640021041
 20
-13.393997421085354
 11
-38.226051169419335
 21
-13.66090183789262
  0
LINE
  8
0
 10
-38.226051169419335
 20
-13.66090183789262
 11
-38.79232081166303
 21
-14.052738495417733
  0
LINE
  8
0
 10
-38.79232081166303
 20
-14.052738495417733
 11
-39.46442430305754
 21
-14.58604751788353
  0
LINE
  8
0
 10
-39.46442430305754
 20
-14.58604751788353
 11
-40.225712897605796
 21
-15.275899733939944
  0
LINE
  8
0
 10
-40.225712897605796
 20
-15.275899733939944
 11
-40.348024318406615
 21
-15.40225528824679
  0
LINE
  8
0
 10
-40.348024318406615
 20
-15.40225528824679
 11
-39.99487848240347
 21
-16.566421092875377
  0
LINE
  8
0
 10
-39.99487848240347
 20
-16.566421092875377
 11
-39.42140076291068
 21
-17.639322443139356
  0
LINE
  8
0
 10
-39.42140076291068
 20
-17.639322443139356
 11
-39.24556665855497
 21
-17.642182077365515
  0
LINE
  8
0
 10
-39.24556665855497
 20
-17.642182077365515
 11
-38.219455150919806
 21
-17.591668929710526
  0
LINE
  8
0
 10
-38.219455150919806
 20
-17.591668929710526
 11
-37.367099788242015
 21
-17.493526419539833
  0
LINE
  8
0
 10
-37.367099788242015
 20
-17.493526419539833
 11
-36.68961632657805
 21
-17.37018367318277
  0
LINE
  8
0
 10
-36.68961632657805
 20
-17.37018367318277
 11
-36.18593767084456
 21
-17.243964863555323
  0
LINE
  8
0
 10
-36.18593767084456
 20
-17.243964863555323
 11
-35.85283543665483
 21
-17.13690028080436
  0
LINE
  8
0
 10
-35.85283543665483
 20
-17.13690028080436
 11
-35.684956835066444
 21
-17.070539972592325
  0
LINE
  8
0
 10
-35.684956835066444
 20
-17.070539972592325
 11
-35.436065113285764
 21
-16.9527923007901
  0
LINE
  8
0
 10
-35.436065113285764
 20
-16.9527923007901
 11
-34.91568558510242
 21
-16.766456684053654
  0
LINE
  8
0
 10
-34.91568558510242
 20
-16.766456684053654
 11
-34.52932622025922
 21
-16.711502467531968
  0
LINE
  8
0
 10
-34.52932622025922
 20
-16.711502467531968
 11
-34.29132287294693
 21
-16.769185911199415
  0
LINE
  8
0
 10
-34.29132287294693
 20
-16.769185911199415
 11
-32.99430674728794
 21
-19.195732410276385
  0
LINE
  8
0
 10
-32.99430674728794
 20
-19.195732410276385
 11
-33.07857229187104
 21
-19.425672165432673
  0
LINE
  8
0
 10
-33.07857229187104
 20
-19.425672165432673
 11
-33.3389148153317
 21
-19.716387309850443
  0
LINE
  8
0
 10
-33.3389148153317
 20
-19.716387309850443
 11
-33.78295459406946
 21
-20.045544552388606
  0
LINE
  8
0
 10
-33.78295459406946
 20
-20.045544552388606
 11
-34.01913503696019
 21
-20.18707335434325
  0
LINE
  8
0
 10
-34.01913503696019
 20
-20.18707335434325
 11
-34.16757997050383
 21
-20.289791498222282
  0
LINE
  8
0
 10
-34.16757997050383
 20
-20.289791498222282
 11
-34.441662603482925
 21
-20.507273988553877
  0
LINE
  8
0
 10
-34.441662603482925
 20
-20.507273988553877
 11
-34.82643857632198
 21
-20.855944071685546
  0
LINE
  8
0
 10
-34.82643857632198
 20
-20.855944071685546
 11
-35.3053839664795
 21
-21.350725424561855
  0
LINE
  8
0
 10
-35.3053839664795
 20
-21.350725424561855
 11
-35.86052974881991
 21
-22.004907950266862
  0
LINE
  8
0
 10
-35.86052974881991
 20
-22.004907950266862
 11
-36.4726069055177
 21
-22.83002488648617
  0
LINE
  8
0
 10
-36.4726069055177
 20
-22.83002488648617
 11
-36.5679174008861
 21
-22.97781432871779
  0
LINE
  8
0
 10
-36.5679174008861
 20
-22.97781432871779
 11
-35.994439681393374
 21
-24.050715678981767
  0
LINE
  8
0
 10
-35.994439681393374
 20
-24.050715678981767
 11
-35.222668505561096
 21
-24.991121577680506
  0
LINE
  8
0
 10
-35.222668505561096
 20
-24.991121577680506
 11
-35.04965511725411
 21
-24.959622732796692
  0
LINE
  8
0
 10
-35.04965511725411
 20
-24.959622732796692
 11
-34.05311468075524
 21
-24.709895756660845
  0
LINE
  8
0
 10
-34.05311468075524
 20
-24.709895756660845
 11
-33.23628374128077
 21
-24.447352745126626
  0
LINE
  8
0
 10
-33.23628374128077
 20
-24.447352745126626
 11
-32.595880910469276
 21
-24.19420952835848
  0
LINE
  8
0
 10
-32.595880910469276
 20
-24.19420952835848
 11
-32.1265043670873
 21
-23.972153146626166
  0
LINE
  8
0
 10
-32.1265043670873
 20
-23.972153146626166
 11
-31.82068986284999
 21
-23.80216075767914
  0
LINE
  8
0
 10
-31.82068986284999
 20
-23.80216075767914
 11
-31.6689832554156
 21
-23.704324053738258
  0
LINE
  8
0
 10
-31.6689832554156
 20
-23.704324053738258
 11
-31.447845349487434
 21
-23.54028250428355
  0
LINE
  8
0
 10
-31.447845349487434
 20
-23.54028250428355
 11
-30.973817043494225
 21
-23.25600626444969
  0
LINE
  8
0
 10
-30.973817043494225
 20
-23.25600626444969
 11
-30.605602501307434
 21
-23.126733004887928
  0
LINE
  8
0
 10
-30.605602501307434
 20
-23.126733004887928
 11
-30.360918839976755
 21
-23.136875927691854
  0
LINE
  8
0
 10
-30.360918839976755
 20
-23.136875927691854
 11
-28.615428777592758
 21
-25.263761722585613
  0
LINE
  8
0
 10
-28.615428777592758
 20
-25.263761722585613
 11
-28.653216162487276
 21
-25.50572264205
  0
LINE
  8
0
 10
-28.653216162487276
 20
-25.50572264205
 11
-28.851840566221092
 21
-25.841642083221682
  0
LINE
  8
0
 10
-28.851840566221092
 20
-25.841642083221682
 11
-29.22313285267989
 21
-26.251102525063153
  0
LINE
  8
0
 10
-29.22313285267989
 20
-26.251102525063153
 11
-29.42716425503835
 21
-26.435988409430838
  0
LINE
  8
0
 10
-29.42716425503835
 20
-26.435988409430838
 11
-29.55271754504212
 21
-26.565693022864423
  0
LINE
  8
0
 10
-29.55271754504212
 20
-26.565693022864423
 11
-29.779105028010513
 21
-26.83246751725401
  0
LINE
  8
0
 10
-29.779105028010513
 20
-26.83246751725401
 11
-30.088465479628354
 21
-27.249504070951758
  0
LINE
  8
0
 10
-30.088465479628354
 20
-27.249504070951758
 11
-30.461681014951616
 21
-27.82821594926481
  0
LINE
  8
0
 10
-30.461681014951616
 20
-27.82821594926481
 11
-30.8785351471519
 21
-28.578132110615975
  0
LINE
  8
0
 10
-30.8785351471519
 20
-28.578132110615975
 11
-31.317879084124176
 21
-29.506804985870176
  0
LINE
  8
0
 10
-31.317879084124176
 20
-29.506804985870176
 11
-31.382525925173866
 21
-29.670348850642867
  0
LINE
  8
0
 10
-31.382525925173866
 20
-29.670348850642867
 11
-30.610754749341627
 21
-30.61075474934163
  0
LINE
  8
0
 10
-30.610754749341627
 20
-30.61075474934163
 11
-29.67034885064283
 21
-31.382525925173827
  0
LINE
  8
0
 10
-29.67034885064283
 20
-31.382525925173827
 11
-29.506804985870204
 21
-31.317879084124193
  0
LINE
  8
0
 10
-29.506804985870204
 20
-31.317879084124193
 11
-28.578132110615954
 21
-30.878535147151883
  0
LINE
  8
0
 10
-28.578132110615954
 20
-30.878535147151883
 11
-27.82821594926475
 21
-30.461681014951576
  0
LINE
  8
0
 10
-27.82821594926475
 20
-30.461681014951576
 11
-27.24950407095177
 21
-30.0884654796284
  0
LINE
  8
0
 10
-27.24950407095177
 20
-30.0884654796284
 11
-26.832467517254074
 21
-29.77910502801054
  0
LINE
  8
0
 10
-26.832467517254074
 20
-29.77910502801054
 11
-26.565693022864277
 21
-29.552717545041855
  0
LINE
  8
0
 10
-26.565693022864277
 20
-29.552717545041855
 11
-26.435988409429537
 21
-29.427164255037116
  0
LINE
  8
0
 10
-26.435988409429537
 20
-29.427164255037116
 11
-26.251102525063143
 21
-29.223132852679907
  0
LINE
  8
0
 10
-26.251102525063143
 20
-29.223132852679907
 11
-25.841642083221252
 21
-28.851840566221505
  0
LINE
  8
0
 10
-25.841642083221252
 20
-28.851840566221505
 11
-25.505722642050003
 21
-28.65321616248734
  0
LINE
  8
0
 10
-25.505722642050003
 20
-28.65321616248734
 11
-25.263761722585706
 21
-28.61542877759261
  0
LINE
  8
0
 10
-25.263761722585706
 20
-28.61542877759261
 11
-23.136875927692007
 21
-30.360918839976687
  0
LINE
  8
0
 10
-23.136875927692007
 20
-30.360918839976687
 11
-23.126733004887853
 21
-30.60560250130741
  0
LINE
  8
0
 10
-23.126733004887853
 20
-30.60560250130741
 11
-23.25600626444919
 21
-30.97381704349457
  0
LINE
  8
0
 10
-23.25600626444919
 20
-30.97381704349457
 11
-23.54028250428352
 21
-31.44784534948743
  0
LINE
  8
0
 10
-23.54028250428352
 20
-31.44784534948743
 11
-23.7043240537392
 21
-31.6689832554171
  0
LINE
  8
0
 10
-23.7043240537392
 20
-31.6689832554171
 11
-23.80216075767936
 21
-31.820689862850177
  0
LINE
  8
0
 10
-23.80216075767936
 20
-31.820689862850177
 11
-23.972153146626145
 21
-32.12650436708722
  0
LINE
  8
0
 10
-23.972153146626145
 20
-32.12650436708722
 11
-24.194209528358424
 21
-32.59588091046924
  0
LINE
  8
0
 10
-24.194209528358424
 20
-32.59588091046924
 11
-24.44735274512664
 21
-33.23628374128082
  0
LINE
  8
0
 10
-24.44735274512664
 20
-33.23628374128082
 11
-24.709895756660845
 21
-34.05311468075525
  0
LINE
  8
0
 10
-24.709895756660845
 20
-34.05311468075525
 11
-24.959622732796674
 21
-35.04965511725407
  0
LINE
  8
0
 10
-24.959622732796674
 20
-35.04965511725407
 11
-24.9911215776805
 21
-35.222668505561096
  0
LINE
  8
0
 10
-24.9911215776805
 20
-35.222668505561096
 11
-24.05071567898175
 21
-35.99443968139333
  0
LINE
  8
0
 10
-24.05071567898175
 20
-35.99443968139333
 11
-22.977814328717756
 21
-36.567917400886074
  0
LINE
  8
0
 10
-22.977814328717756
 20
-36.567917400886074
 11
-22.83002488648618
 21
-36.472606905517736
  0
LINE
  8
0
 10
-22.83002488648618
 20
-36.472606905517736
 11
-22.004907950266826
 21
-35.86052974881989
  0
LINE
  8
0
 10
-22.004907950266826
 20
-35.86052974881989
 11
-21.350725424561784
 21
-35.30538396647946
  0
LINE
  8
0
 10
-21.350725424561784
 20
-35.30538396647946
 11
-20.85594407168553
 21
-34.82643857632205
  0
LINE
  8
0
 10
-20.85594407168553
 20
-34.82643857632205
 11
-20.50727398855392
 21
-34.441662603482975
  0
LINE
  8
0
 10
-20.50727398855392
 20
-34.441662603482975
 11
-20.289791498222172
 21
-34.16757997050355
  0
LINE
  8
0
 10
-20.289791498222172
 20
-34.16757997050355
 11
-20.187073354342196
 21
-34.019135036958744
  0
LINE
  8
0
 10
-20.187073354342196
 20
-34.019135036958744
 11
-20.045544552388577
 21
-33.782954594069494
  0
LINE
  8
0
 10
-20.045544552388577
 20
-33.782954594069494
 11
-19.716387309849917
 21
-33.33891481533203
  0
LINE
  8
0
 10
-19.716387309849917
 20
-33.33891481533203
 11
-19.42567216543264
 21
-33.07857229187111
  0
LINE
  8
0
 10
-19.42567216543264
 20
-33.07857229187111
 11
-19.19573241027648
 21
-32.99430674728782
  0
LINE
  8
0
 10
-19.19573241027648
 20
-32.99430674728782
 11
-16.769185911199564
 21
-34.2913228729469
  0
LINE
  8
0
 10
-16.769185911199564
 20
-34.2913228729469
 11
-16.71150246753189
 21
-34.52932622025919
  0
LINE
  8
0
 10
-16.71150246753189
 20
-34.52932622025919
 11
-16.76645668405308
 21
-34.91568558510267
  0
LINE
  8
0
 10
-16.76645668405308
 20
-34.91568558510267
 11
-16.95279230079006
 21
-35.436065113285764
  0
LINE
  8
0
 10
-16.95279230079006
 20
-35.436065113285764
 11
-17.070539972592936
 21
-35.684956835068114
  0
LINE
  8
0
 10
-17.070539972592936
 20
-35.684956835068114
 11
-17.13690028080452
 21
-35.85283543665506
  0
LINE
  8
0
 10
-17.13690028080452
 20
-35.85283543665506
 11
-17.2439648635553
 21
-36.18593767084449
  0
LINE
  8
0
 10
-17.2439648635553
 20
-36.18593767084449
 11
-17.370183673182705
 21
-36.68961632657802
  0
LINE
  8
0
 10
-17.370183673182705
 20
-36.68961632657802
 11
-17.493526419539823
 21
-37.367099788242086
  0
LINE
  8
0
 10
-17.493526419539823
 20
-37.367099788242086
 11
-17.591668929710504
 21
-38.21945515091983
  0
LINE
  8
0
 10
-17.591668929710504
 20
-38.21945515091983
 11
-17.642182077365486
 21
-39.24556665855494
  0
LINE
  8
0
 10
-17.642182077365486
 20
-39.24556665855494
 11
-17.63932244313935
 21
-39.42140076291069
  0
LINE
  8
0
 10
-17.63932244313935
 20
-39.42140076291069
 11
-16.566421092875395
 21
-39.99487848240342
  0
LINE
  8
0
 10
-16.566421092875395
 20
-39.99487848240342
 11
-15.40225528824679
 21
-40.348024318406544
  0
LINE
  8
0
 10
-15.40225528824679
 20
-40.348024318406544
 11
-15.275899733939989
 21
-40.22571289760582
  0
LINE
  8
0
 10
-15.275899733939989
 20
-40.22571289760582
 11
-14.586047517883532
 21
-39.46442430305751
  0
LINE
  8
0
 10
-14.586047517883532
 20
-39.46442430305751
 11
-14.052738495417708
 21
-38.79232081166296
  0
LINE
  8
0
 10
-14.052738495417708
 20
-38.79232081166296
 11
-13.66090183789263
 21
-38.22605116941938
  0
LINE
  8
0
 10
-13.66090183789263
 20
-38.22605116941938
 11
-13.393997421085421
 21
-37.78064640021044
  0
LINE
  8
0
 10
-13.393997421085421
 20
-37.78064640021044
 11
-13.23416466494959
 21
-37.469401459098385
  0
LINE
  8
0
 10
-13.23416466494959
 20
-37.469401459098385
 11
-13.162380391288687
 21
-37.30376953756076
  0
LINE
  8
0
 10
-13.162380391288687
 20
-37.30376953756076
 11
-13.06964754423665
 21
-37.044516336108174
  0
LINE
  8
0
 10
-13.06964754423665
 20
-37.044516336108174
 11
-12.833442829238477
 21
-36.54479326476815
  0
LINE
  8
0
 10
-12.833442829238477
 20
-36.54479326476815
 11
-12.599104001540194
 21
-36.23273743875532
  0
LINE
  8
0
 10
-12.599104001540194
 20
-36.23273743875532
 11
-12.39002186653113
 21
-36.10523201210514
  0
LINE
  8
0
 10
-12.39002186653113
 20
-36.10523201210514
 11
-9.757065484407557
 21
-36.90393059870517
  0
LINE
  8
0
 10
-9.757065484407557
 20
-36.90393059870517
 11
-9.65405826226726
 21
-37.12610729683564
  0
LINE
  8
0
 10
-9.65405826226726
 20
-37.12610729683564
 11
-9.632581576026075
 21
-37.51576391061732
  0
LINE
  8
0
 10
-9.632581576026075
 20
-37.51576391061732
 11
-9.713815796412723
 21
-38.06249676755477
  0
LINE
  8
0
 10
-9.713815796412723
 20
-38.06249676755477
 11
-9.78074461356907
 21
-38.3295775359018
  0
LINE
  8
0
 10
-9.78074461356907
 20
-38.3295775359018
 11
-9.813078336622798
 21
-38.50717665113104
  0
LINE
  8
0
 10
-9.813078336622798
 20
-38.50717665113104
 11
-9.853100681304968
 21
-38.85476568321883
  0
LINE
  8
0
 10
-9.853100681304968
 20
-38.85476568321883
 11
-9.878631400757845
 21
-39.37339036303026
  0
LINE
  8
0
 10
-9.878631400757845
 20
-39.37339036303026
 11
-9.867433684132768
 21
-40.06191914605217
  0
LINE
  8
0
 10
-9.867433684132768
 20
-40.06191914605217
 11
-9.797404131313021
 21
-40.91704339335193
  0
LINE
  8
0
 10
-9.797404131313021
 20
-40.91704339335193
 11
-9.64676225855088
 21
-41.93329308233487
  0
LINE
  8
0
 10
-9.64676225855088
 20
-41.93329308233487
 11
-9.609654039354364
 21
-42.10519069671786
  0
LINE
  8
0
 10
-9.609654039354364
 20
-42.10519069671786
 11
-8.44548823472578
 21
-42.45833653272103
  0
LINE
  8
0
 10
-8.44548823472578
 20
-42.45833653272103
 11
-7.234796214732748
 21
-42.577579288803406
  0
LINE
  8
0
 10
-7.234796214732748
 20
-42.577579288803406
 11
-7.1347303214417135
 21
-42.432967301878605
  0
LINE
  8
0
 10
-7.1347303214417135
 20
-42.432967301878605
 11
-6.606653459337625
 21
-41.55172316323278
  0
LINE
  8
0
 10
-6.606653459337625
 20
-41.55172316323278
 11
-6.214712706761237
 21
-40.78849052303842
  0
LINE
  8
0
 10
-6.214712706761237
 20
-40.78849052303842
 11
-5.9408788075914964
 21
-40.15665805349242
  0
LINE
  8
0
 10
-5.9408788075914964
 20
-40.15665805349242
 11
-5.765997044164866
 21
-39.667741143408456
  0
LINE
  8
0
 10
-5.765997044164866
 20
-39.667741143408456
 11
-5.669956305408008
 21
-39.33129486270251
  0
LINE
  8
0
 10
-5.669956305408008
 20
-39.33129486270251
 11
-5.631864531345881
 21
-39.154841095029305
  0
LINE
  8
0
 10
-5.631864531345881
 20
-39.154841095029305
 11
-5.591491310502458
 21
-38.882478090154336
  0
LINE
  8
0
 10
-5.591491310502458
 20
-38.882478090154336
 11
-5.457316337777022
 21
-38.34627580359543
  0
LINE
  8
0
 10
-5.457316337777022
 20
-38.34627580359543
 11
-5.288359336527451
 21
-37.994498805421436
  0
LINE
  8
0
 10
-5.288359336527451
 20
-37.994498805421436
 11
-5.1081697308592675
 21
-37.82865345874467
  0
LINE
  8
0
 10
-5.1081697308592675
 20
-37.82865345874467
 11
-2.3699865028750966
 21
-38.098340967517935
  0
LINE
  8
0
 10
-2.3699865028750966
 20
-38.098340967517935
 11
-2.2256140120419143
 21
-38.296152890555554
  0
LINE
  8
0
 10
-2.2256140120419143
 20
-38.296152890555554
 11
-2.128531760046337
 21
-38.67413246812976
  0
LINE
  8
0
 10
-2.128531760046337
 20
-38.67413246812976
 11
-2.1015427985498696
 21
-39.22620801674078
  0
LINE
  8
0
 10
-2.1015427985498696
 20
-39.22620801674078
 11
-2.1150807241504785
 21
-39.50121406750551
  0
LINE
  8
0
 10
-2.1150807241504785
 20
-39.50121406750551
 11
-2.112145295202357
 21
-39.681708661977524
  0
LINE
  8
0
 10
-2.112145295202357
 20
-39.681708661977524
 11
-2.0835873655545725
 21
-40.03042684039072
  0
LINE
  8
0
 10
-2.0835873655545725
 20
-40.03042684039072
 11
-2.0074488636021344
 21
-40.54406708868297
  0
LINE
  8
0
 10
-2.0074488636021344
 20
-40.54406708868297
 11
-1.862141005965016
 21
-41.21718141806258
  0
LINE
  8
0
 10
-1.862141005965016
 20
-41.21718141806258
 11
-1.6266305865966768
 21
-42.04221260471983
  0
LINE
  8
0
 10
-1.6266305865966768
 20
-42.04221260471983
 11
-1.28062277610672
 21
-43.009546569422376
  0
LINE
  8
0
 10
-1.28062277610672
 20
-43.009546569422376
 11
-1.2106920199930142
 21
-43.170901764913125
  0
LINE
  8
0
 10
-1.2106920199930142
 20
-43.170901764913125
 11
-4.440892098500626e-15
 21
-43.29014452099556
  0
LINE
  8
0
 10
-4.440892098500626e-15
 20
-43.29014452099556
 11
1.2106920199930125
 21
-43.17090176491312
  0
LINE
  8
0
 10
1.2106920199930125
 20
-43.17090176491312
 11
1.2806227761067062
 21
-43.00954656942241
  0
LINE
  8
0
 10
1.2806227761067062
 20
-43.00954656942241
 11
1.6266305865966828
 21
-42.042212604719815
  0
LINE
  8
0
 10
1.6266305865966828
 20
-42.042212604719815
 11
1.8621410059650303
 21
-41.217181418062516
  0
LINE
  8
0
 10
1.8621410059650303
 20
-41.217181418062516
 11
2.0074488636021606
 21
-40.54406708868302
  0
LINE
  8
0
 10
2.0074488636021606
 20
-40.54406708868302
 11
2.083587365554549
 21
-40.03042684039079
  0
LINE
  8
0
 10
2.083587365554549
 20
-40.03042684039079
 11
2.1121452952022737
 21
-39.68170866197724
  0
LINE
  8
0
 10
2.1121452952022737
 20
-39.68170866197724
 11
2.115080724150529
 21
-39.501214067503724
  0
LINE
  8
0
 10
2.115080724150529
 20
-39.501214067503724
 11
2.10154279854989
 21
-39.22620801674079
  0
LINE
  8
0
 10
2.10154279854989
 20
-39.22620801674079
 11
2.128531760046942
 21
-38.674132468129756
  0
LINE
  8
0
 10
2.128531760046942
 20
-38.674132468129756
 11
2.225614012041959
 21
-38.29615289055561
  0
LINE
  8
0
 10
2.225614012041959
 20
-38.29615289055561
 11
2.3699865028749287
 21
-38.0983409675179
  0
LINE
  8
0
 10
2.3699865028749287
 20
-38.0983409675179
 11
5.108169730859111
 21
-37.82865345874474
  0
LINE
  8
0
 10
5.108169730859111
 20
-37.82865345874474
 11
5.288359336527486
 21
-37.99449880542138
  0
LINE
  8
0
 10
5.288359336527486
 20
-37.99449880542138
 11
5.457316337777617
 21
-38.346275803595326
  0
LINE
  8
0
 10
5.457316337777617
 20
-38.346275803595326
 11
5.591491310502476
 21
-38.882478090154315
  0
LINE
  8
0
 10
5.591491310502476
 20
-38.882478090154315
 11
5.631864531346279
 21
-39.15484109503104
  0
LINE
  8
0
 10
5.631864531346279
 20
-39.15484109503104
 11
5.669956305407983
 21
-39.331294862702805
  0
LINE
  8
0
 10
5.669956305407983
 20
-39.331294862702805
 11
5.765997044164828
 21
-39.667741143408385
  0
LINE
  8
0
 10
5.765997044164828
 20
-39.667741143408385
 11
5.940878807591512
 21
-40.156658053492365
  0
LINE
  8
0
 10
5.940878807591512
 20
-40.156658053492365
 11
6.214712706761264
 21
-40.788490523038476
  0
LINE
  8
0
 10
6.214712706761264
 20
-40.788490523038476
 11
6.606653459337635
 21
-41.5517231632328
  0
LINE
  8
0
 10
6.606653459337635
 20
-41.5517231632328
 11
7.134730321441693
 21
-42.43296730187857
  0
LINE
  8
0
 10
7.134730321441693
 20
-42.43296730187857
 11
7.23479621473275
 21
-42.577579288803435
  0
LINE
  8
0
 10
7.23479621473275
 20
-42.577579288803435
 11
8.445488234725758
 21
-42.458336532721006
  0
LINE
  8
0
 10
8.445488234725758
 20
-42.458336532721006
 11
9.60965403935434
 21
-42.1051906967178
  0
LINE
  8
0
 10
9.60965403935434
 20
-42.1051906967178
 11
9.64676225855087
 21
-41.93329308233491
  0
LINE
  8
0
 10
9.64676225855087
 20
-41.93329308233491
 11
9.797404131313021
 21
-40.91704339335192
  0
LINE
  8
0
 10
9.797404131313021
 20
-40.91704339335192
 11
9.867433684132768
 21
-40.061919146052105
  0
LINE
  8
0
 10
9.867433684132768
 20
-40.061919146052105
 11
9.878631400757877
 21
-39.37339036303031
  0
LINE
  8
0
 10
9.878631400757877
 20
-39.37339036303031
 11
9.853100681304957
 21
-38.85476568321891
  0
LINE
  8
0
 10
9.853100681304957
 20
-38.85476568321891
 11
9.81307833662266
 21
-38.50717665113078
  0
LINE
  8
0
 10
9.81307833662266
 20
-38.50717665113078
 11
9.78074461356877
 21
-38.329577535900036
  0
LINE
  8
0
 10
9.78074461356877
 20
-38.329577535900036
 11
9.713815796412744
 21
-38.06249676755479
  0
LINE
  8
0
 10
9.713815796412744
 20
-38.06249676755479
 11
9.632581576026665
 21
-37.515763910617196
  0
LINE
  8
0
 10
9.632581576026665
 20
-37.515763910617196
 11
9.654058262267315
 21
-37.12610729683569
  0
LINE
  8
0
 10
9.654058262267315
 20
-37.12610729683569
 11
9.757065484407384
 21
-36.90393059870517
  0
LINE
  8
0
 10
9.757065484407384
 20
-36.90393059870517
 11
12.39002186653099
 21
-36.10523201210525
  0
LINE
  8
0
 10
12.39002186653099
 20
-36.10523201210525
 11
12.599104001540216
 21
-36.23273743875526
  0
LINE
  8
0
 10
12.599104001540216
 20
-36.23273743875526
 11
12.833442829239036
 21
-36.54479326476793
  0
LINE
  8
0
 10
12.833442829239036
 20
-36.54479326476793
 11
13.069647544236663
 21
-37.04451633610815
  0
LINE
  8
0
 10
13.069647544236663
 20
-37.04451633610815
 11
13.162380391289414
 21
-37.30376953756239
  0
LINE
  8
0
 10
13.162380391289414
 20
-37.30376953756239
 11
13.23416466494962
 21
-37.46940145909868
  0
LINE
  8
0
 10
13.23416466494962
 20
-37.46940145909868
 11
13.39399742108537
 21
-37.780646400210394
  0
LINE
  8
0
 10
13.39399742108537
 20
-37.780646400210394
 11
13.660901837892634
 21
-38.22605116941933
  0
LINE
  8
0
 10
13.660901837892634
 20
-38.22605116941933
 11
14.052738495417747
 21
-38.79232081166302
  0
LINE
  8
0
 10
14.052738495417747
 20
-38.79232081166302
 11
14.586047517883545
 21
-39.464424303057534
  0
LINE
  8
0
 10
14.586047517883545
 20
-39.464424303057534
 11
15.275899733939962
 21
-40.22571289760578
  0
LINE
  8
0
 10
15.275899733939962
 20
-40.22571289760578
 11
15.402255288246778
 21
-40.34802431840653
  0
LINE
  8
0
 10
15.402255288246778
 20
-40.34802431840653
 11
16.56642109287533
 21
-39.99487848240339
  0
LINE
  8
0
 10
16.56642109287533
 20
-39.99487848240339
 11
17.63932244313934
 21
-39.42140076291067
  0
LINE
  8
0
 10
17.63932244313934
 20
-39.42140076291067
 11
17.642182077365494
 21
-39.24556665855498
  0
LINE
  8
0
 10
17.642182077365494
 20
-39.24556665855498
 11
17.591668929710504
 21
-38.21945515091981
  0
LINE
  8
0
 10
17.591668929710504
 20
-38.21945515091981
 11
17.493526419539815
 21
-37.36709978824202
  0
LINE
  8
0
 10
17.493526419539815
 20
-37.36709978824202
 11
17.37018367318275
 21
-36.689616326578054
  0
LINE
  8
0
 10
17.37018367318275
 20
-36.689616326578054
 11
17.243964863555306
 21
-36.18593767084457
  0
LINE
  8
0
 10
17.243964863555306
 20
-36.18593767084457
 11
17.136900280804337
 21
-35.852835436654836
  0
LINE
  8
0
 10
17.136900280804337
 20
-35.852835436654836
 11
17.070539972592304
 21
-35.68495683506645
  0
LINE
  8
0
 10
17.070539972592304
 20
-35.68495683506645
 11
16.952792300790087
 21
-35.43606511328577
  0
LINE
  8
0
 10
16.952792300790087
 20
-35.43606511328577
 11
16.766456684053633
 21
-34.91568558510243
  0
LINE
  8
0
 10
16.766456684053633
 20
-34.91568558510243
 11
16.71150246753195
 21
-34.52932622025923
  0
LINE
  8
0
 10
16.71150246753195
 20
-34.52932622025923
 11
16.769185911199397
 21
-34.29132287294693
  0
LINE
  8
0
 10
16.769185911199397
 20
-34.29132287294693
 11
19.195732410276367
 21
-32.99430674728794
  0
LINE
  8
0
 10
19.195732410276367
 20
-32.99430674728794
 11
19.425672165432655
 21
-33.07857229187105
  0
LINE
  8
0
 10
19.425672165432655
 20
-33.07857229187105
 11
19.716387309850425
 21
-33.338914815331705
  0
LINE
  8
0
 10
19.716387309850425
 20
-33.338914815331705
 11
20.045544552388588
 21
-33.782954594069466
  0
LINE
  8
0
 10
20.045544552388588
 20
-33.782954594069466
 11
20.18707335434323
 21
-34.01913503696021
  0
LINE
  8
0
 10
20.18707335434323
 20
-34.01913503696021
 11
20.289791498222264
 21
-34.16757997050384
  0
LINE
  8
0
 10
20.289791498222264
 20
-34.16757997050384
 11
20.50727398855386
 21
-34.44166260348293
  0
LINE
  8
0
 10
20.50727398855386
 20
-34.44166260348293
 11
20.855944071685528
 21
-34.826438576322
  0
LINE
  8
0
 10
20.855944071685528
 20
-34.826438576322
 11
21.350725424561833
 21
-35.30538396647951
  0
LINE
  8
0
 10
21.350725424561833
 20
-35.30538396647951
 11
22.004907950266844
 21
-35.86052974881991
  0
LINE
  8
0
 10
22.004907950266844
 20
-35.86052974881991
 11
22.83002488648615
 21
-36.472606905517715
  0
LINE
  8
0
 10
22.83002488648615
 20
-36.472606905517715
 11
22.977814328717773
 21
-36.56791740088612
  0
LINE
  8
0
 10
22.977814328717773
 20
-36.56791740088612
 11
24.050715678981813
 21
-35.99443968139336
  0
LINE
  8
0
 10
24.050715678981813
 20
-35.99443968139336
 11
24.991121577680516
 21
-35.222668505561046
  0
LINE
  8
0
 10
24.991121577680516
 20
-35.222668505561046
 11
24.95962273279672
 21
-35.04965511725409
  0
LINE
  8
0
 10
24.95962273279672
 20
-35.04965511725409
 11
24.709895756660874
 21
-34.053114680755215
  0
LINE
  8
0
 10
24.709895756660874
 20
-34.053114680755215
 11
24.44735274512665
 21
-33.23628374128075
  0
LINE
  8
0
 10
24.44735274512665
 20
-33.23628374128075
 11
24.19420952835851
 21
-32.595880910469255
  0
LINE
  8
0
 10
24.19420952835851
 20
-32.595880910469255
 11
23.972153146626194
 21
-32.12650436708728
  0
LINE
  8
0
 10
23.972153146626194
 20
-32.12650436708728
 11
23.802160757679165
 21
-31.820689862849967
  0
LINE
  8
0
 10
23.802160757679165
 20
-31.820689862849967
 11
23.704324053738283
 21
-31.668983255415576
  0
LINE
  8
0
 10
23.704324053738283
 20
-31.668983255415576
 11
23.540282504283574
 21
-31.447845349487412
  0
LINE
  8
0
 10
23.540282504283574
 20
-31.447845349487412
 11
23.25600626444972
 21
-30.973817043494204
  0
LINE
  8
0
 10
23.25600626444972
 20
-30.973817043494204
 11
23.126733004887953
 21
-30.60560250130741
  0
LINE
  8
0
 10
23.126733004887953
 20
-30.60560250130741
 11
23.13687592769188
 21
-30.360918839976726
  0
LINE
  8
0
 10
23.13687592769188
 20
-30.360918839976726
 11
25.263761722585635
 21
-28.615428777592733
  0
LINE
  8
0
 10
25.263761722585635
 20
-28.615428777592733
 11
25.50572264205002
 21
-28.653216162487247
  0
LINE
  8
0
 10
25.50572264205002
 20
-28.653216162487247
 11
25.841642083221707
 21
-28.851840566221064
  0
LINE
  8
0
 10
25.841642083221707
 20
-28.851840566221064
 11
26.251102525063175
 21
-29.22313285267986
  0
LINE
  8
0
 10
26.251102525063175
 20
-29.22313285267986
 11
26.43598840943086
 21
-29.427164255038324
  0
LINE
  8
0
 10
26.43598840943086
 20
-29.427164255038324
 11
26.565693022864448
 21
-29.552717545042093
  0
LINE
  8
0
 10
26.565693022864448
 20
-29.552717545042093
 11
26.832467517254035
 21
-29.779105028010484
  0
LINE
  8
0
 10
26.832467517254035
 20
-29.779105028010484
 11
27.249504070951783
 21
-30.088465479628326
  0
LINE
  8
0
 10
27.249504070951783
 20
-30.088465479628326
 11
27.828215949264838
 21
-30.461681014951587
  0
LINE
  8
0
 10
27.828215949264838
 20
-30.461681014951587
 11
28.578132110616
 21
-30.878535147151872
  0
LINE
  8
0
 10
28.578132110616
 20
-30.878535147151872
 11
29.5068049858702
 21
-31.31787908412415
  0
LINE
  8
0
 10
29.5068049858702
 20
-31.31787908412415
 11
29.6703488506429
 21
-31.38252592517384
  0
LINE
  8
0
 10
29.6703488506429
 20
-31.38252592517384
 11
30.610754749341638
 21
-30.61075474934163
  0
LINE
  8
0
 10
30.610754749341638
 20
-30.61075474934163
 11
31.382525925173848
 21
-29.670348850642846
  0
LINE
  8
0
 10
31.382525925173848
 20
-29.670348850642846
 11
31.317879084124193
 21
-29.506804985870204
  0
LINE
  8
0
 10
31.317879084124193
 20
-29.506804985870204
 11
30.878535147151883
 21
-28.578132110615954
  0
LINE
  8
0
 10
30.878535147151883
 20
-28.578132110615954
 11
30.461681014951576
 21
-27.82821594926475
  0
LINE
  8
0
 10
30.461681014951576
 20
-27.82821594926475
 11
30.0884654796284
 21
-27.24950407095177
  0
LINE
  8
0
 10
30.0884654796284
 20
-27.24950407095177
 11
29.77910502801054
 21
-26.832467517254074
  0
LINE
  8
0
 10
29.77910502801054
 20
-26.832467517254074
 11
29.552717545041855
 21
-26.565693022864277
  0
LINE
  8
0
 10
29.552717545041855
 20
-26.565693022864277
 11
29.427164255037116
 21
-26.435988409429537
  0
LINE
  8
0
 10
29.427164255037116
 20
-26.435988409429537
 11
29.223132852679907
 21
-26.251102525063143
  0
LINE
  8
0
 10
29.223132852679907
 20
-26.251102525063143
 11
28.851840566221505
 21
-25.841642083221252
  0
LINE
  8
0
 10
28.851840566221505
 20
-25.841642083221252
 11
28.65321616248734
 21
-25.505722642050003
  0
LINE
  8
0
 10
28.65321616248734
 20
-25.505722642050003
 11
28.61542877759261
 21
-25.263761722585706
  0
LINE
  8
0
 10
28.61542877759261
 20
-25.263761722585706
 11
30.360918839976687
 21
-23.136875927692007
  0
LINE
  8
0
 10
30.360918839976687
 20
-23.136875927692007
 11
30.60560250130741
 21
-23.126733004887853
  0
LINE
  8
0
 10
30.60560250130741
 20
-23.126733004887853
 11
30.97381704349457
 21
-23.25600626444919
  0
LINE
  8
0
 10
30.97381704349457
 20
-23.25600626444919
 11
31.44784534948743
 21
-23.54028250428352
  0
LINE
  8
0
 10
31.44784534948743
 20
-23.54028250428352
 11
31.6689832554171
 21
-23.7043240537392
  0
LINE
  8
0
 10
31.6689832554171
 20
-23.7043240537392
 11
31.820689862850177
 21
-23.80216075767936
  0
LINE
  8
0
 10
31.820689862850177
 20
-23.80216075767936
 11
32.12650436708722
 21
-23.972153146626145
  0
LINE
  8
0
 10
32.12650436708722
 20
-23.972153146626145
 11
32.59588091046924
 21
-24.194209528358424
  0
LINE
  8
0
 10
32.59588091046924
 20
-24.194209528358424
 11
33.23628374128082
 21
-24.44735274512664
  0
LINE
  8
0
 10
33.23628374128082
 20
-24.44735274512664
 11
34.05311468075525
 21
-24.709895756660845
  0
LINE
  8
0
 10
34.05311468075525
 20
-24.709895756660845
 11
35.04965511725407
 21
-24.959622732796674
  0
LINE
  8
0
 10
35.04965511725407
 20
-24.959622732796674
 11
35.222668505561096
 21
-24.991121577680506
  0
LINE
  8
0
 10
35.222668505561096
 20
-24.991121577680506
 11
35.99443968139333
 21
-24.050715678981756
  0
LINE
  8
0
 10
35.99443968139333
 20
-24.050715678981756
 11
36.567917400886074
 21
-22.977814328717756
  0
LINE
  8
0
 10
36.567917400886074
 20
-22.977814328717756
 11
36.472606905517736
 21
-22.830024886486182
  0
LINE
  8
0
 10
36.472606905517736
 20
-22.830024886486182
 11
35.86052974881989
 21
-22.00490795026683
  0
LINE
  8
0
 10
35.86052974881989
 20
-22.00490795026683
 11
35.30538396647946
 21
-21.350725424561787
  0
LINE
  8
0
 10
35.30538396647946
 20
-21.350725424561787
 11
34.82643857632205
 21
-20.85594407168553
  0
LINE
  8
0
 10
34.82643857632205
 20
-20.85594407168553
 11
34.44166260348297
 21
-20.507273988553923
  0
LINE
  8
0
 10
34.44166260348297
 20
-20.507273988553923
 11
34.16757997050355
 21
-20.289791498222176
  0
LINE
  8
0
 10
34.16757997050355
 20
-20.289791498222176
 11
34.019135036958744
 21
-20.1870733543422
  0
LINE
  8
0
 10
34.019135036958744
 20
-20.1870733543422
 11
33.782954594069494
 21
-20.04554455238858
  0
LINE
  8
0
 10
33.782954594069494
 20
-20.04554455238858
 11
33.33891481533203
 21
-19.716387309849917
  0
LINE
  8
0
 10
33.33891481533203
 20
-19.716387309849917
 11
33.07857229187111
 21
-19.42567216543264
  0
LINE
  8
0
 10
33.07857229187111
 20
-19.42567216543264
 11
32.99430674728782
 21
-19.195732410276484
  0
LINE
  8
0
 10
32.99430674728782
 20
-19.195732410276484
 11
34.2913228729469
 21
-16.769185911199568
  0
LINE
  8
0
 10
34.2913228729469
 20
-16.769185911199568
 11
34.52932622025919
 21
-16.71150246753189
  0
LINE
  8
0
 10
34.52932622025919
 20
-16.71150246753189
 11
34.91568558510267
 21
-16.76645668405308
  0
LINE
  8
0
 10
34.91568558510267
 20
-16.76645668405308
 11
35.436065113285764
 21
-16.952792300790062
  0
LINE
  8
0
 10
35.436065113285764
 20
-16.952792300790062
 11
35.684956835068114
 21
-17.07053997259294
  0
LINE
  8
0
 10
35.684956835068114
 20
-17.07053997259294
 11
35.85283543665506
 21
-17.136900280804525
  0
LINE
  8
0
 10
35.85283543665506
 20
-17.136900280804525
 11
36.18593767084449
 21
-17.243964863555302
  0
LINE
  8
0
 10
36.18593767084449
 20
-17.243964863555302
 11
36.68961632657802
 21
-17.37018367318271
  0
LINE
  8
0
 10
36.68961632657802
 20
-17.37018367318271
 11
37.367099788242086
 21
-17.493526419539826
  0
LINE
  8
0
 10
37.367099788242086
 20
-17.493526419539826
 11
38.21945515091983
 21
-17.591668929710504
  0
LINE
  8
0
 10
38.21945515091983
 20
-17.591668929710504
 11
39.24556665855494
 21
-17.64218207736549
  0
LINE
  8
0
 10
39.24556665855494
 20
-17.64218207736549
 11
39.42140076291069
 21
-17.639322443139356
  0
LINE
  8
0
 10
39.42140076291069
 20
-17.639322443139356
 11
39.99487848240341
 21
-16.56642109287538
  0
LINE
  8
0
 10
39.99487848240341
 20
-16.56642109287538
 11
40.34802431840656
 21
-15.402255288246788
  0
LINE
  8
0
 10
40.34802431840656
 20
-15.402255288246788
 11
40.22571289760582
 21
-15.275899733939992
  0
LINE
  8
0
 10
40.22571289760582
 20
-15.275899733939992
 11
39.46442430305751
 21
-14.586047517883536
  0
LINE
  8
0
 10
39.46442430305751
 20
-14.586047517883536
 11
38.79232081166296
 21
-14.052738495417712
  0
LINE
  8
0
 10
38.79232081166296
 20
-14.052738495417712
 11
38.22605116941938
 21
-13.660901837892633
  0
LINE
  8
0
 10
38.22605116941938
 20
-13.660901837892633
 11
37.78064640021044
 21
-13.393997421085423
  0
LINE
  8
0
 10
37.78064640021044
 20
-13.393997421085423
 11
37.469401459098385
 21
-13.234164664949594
  0
LINE
  8
0
 10
37.469401459098385
 20
-13.234164664949594
 11
37.30376953756076
 21
-13.162380391288687
  0
LINE
  8
0
 10
37.30376953756076
 20
-13.162380391288687
 11
37.04451633610817
 21
-13.069647544236652
  0
LINE
  8
0
 10
37.04451633610817
 20
-13.069647544236652
 11
36.54479326476815
 21
-12.833442829238479
  0
LINE
  8
0
 10
36.54479326476815
 20
-12.833442829238479
 11
36.23273743875532
 21
-12.599104001540196
  0
LINE
  8
0
 10
36.23273743875532
 20
-12.599104001540196
 11
36.10523201210514
 21
-12.390021866531134
  0
LINE
  8
0
 10
36.10523201210514
 20
-12.390021866531134
 11
36.90393059870517
 21
-9.75706548440756
  0
LINE
  8
0
 10
36.90393059870517
 20
-9.75706548440756
 11
37.12610729683564
 21
-9.654058262267263
  0
LINE
  8
0
 10
37.12610729683564
 20
-9.654058262267263
 11
37.51576391061732
 21
-9.632581576026075
  0
LINE
  8
0
 10
37.51576391061732
 20
-9.632581576026075
 11
38.06249676755477
 21
-9.713815796412726
  0
LINE
  8
0
 10
38.06249676755477
 20
-9.713815796412726
 11
38.3295775359018
 21
-9.780744613569071
  0
LINE
  8
0
 10
38.3295775359018
 20
-9.780744613569071
 11
38.50717665113104
 21
-9.8130783366228
  0
LINE
  8
0
 10
38.50717665113104
 20
-9.8130783366228
 11
38.85476568321882
 21
-9.85310068130497
  0
LINE
  8
0
 10
38.85476568321882
 20
-9.85310068130497
 11
39.37339036303026
 21
-9.878631400757845
  0
LINE
  8
0
 10
39.37339036303026
 20
-9.878631400757845
 11
40.06191914605217
 21
-9.867433684132772
  0
LINE
  8
0
 10
40.06191914605217
 20
-9.867433684132772
 11
40.91704339335193
 21
-9.797404131313023
  0
LINE
  8
0
 10
40.91704339335193
 20
-9.797404131313023
 11
41.93329308233487
 21
-9.646762258550881
  0
LINE
  8
0
 10
41.93329308233487
 20
-9.646762258550881
 11
42.10519069671779
 21
-9.60965403935434
  0
LINE
  8
0
 10
0.3118675362266391
 20
-1.4672214011007085
 11
9.18454765366783e-17
 21
-1.5
  0
LINE
  8
0
 10
9.18454765366783e-17
 20
-1.5
 11
-0.3118675362266384
 21
-1.4672214011007085
  0
LINE
  8
0
 10
-0.3118675362266384
 20
-1.4672214011007085
 11
-0.6101049646137001
 21
-1.3703181864639014
  0
LINE
  8
0
 10
-0.6101049646137001
 20
-1.3703181864639014
 11
-0.8816778784387099
 21
-1.213525491562421
  0
LINE
  8
0
 10
-0.8816778784387099
 20
-1.213525491562421
 11
-1.114717238216091
 21
-1.0036959095382878
  0
LINE
  8
0
 10
-1.114717238216091
 20
-1.0036959095382878
 11
-1.299038105676658
 21
-0.7500000000000003
  0
LINE
  8
0
 10
-1.299038105676658
 20
-0.7500000000000003
 11
-1.4265847744427305
 21
-0.46352549156242095
  0
LINE
  8
0
 10
-1.4265847744427305
 20
-0.46352549156242095
 11
-1.49178284305241
 21
-0.15679269490147957
  0
LINE
  8
0
 10
-1.49178284305241
 20
-0.15679269490147957
 11
-1.4917828430524098
 21
0.15679269490148126
  0
LINE
  8
0
 10
-1.4917828430524098
 20
0.15679269490148126
 11
-1.4265847744427302
 21
0.46352549156242123
  0
LINE
  8
0
 10
-1.4265847744427302
 20
0.46352549156242123
 11
-1.2990381056766576
 21
0.7500000000000006
  0
LINE
  8
0
 10
-1.2990381056766576
 20
0.7500000000000006
 11
-1.114717238216091
 21
1.0036959095382878
  0
LINE
  8
0
 10
-1.114717238216091
 20
1.0036959095382878
 11
-0.8816778784387097
 21
1.2135254915624214
  0
LINE
  8
0
 10
-0.8816778784387097
 20
1.2135254915624214
 11
-0.6101049646137005
 21
1.3703181864639014
  0
LINE
  8
0
 10
-0.6101049646137005
 20
1.3703181864639014
 11
-0.3118675362266387
 21
1.4672214011007085
  0
LINE
  8
0
 10
-0.3118675362266387
 20
1.4672214011007085
 11
7.579792913117722e-16
 21
1.5
  0
LINE
  8
0
 10
7.579792913117722e-16
 20
1.5
 11
0.3118675362266389
 21
1.4672214011007085
  0
LINE
  8
0
 10
0.3118675362266389
 20
1.4672214011007085
 11
0.6101049646136999
 21
1.3703181864639014
  0
LINE
  8
0
 10
0.6101049646136999
 20
1.3703181864639014
 11
0.8816778784387097
 21
1.213525491562421
  0
LINE
  8
0
 10
0.8816778784387097
 20
1.213525491562421
 11
1.1147172382160917
 21
1.003695909538287
  0
LINE
  8
0
 10
1.1147172382160917
 20
1.003695909538287
 11
1.299038105676658
 21
0.7499999999999998
  0
LINE
  8
0
 10
1.299038105676658
 20
0.7499999999999998
 11
1.4265847744427305
 21
0.4635254915624211
  0
LINE
  8
0
 10
1.4265847744427305
 20
0.4635254915624211
 11
1.49178284305241
 21
0.1567926949014801
  0
LINE
  8
0
 10
1.49178284305241
 20
0.1567926949014801
 11
1.4917828430524098
 21
-0.1567926949014801
  0
LINE
  8
0
 10
1.4917828430524098
 20
-0.1567926949014801
 11
1.4265847744427302
 21
-0.46352549156242107
  0
LINE
  8
0
 10
1.4265847744427302
 20
-0.46352549156242107
 11
1.299038105676658
 21
-0.7500000000000001
  0
LINE
  8
0
 10
1.299038105676658
 20
-0.7500000000000001
 11
1.1147172382160913
 21
-1.0036959095382874
  0
LINE
  8
0
 10
1.1147172382160913
 20
-1.0036959095382874
 11
0.8816778784387098
 21
-1.2135254915624212
  0
LINE
  8
0
 10
0.8816778784387098
 20
-1.2135254915624212
 11
0.6101049646137003
 21
-1.3703181864639014
  0
LINE
  8
0
 10
0.6101049646137003
 20
-1.3703181864639014
 11
0.3118675362266391
 21
-1.4672214011007085
  0
ENDSEC
  0
SECTION
  2
OBJECTS
  0
DICTIONARY
  0
ENDSEC
  0
EOF
